SplineFontDB: 3.2
FontName: UIKitIcons-Rounded
FullName: UIKit Icons
FamilyName: UIKit Icons
Weight: Normal
Copyright: Copyright (c) 2021, moccha.dev
Version: 0.2
ItalicAngle: 0
UnderlinePosition: -100
UnderlineWidth: 50
Ascent: 800
Descent: 200
InvalidEm: 0
sfntRevision: 0x00003333
LayerCount: 2
Layer: 0 1 "Atr+AOEA-s" 1
Layer: 1 1 "Fore" 0
XUID: [1021 736 -1149361669 1772843]
StyleMap: 0x0000
FSType: 0
OS2Version: 4
OS2_WeightWidthSlopeOnly: 0
OS2_UseTypoMetrics: 1
CreationTime: 1613572335
ModificationTime: 1655413596
PfmFamily: 17
TTFWeight: 400
TTFWidth: 5
LineGap: 90
VLineGap: 0
Panose: 2 0 5 3 0 0 0 0 0 0
OS2TypoAscent: 800
OS2TypoAOffset: 0
OS2TypoDescent: -200
OS2TypoDOffset: 0
OS2TypoLinegap: 90
OS2WinAscent: 805
OS2WinAOffset: 0
OS2WinDescent: 201
OS2WinDOffset: 0
HheadAscent: 805
HheadAOffset: 0
HheadDescent: -201
HheadDOffset: 0
OS2SubXSize: 650
OS2SubYSize: 700
OS2SubXOff: 0
OS2SubYOff: 140
OS2SupXSize: 650
OS2SupYSize: 700
OS2SupXOff: 0
OS2SupYOff: 480
OS2StrikeYSize: 49
OS2StrikeYPos: 258
OS2Vendor: 'PfEd'
OS2CodePages: 00000001.00000000
OS2UnicodeRanges: 00000001.10000000.00000000.00000000
Lookup: 4 0 1 "'liga' Ligaduras est+AOEA-ndar en Latin b+APoA-squeda 0" { "'liga' Ligaduras est+AOEA-ndar en Latin b+APoA-squeda 0 subtabla"  } ['liga' ('DFLT' <'dflt' > 'latn' <'dflt' > ) ]
MarkAttachClasses: 1
DEI: 91125
ShortTable: maxp 16
  1
  0
  195
  442
  18
  0
  0
  2
  0
  1
  1
  0
  64
  0
  0
  0
EndShort
LangName: 1033 "" "" "" "FontForge 2.0 : UIKit Icons : 16-5-2022"
GaspTable: 1 65535 2 0
Encoding: UnicodeBmp
UnicodeInterp: none
NameList: AGL For New Fonts
DisplaySize: -48
AntiAlias: 1
FitToEm: 0
WinInfo: 57323 19 11
BeginPrivate: 0
EndPrivate
BeginChars: 65539 205

StartChar: .notdef
Encoding: 65536 -1 0
Width: 500
GlyphClass: 1
Flags: W
LayerCount: 2
Fore
SplineSet
50 0 m 1,0,-1
 50 533 l 1,1,-1
 450 533 l 1,2,-1
 450 0 l 1,3,-1
 50 0 l 1,0,-1
100 50 m 1,4,-1
 400 50 l 1,5,-1
 400 483 l 1,6,-1
 100 483 l 1,7,-1
 100 50 l 1,4,-1
EndSplineSet
Validated: 1
EndChar

StartChar: zero
Encoding: 48 48 3
Width: 1000
GlyphClass: 2
Flags: W
LayerCount: 2
Fore
SplineSet
0 0 m 1024,0,-1
EndSplineSet
Validated: 1
EndChar

StartChar: one
Encoding: 49 49 4
Width: 1000
GlyphClass: 2
Flags: W
LayerCount: 2
Fore
SplineSet
0 0 m 1024,0,-1
EndSplineSet
Validated: 1
EndChar

StartChar: two
Encoding: 50 50 5
Width: 1000
GlyphClass: 2
Flags: W
LayerCount: 2
Fore
SplineSet
0 0 m 1024,0,-1
EndSplineSet
Validated: 1
EndChar

StartChar: three
Encoding: 51 51 6
Width: 1000
GlyphClass: 2
Flags: W
LayerCount: 2
Fore
SplineSet
0 0 m 1024,0,-1
EndSplineSet
Validated: 1
EndChar

StartChar: four
Encoding: 52 52 7
Width: 1000
GlyphClass: 2
Flags: W
LayerCount: 2
Fore
SplineSet
0 0 m 1024,0,-1
EndSplineSet
Validated: 1
EndChar

StartChar: five
Encoding: 53 53 8
Width: 1000
GlyphClass: 2
Flags: W
LayerCount: 2
Fore
SplineSet
0 0 m 1024,0,-1
EndSplineSet
Validated: 1
EndChar

StartChar: six
Encoding: 54 54 9
Width: 1000
GlyphClass: 2
Flags: W
LayerCount: 2
Fore
SplineSet
0 0 m 1024,0,-1
EndSplineSet
Validated: 1
EndChar

StartChar: seven
Encoding: 55 55 10
Width: 1000
GlyphClass: 2
Flags: W
LayerCount: 2
Fore
SplineSet
0 0 m 1024,0,-1
EndSplineSet
Validated: 1
EndChar

StartChar: eight
Encoding: 56 56 11
Width: 1000
GlyphClass: 2
Flags: W
LayerCount: 2
Fore
SplineSet
0 0 m 1024,0,-1
EndSplineSet
Validated: 1
EndChar

StartChar: nine
Encoding: 57 57 12
Width: 1000
GlyphClass: 2
Flags: W
LayerCount: 2
Fore
SplineSet
0 0 m 1024,0,-1
EndSplineSet
Validated: 1
EndChar

StartChar: A
Encoding: 65 65 13
Width: 1000
GlyphClass: 2
Flags: W
LayerCount: 2
Fore
SplineSet
0 0 m 1024,0,-1
EndSplineSet
Validated: 1
EndChar

StartChar: B
Encoding: 66 66 14
Width: 1000
GlyphClass: 2
Flags: W
LayerCount: 2
Fore
SplineSet
0 0 m 1024,0,-1
EndSplineSet
Validated: 1
EndChar

StartChar: C
Encoding: 67 67 15
Width: 1000
GlyphClass: 2
Flags: W
LayerCount: 2
Fore
SplineSet
0 0 m 1024,0,-1
EndSplineSet
Validated: 1
EndChar

StartChar: D
Encoding: 68 68 16
Width: 1000
GlyphClass: 2
Flags: W
LayerCount: 2
Fore
SplineSet
0 0 m 1024,0,-1
EndSplineSet
Validated: 1
EndChar

StartChar: E
Encoding: 69 69 17
Width: 1000
GlyphClass: 2
Flags: W
LayerCount: 2
Fore
SplineSet
0 0 m 1024,0,-1
EndSplineSet
Validated: 1
EndChar

StartChar: F
Encoding: 70 70 18
Width: 1000
GlyphClass: 2
Flags: W
LayerCount: 2
Fore
SplineSet
0 0 m 1024,0,-1
EndSplineSet
Validated: 1
EndChar

StartChar: G
Encoding: 71 71 19
Width: 1000
GlyphClass: 2
Flags: W
LayerCount: 2
Fore
SplineSet
0 0 m 1024,0,-1
EndSplineSet
Validated: 1
EndChar

StartChar: H
Encoding: 72 72 20
Width: 1000
GlyphClass: 2
Flags: W
LayerCount: 2
Fore
SplineSet
0 0 m 1024,0,-1
EndSplineSet
Validated: 1
EndChar

StartChar: I
Encoding: 73 73 21
Width: 1000
GlyphClass: 2
Flags: W
LayerCount: 2
Fore
SplineSet
0 0 m 1024,0,-1
EndSplineSet
Validated: 1
EndChar

StartChar: J
Encoding: 74 74 22
Width: 1000
GlyphClass: 2
Flags: W
LayerCount: 2
Fore
SplineSet
0 0 m 1024,0,-1
EndSplineSet
Validated: 1
EndChar

StartChar: K
Encoding: 75 75 23
Width: 1000
GlyphClass: 2
Flags: W
LayerCount: 2
Fore
SplineSet
0 0 m 1024,0,-1
EndSplineSet
Validated: 1
EndChar

StartChar: L
Encoding: 76 76 24
Width: 1000
GlyphClass: 2
Flags: W
LayerCount: 2
Fore
SplineSet
0 0 m 1024,0,-1
EndSplineSet
Validated: 1
EndChar

StartChar: M
Encoding: 77 77 25
Width: 1000
GlyphClass: 2
Flags: W
LayerCount: 2
Fore
SplineSet
0 0 m 1024,0,-1
EndSplineSet
Validated: 1
EndChar

StartChar: N
Encoding: 78 78 26
Width: 1000
GlyphClass: 2
Flags: W
LayerCount: 2
Fore
SplineSet
0 0 m 1024,0,-1
EndSplineSet
Validated: 1
EndChar

StartChar: O
Encoding: 79 79 27
Width: 1000
GlyphClass: 2
Flags: W
LayerCount: 2
Fore
SplineSet
0 0 m 1024,0,-1
EndSplineSet
Validated: 1
EndChar

StartChar: P
Encoding: 80 80 28
Width: 1000
GlyphClass: 2
Flags: W
LayerCount: 2
Fore
SplineSet
0 0 m 1024,0,-1
EndSplineSet
Validated: 1
EndChar

StartChar: Q
Encoding: 81 81 29
Width: 1000
GlyphClass: 2
Flags: W
LayerCount: 2
Fore
SplineSet
0 0 m 1024,0,-1
EndSplineSet
Validated: 1
EndChar

StartChar: R
Encoding: 82 82 30
Width: 1000
GlyphClass: 2
Flags: W
LayerCount: 2
Fore
SplineSet
0 0 m 1024,0,-1
EndSplineSet
Validated: 1
EndChar

StartChar: S
Encoding: 83 83 31
Width: 1000
GlyphClass: 2
Flags: W
LayerCount: 2
Fore
SplineSet
0 0 m 1024,0,-1
EndSplineSet
Validated: 1
EndChar

StartChar: T
Encoding: 84 84 32
Width: 1000
GlyphClass: 2
Flags: W
LayerCount: 2
Fore
SplineSet
0 0 m 1024,0,-1
EndSplineSet
Validated: 1
EndChar

StartChar: U
Encoding: 85 85 33
Width: 1000
GlyphClass: 2
Flags: W
LayerCount: 2
Fore
SplineSet
0 0 m 1024,0,-1
EndSplineSet
Validated: 1
EndChar

StartChar: V
Encoding: 86 86 34
Width: 1000
GlyphClass: 2
Flags: W
LayerCount: 2
Fore
SplineSet
0 0 m 1024,0,-1
EndSplineSet
Validated: 1
EndChar

StartChar: W
Encoding: 87 87 35
Width: 1000
GlyphClass: 2
Flags: W
LayerCount: 2
Fore
SplineSet
0 0 m 1024,0,-1
EndSplineSet
Validated: 1
EndChar

StartChar: X
Encoding: 88 88 36
Width: 1000
GlyphClass: 2
Flags: W
LayerCount: 2
Fore
SplineSet
0 0 m 1024,0,-1
EndSplineSet
Validated: 1
EndChar

StartChar: Y
Encoding: 89 89 37
Width: 1000
GlyphClass: 2
Flags: W
LayerCount: 2
Fore
SplineSet
0 0 m 1024,0,-1
EndSplineSet
Validated: 1
EndChar

StartChar: Z
Encoding: 90 90 38
Width: 1000
GlyphClass: 2
Flags: W
LayerCount: 2
Fore
SplineSet
0 0 m 1024,0,-1
EndSplineSet
Validated: 1
EndChar

StartChar: underscore
Encoding: 95 95 39
Width: 1000
GlyphClass: 2
Flags: W
LayerCount: 2
Fore
SplineSet
0 0 m 1024,0,-1
EndSplineSet
Validated: 1
EndChar

StartChar: a
Encoding: 97 97 40
Width: 1000
GlyphClass: 2
Flags: W
LayerCount: 2
Fore
SplineSet
0 0 m 1024,0,-1
EndSplineSet
Validated: 1
EndChar

StartChar: b
Encoding: 98 98 41
Width: 1000
GlyphClass: 2
Flags: W
LayerCount: 2
Fore
SplineSet
0 0 m 1024,0,-1
EndSplineSet
Validated: 1
EndChar

StartChar: c
Encoding: 99 99 42
Width: 1000
GlyphClass: 2
Flags: W
LayerCount: 2
Fore
SplineSet
0 0 m 1024,0,-1
EndSplineSet
Validated: 1
EndChar

StartChar: d
Encoding: 100 100 43
Width: 1000
GlyphClass: 2
Flags: W
LayerCount: 2
Fore
SplineSet
0 0 m 1024,0,-1
EndSplineSet
Validated: 1
EndChar

StartChar: e
Encoding: 101 101 44
Width: 1000
GlyphClass: 2
Flags: W
LayerCount: 2
Fore
SplineSet
0 0 m 1024,0,-1
EndSplineSet
Validated: 1
EndChar

StartChar: f
Encoding: 102 102 45
Width: 1000
GlyphClass: 2
Flags: W
LayerCount: 2
Fore
SplineSet
0 0 m 1024,0,-1
EndSplineSet
Validated: 1
EndChar

StartChar: g
Encoding: 103 103 46
Width: 1000
GlyphClass: 2
Flags: W
LayerCount: 2
Fore
SplineSet
0 0 m 1024,0,-1
EndSplineSet
Validated: 1
EndChar

StartChar: h
Encoding: 104 104 47
Width: 1000
GlyphClass: 2
Flags: W
LayerCount: 2
Fore
SplineSet
0 0 m 1024,0,-1
EndSplineSet
Validated: 1
EndChar

StartChar: i
Encoding: 105 105 48
Width: 1000
GlyphClass: 2
Flags: W
LayerCount: 2
Fore
SplineSet
0 0 m 1024,0,-1
EndSplineSet
Validated: 1
EndChar

StartChar: j
Encoding: 106 106 49
Width: 1000
GlyphClass: 2
Flags: W
LayerCount: 2
Fore
SplineSet
0 0 m 1024,0,-1
EndSplineSet
Validated: 1
EndChar

StartChar: k
Encoding: 107 107 50
Width: 1000
GlyphClass: 2
Flags: W
LayerCount: 2
Fore
SplineSet
0 0 m 1024,0,-1
EndSplineSet
Validated: 1
EndChar

StartChar: l
Encoding: 108 108 51
Width: 1000
GlyphClass: 2
Flags: W
LayerCount: 2
Fore
SplineSet
0 0 m 1024,0,-1
EndSplineSet
Validated: 1
EndChar

StartChar: m
Encoding: 109 109 52
Width: 1000
GlyphClass: 2
Flags: W
LayerCount: 2
Fore
SplineSet
0 0 m 1024,0,-1
EndSplineSet
Validated: 1
EndChar

StartChar: n
Encoding: 110 110 53
Width: 1000
GlyphClass: 2
Flags: W
LayerCount: 2
Fore
SplineSet
0 0 m 1024,0,-1
EndSplineSet
Validated: 1
EndChar

StartChar: o
Encoding: 111 111 54
Width: 1000
GlyphClass: 2
Flags: W
LayerCount: 2
Fore
SplineSet
0 0 m 1024,0,-1
EndSplineSet
Validated: 1
EndChar

StartChar: p
Encoding: 112 112 55
Width: 1000
GlyphClass: 2
Flags: W
LayerCount: 2
Fore
SplineSet
0 0 m 1024,0,-1
EndSplineSet
Validated: 1
EndChar

StartChar: q
Encoding: 113 113 56
Width: 1000
GlyphClass: 2
Flags: W
LayerCount: 2
Fore
SplineSet
0 0 m 1024,0,-1
EndSplineSet
Validated: 1
EndChar

StartChar: r
Encoding: 114 114 57
Width: 1000
GlyphClass: 2
Flags: W
LayerCount: 2
Fore
SplineSet
0 0 m 1024,0,-1
EndSplineSet
Validated: 1
EndChar

StartChar: s
Encoding: 115 115 58
Width: 1000
GlyphClass: 2
Flags: W
LayerCount: 2
Fore
SplineSet
0 0 m 1024,0,-1
EndSplineSet
Validated: 1
EndChar

StartChar: t
Encoding: 116 116 59
Width: 1000
GlyphClass: 2
Flags: W
LayerCount: 2
Fore
SplineSet
0 0 m 1024,0,-1
EndSplineSet
Validated: 1
EndChar

StartChar: u
Encoding: 117 117 60
Width: 1000
GlyphClass: 2
Flags: W
LayerCount: 2
Fore
SplineSet
0 0 m 1024,0,-1
EndSplineSet
Validated: 1
EndChar

StartChar: v
Encoding: 118 118 61
Width: 1000
GlyphClass: 2
Flags: W
LayerCount: 2
Fore
SplineSet
0 0 m 1024,0,-1
EndSplineSet
Validated: 1
EndChar

StartChar: w
Encoding: 119 119 62
Width: 1000
GlyphClass: 2
Flags: W
LayerCount: 2
Fore
SplineSet
0 0 m 1024,0,-1
EndSplineSet
Validated: 1
EndChar

StartChar: x
Encoding: 120 120 63
Width: 1000
GlyphClass: 2
Flags: W
LayerCount: 2
Fore
SplineSet
0 0 m 1024,0,-1
EndSplineSet
Validated: 1
EndChar

StartChar: y
Encoding: 121 121 64
Width: 1000
GlyphClass: 2
Flags: W
LayerCount: 2
Fore
SplineSet
0 0 m 1024,0,-1
EndSplineSet
Validated: 1
EndChar

StartChar: z
Encoding: 122 122 65
Width: 1000
GlyphClass: 2
Flags: W
LayerCount: 2
Fore
SplineSet
0 0 m 1024,0,-1
EndSplineSet
Validated: 1
EndChar

StartChar: account_circle
Encoding: 57344 57344 66
Width: 1000
GlyphClass: 3
Flags: W
LayerCount: 2
Fore
SplineSet
1000 300 m 128,-1,1
 1000 436 1000 436 933 551 c 128,-1,2
 866 666 866 666 751 733 c 128,-1,3
 636 800 636 800 500 800 c 128,-1,4
 364 800 364 800 249 733 c 128,-1,5
 134 666 134 666 67 551 c 128,-1,6
 0 436 0 436 0 300 c 128,-1,7
 0 164 0 164 67 49 c 128,-1,8
 134 -66 134 -66 249 -133 c 128,-1,9
 364 -200 364 -200 500 -200 c 128,-1,10
 636 -200 636 -200 751 -133 c 128,-1,11
 866 -66 866 -66 933 49 c 128,-1,0
 1000 164 1000 164 1000 300 c 128,-1,1
286 -61 m 1,12,-1
 286 46 l 2,13,14
 286 74 286 74 306 94.5 c 128,-1,15
 326 115 326 115 355 115 c 2,16,-1
 645 115 l 2,17,18
 674 115 674 115 694 94.5 c 128,-1,19
 714 74 714 74 714 46 c 2,20,-1
 714 -61 l 1,21,22
 615 -120 615 -120 500 -120 c 128,-1,23
 385 -120 385 -120 286 -61 c 1,12,-1
794 1 m 1,24,-1
 794 46 l 2,25,26
 794 107 794 107 750.5 151 c 128,-1,27
 707 195 707 195 645 195 c 2,28,-1
 355 195 l 2,29,30
 293 195 293 195 249.5 151 c 128,-1,31
 206 107 206 107 206 46 c 2,32,-1
 206 1 l 1,33,34
 146 59 146 59 113 136.5 c 128,-1,35
 80 214 80 214 80 300 c 0,36,37
 80 474 80 474 203 597 c 128,-1,38
 326 720 326 720 500 720 c 128,-1,39
 674 720 674 720 797 597 c 128,-1,40
 920 474 920 474 920 300 c 0,41,42
 920 214 920 214 887 136.5 c 128,-1,43
 854 59 854 59 794 1 c 1,24,-1
500 581 m 128,-1,45
 436 581 436 581 391 536 c 128,-1,46
 346 491 346 491 346 427 c 128,-1,47
 346 363 346 363 391 317.5 c 128,-1,48
 436 272 436 272 500 272 c 128,-1,49
 564 272 564 272 609 317.5 c 128,-1,50
 654 363 654 363 654 427 c 128,-1,51
 654 491 654 491 609 536 c 128,-1,44
 564 581 564 581 500 581 c 128,-1,45
500 352 m 128,-1,53
 469 352 469 352 447.5 374 c 128,-1,54
 426 396 426 396 426 427 c 128,-1,55
 426 458 426 458 447.5 479.5 c 128,-1,56
 469 501 469 501 500 501 c 128,-1,57
 531 501 531 501 552.5 479.5 c 128,-1,58
 574 458 574 458 574 427 c 128,-1,59
 574 396 574 396 552.5 374 c 128,-1,52
 531 352 531 352 500 352 c 128,-1,53
EndSplineSet
Validated: 9
Ligature2: "'liga' Ligaduras est+AOEA-ndar en Latin b+APoA-squeda 0 subtabla" a c c o u n t underscore c i r c l e
EndChar

StartChar: settings_gear
Encoding: 57345 57345 67
Width: 927
GlyphClass: 3
Flags: W
LayerCount: 2
Fore
SplineSet
494 -200 m 2,0,-1
 434 -200 l 2,1,2
 384 -200 384 -200 349 -165 c 128,-1,3
 314 -130 314 -130 314 -80 c 2,4,-1
 314 -68 l 2,5,6
 314 -43 314 -43 293 -33 c 0,7,8
 271 -21 271 -21 261 -15 c 0,9,10
 242 -2 242 -2 220 -14 c 2,11,-1
 210 -20 l 2,12,13
 167 -45 167 -45 119 -32 c 128,-1,14
 71 -19 71 -19 46 24 c 2,15,-1
 16 76 l 2,16,17
 -9 119 -9 119 4 167 c 128,-1,18
 17 215 17 215 60 240 c 2,19,-1
 70 246 l 2,20,21
 92 258 92 258 90 283 c 2,22,-1
 90 300 l 1,23,-1
 90 317 l 2,24,25
 92 342 92 342 70 354 c 2,26,-1
 60 360 l 2,27,28
 17 385 17 385 4 433 c 128,-1,29
 -9 481 -9 481 16 524 c 2,30,-1
 46 576 l 2,31,32
 71 619 71 619 119 632 c 128,-1,33
 167 645 167 645 210 620 c 2,34,-1
 220 614 l 2,35,36
 240 601 240 601 261 615 c 0,37,38
 275 625 275 625 293 633 c 0,39,40
 314 644 314 644 314 668 c 2,41,-1
 314 680 l 2,42,43
 314 730 314 730 349 765 c 128,-1,44
 384 800 384 800 434 800 c 2,45,-1
 494 800 l 2,46,47
 543 800 543 800 578.5 765 c 128,-1,48
 614 730 614 730 614 680 c 2,49,-1
 614 668 l 2,50,51
 614 643 614 643 635 633 c 0,52,53
 657 621 657 621 667 615 c 0,54,55
 686 602 686 602 708 614 c 2,56,-1
 718 620 l 2,57,58
 761 645 761 645 809 632 c 128,-1,59
 857 619 857 619 882 576 c 2,60,-1
 912 524 l 2,61,62
 936 481 936 481 924 433 c 128,-1,63
 912 385 912 385 868 360 c 2,64,-1
 858 354 l 2,65,66
 836 341 836 341 838 317 c 2,67,-1
 838 300 l 1,68,-1
 838 283 l 2,69,70
 836 258 836 258 858 246 c 2,71,-1
 868 240 l 2,72,73
 912 215 912 215 924 167 c 128,-1,74
 936 119 936 119 912 76 c 2,75,-1
 882 24 l 2,76,77
 857 -19 857 -19 809 -32 c 128,-1,78
 761 -45 761 -45 718 -20 c 2,79,-1
 708 -14 l 2,80,81
 687 -1 687 -1 667 -15 c 0,82,83
 653 -25 653 -25 635 -33 c 0,84,85
 614 -44 614 -44 614 -68 c 2,86,-1
 614 -80 l 2,87,88
 614 -130 614 -130 578.5 -165 c 128,-1,89
 543 -200 543 -200 494 -200 c 2,0,-1
240 71 m 0,90,91
 276 71 276 71 305 52 c 0,92,93
 309 50 309 50 317.5 45 c 128,-1,94
 326 40 326 40 330 37 c 0,95,96
 360 22 360 22 377.5 -6.5 c 128,-1,97
 395 -35 395 -35 395 -69 c 2,98,-1
 395 -80 l 2,99,100
 395 -96 395 -96 406.5 -108 c 128,-1,101
 418 -120 418 -120 435 -120 c 2,102,-1
 495 -120 l 2,103,104
 511 -120 511 -120 523 -108 c 128,-1,105
 535 -96 535 -96 535 -80 c 2,106,-1
 535 -68 l 2,107,108
 535 -34 535 -34 552.5 -5.5 c 128,-1,109
 570 23 570 23 600 38 c 0,110,111
 612 43 612 43 625 53 c 0,112,113
 653 71 653 71 687 72 c 128,-1,114
 721 73 721 73 750 56 c 2,115,-1
 760 50 l 2,116,117
 774 42 774 42 790.5 46.5 c 128,-1,118
 807 51 807 51 815 65 c 2,119,-1
 845 117 l 2,120,121
 853 132 853 132 849 147 c 0,122,123
 844 164 844 164 830 171 c 2,124,-1
 820 177 l 2,125,126
 791 194 791 194 774.5 223.5 c 128,-1,127
 758 253 758 253 760 287 c 2,128,-1
 760 300 l 1,129,-1
 760 313 l 2,130,131
 758 347 758 347 774.5 376.5 c 128,-1,132
 791 406 791 406 820 423 c 2,133,-1
 830 429 l 2,134,135
 844 437 844 437 849 453 c 0,136,137
 853 468 853 468 845 483 c 2,138,-1
 815 535 l 2,139,140
 807 549 807 549 790.5 553.5 c 128,-1,141
 774 558 774 558 760 550 c 2,142,-1
 750 544 l 2,143,144
 720 527 720 527 687 528 c 128,-1,145
 654 529 654 529 625 547 c 0,146,147
 621 550 621 550 612.5 555 c 128,-1,148
 604 560 604 560 600 562 c 0,149,150
 570 577 570 577 552.5 605.5 c 128,-1,151
 535 634 535 634 535 668 c 2,152,-1
 535 680 l 2,153,154
 535 696 535 696 523 708 c 128,-1,155
 511 720 511 720 495 720 c 2,156,-1
 435 720 l 2,157,158
 418 720 418 720 406.5 708 c 128,-1,159
 395 696 395 696 395 680 c 2,160,-1
 395 668 l 2,161,162
 395 634 395 634 377.5 605.5 c 128,-1,163
 360 577 360 577 330 562 c 0,164,165
 318 557 318 557 305 547 c 0,166,167
 276 529 276 529 242.5 528 c 128,-1,168
 209 527 209 527 180 544 c 2,169,-1
 170 550 l 2,170,171
 156 558 156 558 139.5 553.5 c 128,-1,172
 123 549 123 549 115 535 c 2,173,-1
 85 483 l 2,174,175
 77 469 77 469 81.5 452.5 c 128,-1,176
 86 436 86 436 100 428 c 2,177,-1
 110 422 l 2,178,179
 139 405 139 405 155 375.5 c 128,-1,180
 171 346 171 346 170 312 c 2,181,-1
 170 299 l 1,182,-1
 170 286 l 2,183,184
 171 252 171 252 155 222.5 c 128,-1,185
 139 193 139 193 110 176 c 2,186,-1
 100 170 l 2,187,188
 86 162 86 162 81.5 145.5 c 128,-1,189
 77 129 77 129 85 115 c 2,190,-1
 115 63 l 2,191,192
 123 49 123 49 139.5 44.5 c 128,-1,193
 156 40 156 40 170 48 c 2,194,-1
 180 54 l 2,195,196
 207 71 207 71 240 71 c 0,90,91
469 114 m 128,-1,198
 392 114 392 114 337.5 168.5 c 128,-1,199
 283 223 283 223 283 299.5 c 128,-1,200
 283 376 283 376 337.5 431 c 128,-1,201
 392 486 392 486 469 486 c 128,-1,202
 546 486 546 486 600.5 431.5 c 128,-1,203
 655 377 655 377 655 300 c 128,-1,204
 655 223 655 223 600.5 168.5 c 128,-1,197
 546 114 546 114 469 114 c 128,-1,198
469 406 m 128,-1,206
 425 406 425 406 394 375 c 128,-1,207
 363 344 363 344 363 300 c 128,-1,208
 363 256 363 256 394 225 c 128,-1,209
 425 194 425 194 469 194 c 128,-1,210
 513 194 513 194 544 225 c 128,-1,211
 575 256 575 256 575 300 c 128,-1,212
 575 344 575 344 544 375 c 128,-1,205
 513 406 513 406 469 406 c 128,-1,206
EndSplineSet
Validated: 33
Ligature2: "'liga' Ligaduras est+AOEA-ndar en Latin b+APoA-squeda 0 subtabla" s e t t i n g s underscore g e a r
EndChar

StartChar: done_circle
Encoding: 57346 57346 68
Width: 1000
GlyphClass: 3
Flags: W
LayerCount: 2
Fore
SplineSet
500 -200 m 128,-1,1
 364 -200 364 -200 249 -133 c 128,-1,2
 134 -66 134 -66 67 49 c 128,-1,3
 0 164 0 164 0 300 c 128,-1,4
 0 436 0 436 67 551 c 128,-1,5
 134 666 134 666 249 733 c 128,-1,6
 364 800 364 800 500 800 c 128,-1,7
 636 800 636 800 751 733 c 128,-1,8
 866 666 866 666 933 551 c 128,-1,9
 1000 436 1000 436 1000 300 c 128,-1,10
 1000 164 1000 164 933 49 c 128,-1,11
 866 -66 866 -66 751 -133 c 128,-1,0
 636 -200 636 -200 500 -200 c 128,-1,1
500 720 m 128,-1,13
 326 720 326 720 203 597 c 128,-1,14
 80 474 80 474 80 300 c 128,-1,15
 80 126 80 126 203 3 c 128,-1,16
 326 -120 326 -120 500 -120 c 128,-1,17
 674 -120 674 -120 797 3 c 128,-1,18
 920 126 920 126 920 300 c 128,-1,19
 920 474 920 474 797 597 c 128,-1,12
 674 720 674 720 500 720 c 128,-1,13
433 102 m 0,20,21
 413 102 413 102 401 118 c 2,22,-1
 306 249 l 2,23,24
 296 263 296 263 299 279.5 c 128,-1,25
 302 296 302 296 315.5 305.5 c 128,-1,26
 329 315 329 315 345 312.5 c 128,-1,27
 361 310 361 310 371 296 c 2,28,-1
 433 210 l 1,29,-1
 629 482 l 2,30,31
 639 495 639 495 655 498 c 128,-1,32
 671 501 671 501 684.5 491 c 128,-1,33
 698 481 698 481 700.5 465 c 128,-1,34
 703 449 703 449 694 435 c 2,35,-1
 466 118 l 2,36,37
 454 102 454 102 433 102 c 0,20,21
EndSplineSet
Validated: 33
Ligature2: "'liga' Ligaduras est+AOEA-ndar en Latin b+APoA-squeda 0 subtabla" d o n e underscore c i r c l e
EndChar

StartChar: cancel_circle
Encoding: 57347 57347 69
Width: 1000
GlyphClass: 3
Flags: W
LayerCount: 2
Fore
SplineSet
500 -200 m 128,-1,1
 364 -200 364 -200 249 -133 c 128,-1,2
 134 -66 134 -66 67 49 c 128,-1,3
 0 164 0 164 0 300 c 128,-1,4
 0 436 0 436 67 551 c 128,-1,5
 134 666 134 666 249 733 c 128,-1,6
 364 800 364 800 500 800 c 128,-1,7
 636 800 636 800 751 733 c 128,-1,8
 866 666 866 666 933 551 c 128,-1,9
 1000 436 1000 436 1000 300 c 128,-1,10
 1000 164 1000 164 933 49 c 128,-1,11
 866 -66 866 -66 751 -133 c 128,-1,0
 636 -200 636 -200 500 -200 c 128,-1,1
500 720 m 128,-1,13
 326 720 326 720 203 597 c 128,-1,14
 80 474 80 474 80 300 c 128,-1,15
 80 126 80 126 203 3 c 128,-1,16
 326 -120 326 -120 500 -120 c 128,-1,17
 674 -120 674 -120 797 3 c 128,-1,18
 920 126 920 126 920 300 c 128,-1,19
 920 474 920 474 797 597 c 128,-1,12
 674 720 674 720 500 720 c 128,-1,13
645 115 m 0,20,21
 629 115 629 115 617 127 c 2,22,-1
 327 417 l 2,23,24
 315 429 315 429 315 445.5 c 128,-1,25
 315 462 315 462 327 474 c 128,-1,26
 339 486 339 486 355.5 486 c 128,-1,27
 372 486 372 486 384 474 c 2,28,-1
 674 184 l 2,29,30
 686 172 686 172 686 155.5 c 128,-1,31
 686 139 686 139 674 127 c 0,32,33
 660 115 660 115 645 115 c 0,20,21
355 115 m 0,34,35
 339 115 339 115 327 127 c 128,-1,36
 315 139 315 139 315 155.5 c 128,-1,37
 315 172 315 172 327 184 c 2,38,-1
 617 474 l 2,39,40
 629 486 629 486 645.5 486 c 128,-1,41
 662 486 662 486 674 474 c 128,-1,42
 686 462 686 462 686 445.5 c 128,-1,43
 686 429 686 429 674 417 c 2,44,-1
 384 127 l 2,45,46
 372 115 372 115 355 115 c 0,34,35
EndSplineSet
Validated: 5
Ligature2: "'liga' Ligaduras est+AOEA-ndar en Latin b+APoA-squeda 0 subtabla" c a n c e l underscore c i r c l e
EndChar

StartChar: reload
Encoding: 57348 57348 70
Width: 1000
GlyphClass: 3
Flags: W
LayerCount: 2
Fore
SplineSet
500 -200 m 0,0,1
 294 -200 294 -200 146 -54 c 0,2,3
 134 -42 134 -42 134 -25.5 c 128,-1,4
 134 -9 134 -9 146 3 c 128,-1,5
 158 15 158 15 174.5 15 c 128,-1,6
 191 15 191 15 203 3 c 0,7,8
 326 -120 326 -120 500 -120 c 0,9,10
 662 -120 662 -120 783.5 -9 c 128,-1,11
 905 102 905 102 918 263 c 0,12,13
 920 280 920 280 932.5 290 c 128,-1,14
 945 300 945 300 961 299 c 0,15,16
 978 297 978 297 988 284.5 c 128,-1,17
 998 272 998 272 997 256 c 0,18,19
 980 63 980 63 838 -68 c 0,20,21
 695 -200 695 -200 500 -200 c 0,0,1
20 149 m 2,22,-1
 301 149 l 2,23,24
 314 149 314 149 319.5 136.5 c 128,-1,25
 325 124 325 124 315 115 c 2,26,-1
 34 -166 l 2,27,28
 25 -175 25 -175 12.5 -170 c 128,-1,29
 0 -165 0 -165 0 -152 c 2,30,-1
 0 129 l 2,31,32
 0 138 0 138 6 143.5 c 128,-1,33
 12 149 12 149 20 149 c 2,22,-1
40 260 m 128,-1,35
 24 260 24 260 12 272 c 128,-1,36
 0 284 0 284 0 300 c 0,37,38
 0 436 0 436 67 551 c 128,-1,39
 134 666 134 666 249 733 c 128,-1,40
 364 800 364 800 500 800 c 0,41,42
 706 800 706 800 854 654 c 0,43,44
 866 642 866 642 866 625.5 c 128,-1,45
 866 609 866 609 854 597 c 128,-1,46
 842 585 842 585 825.5 585 c 128,-1,47
 809 585 809 585 797 597 c 0,48,49
 674 720 674 720 500 720 c 128,-1,50
 326 720 326 720 203 597 c 128,-1,51
 80 474 80 474 80 300 c 0,52,53
 80 284 80 284 68 272 c 128,-1,34
 56 260 56 260 40 260 c 128,-1,35
980 451 m 2,54,-1
 699 451 l 2,55,56
 686 451 686 451 680.5 463.5 c 128,-1,57
 675 476 675 476 685 485 c 2,58,-1
 966 766 l 2,59,60
 975 775 975 775 987.5 770 c 128,-1,61
 1000 765 1000 765 1000 752 c 2,62,-1
 1000 471 l 2,63,64
 1000 462 1000 462 994 456.5 c 128,-1,65
 988 451 988 451 980 451 c 2,54,-1
EndSplineSet
Validated: 5
Ligature2: "'liga' Ligaduras est+AOEA-ndar en Latin b+APoA-squeda 0 subtabla" r e l o a d
EndChar

StartChar: reload_alt
Encoding: 57349 57349 71
Width: 999
GlyphClass: 3
Flags: W
LayerCount: 2
Fore
SplineSet
679 454 m 128,-1,1
 665 446 665 446 661 429.5 c 128,-1,2
 657 413 657 413 665 399 c 0,3,4
 699 342 699 342 691 277 c 128,-1,5
 683 212 683 212 636 165 c 0,6,7
 581 109 581 109 501 108.5 c 128,-1,8
 421 108 421 108 365 164 c 128,-1,9
 309 220 309 220 309 299.5 c 128,-1,10
 309 379 309 379 365 435 c 0,11,12
 405 475 405 475 460 487 c 1,13,-1
 460 437 l 2,14,15
 460 408 460 408 486.5 397.5 c 128,-1,16
 513 387 513 387 533 407 c 2,17,-1
 621 495 l 2,18,19
 634 508 634 508 634 525.5 c 128,-1,20
 634 543 634 543 621 555 c 2,21,-1
 533 643 l 2,22,23
 513 663 513 663 486.5 652.5 c 128,-1,24
 460 642 460 642 460 613 c 2,25,-1
 460 568 l 1,26,27
 373 556 373 556 308 491 c 0,28,29
 228 412 228 412 228 299 c 128,-1,30
 228 186 228 186 308 107 c 0,31,32
 387 28 387 28 500 28 c 0,33,34
 611 28 611 28 692 107 c 0,35,36
 759 174 759 174 770 266.5 c 128,-1,37
 781 359 781 359 733 439 c 0,38,39
 725 454 725 454 709 458 c 128,-1,0
 693 462 693 462 679 454 c 128,-1,1
500 799 m 128,-1,41
 294 799 294 799 147.5 652.5 c 128,-1,42
 1 506 1 506 1 300 c 128,-1,43
 1 94 1 94 147.5 -52.5 c 128,-1,44
 294 -199 294 -199 500 -199 c 128,-1,45
 706 -199 706 -199 852.5 -52.5 c 128,-1,46
 999 94 999 94 999 300 c 128,-1,47
 999 506 999 506 852.5 652.5 c 128,-1,40
 706 799 706 799 500 799 c 128,-1,41
500 -119 m 128,-1,49
 327 -119 327 -119 204 4 c 128,-1,50
 81 127 81 127 81 300 c 128,-1,51
 81 473 81 473 204 596 c 128,-1,52
 327 719 327 719 500 719 c 128,-1,53
 673 719 673 719 796 596 c 128,-1,54
 919 473 919 473 919 300 c 128,-1,55
 919 127 919 127 796 4 c 128,-1,48
 673 -119 673 -119 500 -119 c 128,-1,49
EndSplineSet
Validated: 41
Ligature2: "'liga' Ligaduras est+AOEA-ndar en Latin b+APoA-squeda 0 subtabla" r e l o a d underscore a l t
EndChar

StartChar: folder
Encoding: 57350 57350 72
Width: 1000
GlyphClass: 3
Flags: W
LayerCount: 2
Fore
SplineSet
880 -139 m 2,0,-1
 120 -139 l 2,1,2
 70 -139 70 -139 35 -103.5 c 128,-1,3
 0 -68 0 -68 0 -19 c 2,4,-1
 0 597 l 2,5,6
 0 646 0 646 35 681.5 c 128,-1,7
 70 717 70 717 120 717 c 2,8,-1
 330 717 l 2,9,10
 370 717 370 717 402.5 692.5 c 128,-1,11
 435 668 435 668 446 629 c 2,12,-1
 456 595 l 2,13,14
 465 566 465 566 495 566 c 2,15,-1
 880 566 l 2,16,17
 930 566 930 566 965 531 c 128,-1,18
 1000 496 1000 496 1000 446 c 2,19,-1
 1000 -19 l 2,20,21
 1000 -68 1000 -68 965 -103.5 c 128,-1,22
 930 -139 930 -139 880 -139 c 2,0,-1
120 637 m 2,23,24
 104 637 104 637 92 625.5 c 128,-1,25
 80 614 80 614 80 597 c 2,26,-1
 80 -19 l 2,27,28
 80 -36 80 -36 92 -47.5 c 128,-1,29
 104 -59 104 -59 120 -59 c 2,30,-1
 880 -59 l 2,31,32
 896 -59 896 -59 908 -47.5 c 128,-1,33
 920 -36 920 -36 920 -19 c 2,34,-1
 920 446 l 2,35,36
 920 462 920 462 908 474 c 128,-1,37
 896 486 896 486 880 486 c 2,38,-1
 494 486 l 2,39,40
 454 486 454 486 421.5 510.5 c 128,-1,41
 389 535 389 535 378 574 c 2,42,-1
 368 608 l 2,43,44
 359 637 359 637 329 637 c 2,45,-1
 120 637 l 2,23,24
EndSplineSet
Validated: 1
Ligature2: "'liga' Ligaduras est+AOEA-ndar en Latin b+APoA-squeda 0 subtabla" f o l d e r
EndChar

StartChar: folder_alt
Encoding: 57351 57351 73
Width: 856
GlyphClass: 3
Flags: W
LayerCount: 2
Fore
SplineSet
736 -200 m 2,0,-1
 120 -200 l 2,1,2
 70 -200 70 -200 35 -165 c 128,-1,3
 0 -130 0 -130 0 -80 c 2,4,-1
 0 680 l 2,5,6
 0 730 0 730 35 765 c 128,-1,7
 70 800 70 800 120 800 c 2,8,-1
 585 800 l 2,9,10
 634 800 634 800 669.5 765 c 128,-1,11
 705 730 705 730 705 680 c 2,12,-1
 705 294 l 2,13,14
 705 264 705 264 734 255 c 2,15,-1
 768 245 l 2,16,17
 807 235 807 235 831.5 202.5 c 128,-1,18
 856 170 856 170 856 129 c 2,19,-1
 856 -81 l 2,20,21
 856 -130 856 -130 820.5 -165 c 128,-1,22
 785 -200 785 -200 736 -200 c 2,0,-1
120 720 m 2,23,24
 104 720 104 720 92 708 c 128,-1,25
 80 696 80 696 80 680 c 2,26,-1
 80 -80 l 2,27,28
 80 -96 80 -96 92 -108 c 128,-1,29
 104 -120 104 -120 120 -120 c 2,30,-1
 736 -120 l 2,31,32
 752 -120 752 -120 764 -108 c 128,-1,33
 776 -96 776 -96 776 -80 c 2,34,-1
 776 130 l 2,35,36
 776 160 776 160 747 169 c 2,37,-1
 713 179 l 2,38,39
 674 189 674 189 649.5 221.5 c 128,-1,40
 625 254 625 254 625 295 c 2,41,-1
 625 680 l 2,42,43
 625 696 625 696 613.5 708 c 128,-1,44
 602 720 602 720 585 720 c 2,45,-1
 120 720 l 2,23,24
EndSplineSet
Validated: 1
Ligature2: "'liga' Ligaduras est+AOEA-ndar en Latin b+APoA-squeda 0 subtabla" f o l d e r underscore a l t
EndChar

StartChar: display_disconnect
Encoding: 57352 57352 74
Width: 1000
GlyphClass: 3
Flags: W
LayerCount: 2
Fore
SplineSet
118 727 m 2,0,1
 106 739 106 739 89.5 739 c 128,-1,2
 73 739 73 739 61 727 c 0,3,4
 50 716 50 716 49.5 700 c 128,-1,5
 49 684 49 684 59 672 c 1,6,7
 0 637 0 637 0 569 c 2,8,-1
 0 158 l 2,9,10
 0 108 0 108 35 73 c 128,-1,11
 70 38 70 38 120 38 c 2,12,-1
 693 38 l 1,13,-1
 807 -76 l 2,14,15
 819 -88 819 -88 835 -88 c 128,-1,16
 851 -88 851 -88 864 -77 c 0,17,18
 876 -65 876 -65 876 -48.5 c 128,-1,19
 876 -32 876 -32 864 -20 c 2,20,-1
 118 727 l 2,0,1
120 118 m 2,21,22
 104 118 104 118 92 130 c 128,-1,23
 80 142 80 142 80 158 c 2,24,-1
 80 569 l 2,25,26
 80 586 80 586 92 597.5 c 128,-1,27
 104 609 104 609 120 609 c 2,28,-1
 122 609 l 1,29,-1
 613 118 l 1,30,-1
 120 118 l 2,21,22
880 689 m 2,31,-1
 268 689 l 1,32,-1
 348 609 l 1,33,-1
 880 609 l 2,34,35
 896 609 896 609 908 597.5 c 128,-1,36
 920 586 920 586 920 569 c 2,37,-1
 920 158 l 2,38,39
 920 142 920 142 908 130 c 128,-1,40
 896 118 896 118 880 118 c 2,41,-1
 839 118 l 1,42,-1
 914 43 l 1,43,44
 951 54 951 54 975.5 86 c 128,-1,45
 1000 118 1000 118 1000 158 c 2,46,-1
 1000 569 l 2,47,48
 1000 618 1000 618 965 653.5 c 128,-1,49
 930 689 930 689 880 689 c 2,31,-1
680 -89 m 2,50,-1
 320 -89 l 2,51,52
 304 -89 304 -89 292 -77.5 c 128,-1,53
 280 -66 280 -66 280 -49 c 128,-1,54
 280 -32 280 -32 292 -20.5 c 128,-1,55
 304 -9 304 -9 320 -9 c 2,56,-1
 680 -9 l 2,57,58
 696 -9 696 -9 708 -20.5 c 128,-1,59
 720 -32 720 -32 720 -49 c 128,-1,60
 720 -66 720 -66 708 -77.5 c 128,-1,61
 696 -89 696 -89 680 -89 c 2,50,-1
EndSplineSet
Validated: 9
Ligature2: "'liga' Ligaduras est+AOEA-ndar en Latin b+APoA-squeda 0 subtabla" d i s p l a y underscore d i s c o n n e c t
EndChar

StartChar: lock
Encoding: 57353 57353 75
Width: 734
GlyphClass: 3
Flags: W
LayerCount: 2
Fore
SplineSet
614 457 m 2,0,-1
 599 457 l 1,1,-1
 599 573 l 2,2,3
 599 667 599 667 532.5 733.5 c 128,-1,4
 466 800 466 800 372 800 c 128,-1,5
 278 800 278 800 211.5 733.5 c 128,-1,6
 145 667 145 667 145 573 c 2,7,-1
 145 457 l 1,8,-1
 120 457 l 2,9,10
 70 457 70 457 35 421.5 c 128,-1,11
 0 386 0 386 0 337 c 2,12,-1
 0 -80 l 2,13,14
 0 -130 0 -130 35 -165 c 128,-1,15
 70 -200 70 -200 120 -200 c 2,16,-1
 614 -200 l 2,17,18
 664 -200 664 -200 699 -165 c 128,-1,19
 734 -130 734 -130 734 -80 c 2,20,-1
 734 337 l 2,21,22
 734 387 734 387 699 422 c 128,-1,23
 664 457 664 457 614 457 c 2,0,-1
225 573 m 2,24,25
 225 634 225 634 268 677 c 128,-1,26
 311 720 311 720 372 720 c 128,-1,27
 433 720 433 720 476 677 c 128,-1,28
 519 634 519 634 519 573 c 2,29,-1
 519 457 l 1,30,-1
 225 457 l 1,31,-1
 225 573 l 2,24,25
654 -80 m 2,32,33
 654 -96 654 -96 642 -108 c 128,-1,34
 630 -120 630 -120 614 -120 c 2,35,-1
 120 -120 l 2,36,37
 104 -120 104 -120 92 -108 c 128,-1,38
 80 -96 80 -96 80 -80 c 2,39,-1
 80 337 l 2,40,41
 80 354 80 354 92 365.5 c 128,-1,42
 104 377 104 377 120 377 c 2,43,-1
 614 377 l 2,44,45
 630 377 630 377 642 365.5 c 128,-1,46
 654 354 654 354 654 337 c 2,47,-1
 654 -80 l 2,32,33
367 255 m 128,-1,49
 334 255 334 255 310.5 231.5 c 128,-1,50
 287 208 287 208 287 175 c 0,51,52
 287 129 287 129 327 106 c 1,53,-1
 327 49 l 2,54,55
 327 32 327 32 338.5 20.5 c 128,-1,56
 350 9 350 9 367 9 c 128,-1,57
 384 9 384 9 395.5 20.5 c 128,-1,58
 407 32 407 32 407 49 c 2,59,-1
 407 106 l 1,60,61
 447 129 447 129 447 175 c 0,62,63
 447 208 447 208 423.5 231.5 c 128,-1,48
 400 255 400 255 367 255 c 128,-1,49
EndSplineSet
Validated: 9
Ligature2: "'liga' Ligaduras est+AOEA-ndar en Latin b+APoA-squeda 0 subtabla" l o c k
EndChar

StartChar: add_lock
Encoding: 57354 57354 76
Width: 846
GlyphClass: 3
Flags: W
LayerCount: 2
Fore
SplineSet
616 260 m 128,-1,1
 521 260 521 260 453.5 192.5 c 128,-1,2
 386 125 386 125 386 30 c 128,-1,3
 386 -65 386 -65 453.5 -132.5 c 128,-1,4
 521 -200 521 -200 616 -200 c 128,-1,5
 711 -200 711 -200 778.5 -132.5 c 128,-1,6
 846 -65 846 -65 846 30 c 128,-1,7
 846 125 846 125 778.5 192.5 c 128,-1,0
 711 260 711 260 616 260 c 128,-1,1
616 -120 m 128,-1,9
 554 -120 554 -120 510 -76 c 128,-1,10
 466 -32 466 -32 466 30 c 128,-1,11
 466 92 466 92 510 136 c 128,-1,12
 554 180 554 180 616 180 c 128,-1,13
 678 180 678 180 722 136 c 128,-1,14
 766 92 766 92 766 30 c 128,-1,15
 766 -32 766 -32 722 -76 c 128,-1,8
 678 -120 678 -120 616 -120 c 128,-1,9
685 70 m 2,16,-1
 656 70 l 1,17,-1
 656 99 l 2,18,19
 656 116 656 116 644 127.5 c 128,-1,20
 632 139 632 139 616 139 c 128,-1,21
 600 139 600 139 588 127.5 c 128,-1,22
 576 116 576 116 576 99 c 2,23,-1
 576 70 l 1,24,-1
 547 70 l 2,25,26
 530 70 530 70 518.5 58 c 128,-1,27
 507 46 507 46 507 30 c 128,-1,28
 507 14 507 14 518.5 2 c 128,-1,29
 530 -10 530 -10 547 -10 c 2,30,-1
 576 -10 l 1,31,-1
 576 -39 l 2,32,33
 576 -56 576 -56 588 -67.5 c 128,-1,34
 600 -79 600 -79 616 -79 c 128,-1,35
 632 -79 632 -79 644 -67.5 c 128,-1,36
 656 -56 656 -56 656 -39 c 2,37,-1
 656 -10 l 1,38,-1
 685 -10 l 2,39,40
 702 -10 702 -10 713.5 2 c 128,-1,41
 725 14 725 14 725 30 c 128,-1,42
 725 46 725 46 713.5 58 c 128,-1,43
 702 70 702 70 685 70 c 2,16,-1
299 -10 m 2,44,-1
 120 -10 l 2,45,46
 104 -10 104 -10 92 2 c 128,-1,47
 80 14 80 14 80 30 c 2,48,-1
 80 378 l 2,49,50
 80 394 80 394 92 406 c 128,-1,51
 104 418 104 418 120 418 c 2,52,-1
 535 418 l 2,53,54
 552 418 552 418 563.5 406 c 128,-1,55
 575 394 575 394 575 378 c 2,56,-1
 575 347 l 2,57,58
 575 330 575 330 586.5 318.5 c 128,-1,59
 598 307 598 307 615 307 c 128,-1,60
 632 307 632 307 643.5 318.5 c 128,-1,61
 655 330 655 330 655 347 c 2,62,-1
 655 378 l 2,63,64
 655 427 655 427 620.5 462 c 128,-1,65
 586 497 586 497 536 498 c 1,66,-1
 536 595 l 2,67,68
 537 680 537 680 477 740 c 128,-1,69
 417 800 417 800 332 800 c 0,70,71
 248 800 248 800 188 740 c 128,-1,72
 128 680 128 680 128 596 c 2,73,-1
 128 499 l 1,74,-1
 120 499 l 2,75,76
 70 499 70 499 35 463.5 c 128,-1,77
 0 428 0 428 0 379 c 2,78,-1
 0 30 l 2,79,80
 0 -20 0 -20 35 -55 c 128,-1,81
 70 -90 70 -90 120 -90 c 2,82,-1
 298 -90 l 2,83,84
 314 -90 314 -90 326 -78 c 128,-1,85
 338 -66 338 -66 338 -50 c 0,86,87
 338 -33 338 -33 326.5 -21.5 c 128,-1,88
 315 -10 315 -10 299 -10 c 2,44,-1
208 596 m 2,89,90
 208 647 208 647 244.5 683.5 c 128,-1,91
 281 720 281 720 332 720 c 0,92,93
 384 720 384 720 420.5 683.5 c 128,-1,94
 457 647 457 647 457 596 c 2,95,-1
 457 499 l 1,96,-1
 208 499 l 1,97,-1
 208 596 l 2,89,90
398 245 m 0,98,99
 398 274 398 274 377.5 294.5 c 128,-1,100
 357 315 357 315 328 315 c 0,101,102
 300 315 300 315 279 294.5 c 128,-1,103
 258 274 258 274 258 245 c 0,104,105
 258 209 258 209 288 187 c 1,106,-1
 288 134 l 2,107,108
 288 118 288 118 300 106 c 128,-1,109
 312 94 312 94 328 94 c 128,-1,110
 344 94 344 94 356 106 c 128,-1,111
 368 118 368 118 368 134 c 2,112,-1
 368 187 l 1,113,114
 398 207 398 207 398 245 c 0,98,99
EndSplineSet
Validated: 41
Ligature2: "'liga' Ligaduras est+AOEA-ndar en Latin b+APoA-squeda 0 subtabla" a d d underscore l o c k
EndChar

StartChar: disable_lock
Encoding: 57355 57355 77
Width: 846
GlyphClass: 3
Flags: W
LayerCount: 2
Fore
SplineSet
616 260 m 128,-1,1
 521 260 521 260 453.5 192.5 c 128,-1,2
 386 125 386 125 386 30 c 128,-1,3
 386 -65 386 -65 453.5 -132.5 c 128,-1,4
 521 -200 521 -200 616 -200 c 128,-1,5
 711 -200 711 -200 778.5 -132.5 c 128,-1,6
 846 -65 846 -65 846 30 c 128,-1,7
 846 125 846 125 778.5 192.5 c 128,-1,0
 711 260 711 260 616 260 c 128,-1,1
616 -120 m 128,-1,9
 554 -120 554 -120 510 -76 c 128,-1,10
 466 -32 466 -32 466 30 c 128,-1,11
 466 92 466 92 510 136 c 128,-1,12
 554 180 554 180 616 180 c 128,-1,13
 678 180 678 180 722 136 c 128,-1,14
 766 92 766 92 766 30 c 128,-1,15
 766 -32 766 -32 722 -76 c 128,-1,8
 678 -120 678 -120 616 -120 c 128,-1,9
685 70 m 2,16,-1
 546 70 l 2,17,18
 530 70 530 70 518 58 c 128,-1,19
 506 46 506 46 506 30 c 128,-1,20
 506 14 506 14 518 2 c 128,-1,21
 530 -10 530 -10 546 -10 c 2,22,-1
 685 -10 l 2,23,24
 702 -10 702 -10 713.5 2 c 128,-1,25
 725 14 725 14 725 30 c 128,-1,26
 725 46 725 46 713.5 58 c 128,-1,27
 702 70 702 70 685 70 c 2,16,-1
299 -10 m 2,28,-1
 120 -10 l 2,29,30
 104 -10 104 -10 92 2 c 128,-1,31
 80 14 80 14 80 30 c 2,32,-1
 80 378 l 2,33,34
 80 394 80 394 92 406 c 128,-1,35
 104 418 104 418 120 418 c 2,36,-1
 535 418 l 2,37,38
 552 418 552 418 563.5 406 c 128,-1,39
 575 394 575 394 575 378 c 2,40,-1
 575 347 l 2,41,42
 575 330 575 330 586.5 318.5 c 128,-1,43
 598 307 598 307 615 307 c 128,-1,44
 632 307 632 307 643.5 318.5 c 128,-1,45
 655 330 655 330 655 347 c 2,46,-1
 655 378 l 2,47,48
 655 427 655 427 620.5 462 c 128,-1,49
 586 497 586 497 536 498 c 1,50,-1
 536 595 l 2,51,52
 537 680 537 680 477 740 c 128,-1,53
 417 800 417 800 332 800 c 0,54,55
 248 800 248 800 188 740 c 128,-1,56
 128 680 128 680 128 596 c 2,57,-1
 128 499 l 1,58,-1
 120 499 l 2,59,60
 70 499 70 499 35 463.5 c 128,-1,61
 0 428 0 428 0 379 c 2,62,-1
 0 30 l 2,63,64
 0 -20 0 -20 35 -55 c 128,-1,65
 70 -90 70 -90 120 -90 c 2,66,-1
 298 -90 l 2,67,68
 314 -90 314 -90 326 -78 c 128,-1,69
 338 -66 338 -66 338 -50 c 0,70,71
 338 -33 338 -33 326.5 -21.5 c 128,-1,72
 315 -10 315 -10 299 -10 c 2,28,-1
208 596 m 2,73,74
 208 647 208 647 244.5 683.5 c 128,-1,75
 281 720 281 720 332 720 c 0,76,77
 384 720 384 720 420.5 683.5 c 128,-1,78
 457 647 457 647 457 596 c 2,79,-1
 457 499 l 1,80,-1
 208 499 l 1,81,-1
 208 596 l 2,73,74
398 245 m 0,82,83
 398 274 398 274 377.5 294.5 c 128,-1,84
 357 315 357 315 328 315 c 0,85,86
 300 315 300 315 279 294.5 c 128,-1,87
 258 274 258 274 258 245 c 0,88,89
 258 209 258 209 288 187 c 1,90,-1
 288 134 l 2,91,92
 288 118 288 118 300 106 c 128,-1,93
 312 94 312 94 328 94 c 128,-1,94
 344 94 344 94 356 106 c 128,-1,95
 368 118 368 118 368 134 c 2,96,-1
 368 187 l 1,97,98
 398 207 398 207 398 245 c 0,82,83
EndSplineSet
Validated: 41
Ligature2: "'liga' Ligaduras est+AOEA-ndar en Latin b+APoA-squeda 0 subtabla" d i s a b l e underscore l o c k
EndChar

StartChar: lock_open
Encoding: 57360 57360 78
Width: 734
GlyphClass: 3
Flags: W
LayerCount: 2
Fore
SplineSet
367 255 m 128,-1,1
 334 255 334 255 310.5 231.5 c 128,-1,2
 287 208 287 208 287 175 c 0,3,4
 287 129 287 129 327 106 c 1,5,-1
 327 49 l 2,6,7
 327 32 327 32 338.5 20.5 c 128,-1,8
 350 9 350 9 367 9 c 128,-1,9
 384 9 384 9 395.5 20.5 c 128,-1,10
 407 32 407 32 407 49 c 2,11,-1
 407 106 l 1,12,13
 447 129 447 129 447 175 c 0,14,15
 447 208 447 208 423.5 231.5 c 128,-1,0
 400 255 400 255 367 255 c 128,-1,1
614 457 m 2,16,-1
 225 457 l 1,17,-1
 225 578 l 2,18,19
 225 636 225 636 266.5 678 c 128,-1,20
 308 720 308 720 367 720 c 0,21,22
 425 720 425 720 467 678 c 0,23,24
 479 666 479 666 495.5 666 c 128,-1,25
 512 666 512 666 524 678 c 128,-1,26
 536 690 536 690 536 706.5 c 128,-1,27
 536 723 536 723 524 735 c 0,28,29
 459 800 459 800 367 800 c 128,-1,30
 275 800 275 800 210 735 c 128,-1,31
 145 670 145 670 145 578 c 2,32,-1
 145 457 l 1,33,-1
 120 457 l 2,34,35
 70 457 70 457 35 421.5 c 128,-1,36
 0 386 0 386 0 337 c 2,37,-1
 0 -80 l 2,38,39
 0 -130 0 -130 35 -165 c 128,-1,40
 70 -200 70 -200 120 -200 c 2,41,-1
 614 -200 l 2,42,43
 664 -200 664 -200 699 -165 c 128,-1,44
 734 -130 734 -130 734 -80 c 2,45,-1
 734 337 l 2,46,47
 734 387 734 387 699 422 c 128,-1,48
 664 457 664 457 614 457 c 2,16,-1
654 -80 m 2,49,50
 654 -96 654 -96 642 -108 c 128,-1,51
 630 -120 630 -120 614 -120 c 2,52,-1
 120 -120 l 2,53,54
 104 -120 104 -120 92 -108 c 128,-1,55
 80 -96 80 -96 80 -80 c 2,56,-1
 80 337 l 2,57,58
 80 354 80 354 92 365.5 c 128,-1,59
 104 377 104 377 120 377 c 2,60,-1
 614 377 l 2,61,62
 630 377 630 377 642 365.5 c 128,-1,63
 654 354 654 354 654 337 c 2,64,-1
 654 -80 l 2,49,50
EndSplineSet
Validated: 9
Ligature2: "'liga' Ligaduras est+AOEA-ndar en Latin b+APoA-squeda 0 subtabla" l o c k underscore o p e n
EndChar

StartChar: account_add
Encoding: 57361 57361 79
Width: 1000
GlyphClass: 3
Flags: W
LayerCount: 2
Fore
SplineSet
310 461 m 128,-1,1
 310 402 310 402 352 360 c 128,-1,2
 394 318 394 318 453 318 c 128,-1,3
 512 318 512 318 554 360 c 128,-1,4
 596 402 596 402 596 461 c 128,-1,5
 596 520 596 520 554 562 c 128,-1,6
 512 604 512 604 453 604 c 128,-1,7
 394 604 394 604 352 562 c 128,-1,0
 310 520 310 520 310 461 c 128,-1,1
515 461 m 128,-1,9
 515 435 515 435 496.5 416.5 c 128,-1,10
 478 398 478 398 452 398 c 128,-1,11
 426 398 426 398 408 416.5 c 128,-1,12
 390 435 390 435 390 461 c 128,-1,13
 390 487 390 487 408.5 505.5 c 128,-1,14
 427 524 427 524 453 524 c 128,-1,15
 479 524 479 524 497 505.5 c 128,-1,8
 515 487 515 487 515 461 c 128,-1,9
512 257 m 2,16,-1
 322 257 l 2,17,18
 265 257 265 257 224.5 216.5 c 128,-1,19
 184 176 184 176 184 119 c 2,20,-1
 184 89 l 1,21,22
 80 198 80 198 80 348 c 0,23,24
 80 502 80 502 189 611 c 128,-1,25
 298 720 298 720 452 720 c 128,-1,26
 606 720 606 720 715 611 c 128,-1,27
 824 502 824 502 824 348 c 0,28,29
 824 332 824 332 836 320 c 128,-1,30
 848 308 848 308 864 308 c 128,-1,31
 880 308 880 308 892 320 c 128,-1,32
 904 332 904 332 904 348 c 0,33,34
 904 470 904 470 844 574.5 c 128,-1,35
 784 679 784 679 679.5 739.5 c 128,-1,36
 575 800 575 800 452 800 c 0,37,38
 330 800 330 800 225.5 739.5 c 128,-1,39
 121 679 121 679 60.5 574.5 c 128,-1,40
 0 470 0 470 0 348 c 0,41,42
 0 233 0 233 54.5 133.5 c 128,-1,43
 109 34 109 34 201 -28 c 0,44,45
 202 -28 202 -28 202 -29 c 2,46,-1
 204 -30 l 1,47,48
 316 -104 316 -104 452 -104 c 0,49,50
 468 -104 468 -104 480 -92 c 128,-1,51
 492 -80 492 -80 492 -64 c 128,-1,52
 492 -48 492 -48 480 -36 c 128,-1,53
 468 -24 468 -24 452 -24 c 0,54,55
 352 -24 352 -24 264 27 c 1,56,-1
 264 120 l 2,57,58
 264 144 264 144 281 161 c 128,-1,59
 298 178 298 178 322 178 c 2,60,-1
 511 178 l 2,61,62
 528 178 528 178 539.5 190 c 128,-1,63
 551 202 551 202 551 218 c 128,-1,64
 551 234 551 234 539.5 245.5 c 128,-1,65
 528 257 528 257 512 257 c 2,16,-1
770 260 m 128,-1,67
 675 260 675 260 607.5 192.5 c 128,-1,68
 540 125 540 125 540 30 c 128,-1,69
 540 -65 540 -65 607.5 -132.5 c 128,-1,70
 675 -200 675 -200 770 -200 c 128,-1,71
 865 -200 865 -200 932.5 -132.5 c 128,-1,72
 1000 -65 1000 -65 1000 30 c 128,-1,73
 1000 125 1000 125 932.5 192.5 c 128,-1,66
 865 260 865 260 770 260 c 128,-1,67
770 -120 m 128,-1,75
 708 -120 708 -120 664 -76 c 128,-1,76
 620 -32 620 -32 620 30 c 128,-1,77
 620 92 620 92 664 136 c 128,-1,78
 708 180 708 180 770 180 c 128,-1,79
 832 180 832 180 876 136 c 128,-1,80
 920 92 920 92 920 30 c 128,-1,81
 920 -32 920 -32 876 -76 c 128,-1,74
 832 -120 832 -120 770 -120 c 128,-1,75
839 70 m 2,82,-1
 810 70 l 1,83,-1
 810 99 l 2,84,85
 810 116 810 116 798 127.5 c 128,-1,86
 786 139 786 139 770 139 c 128,-1,87
 754 139 754 139 742 127.5 c 128,-1,88
 730 116 730 116 730 99 c 2,89,-1
 730 70 l 1,90,-1
 701 70 l 2,91,92
 684 70 684 70 672.5 58 c 128,-1,93
 661 46 661 46 661 30 c 128,-1,94
 661 14 661 14 672.5 2 c 128,-1,95
 684 -10 684 -10 701 -10 c 2,96,-1
 730 -10 l 1,97,-1
 730 -39 l 2,98,99
 730 -56 730 -56 742 -67.5 c 128,-1,100
 754 -79 754 -79 770 -79 c 128,-1,101
 786 -79 786 -79 798 -67.5 c 128,-1,102
 810 -56 810 -56 810 -39 c 2,103,-1
 810 -10 l 1,104,-1
 839 -10 l 2,105,106
 856 -10 856 -10 867.5 2 c 128,-1,107
 879 14 879 14 879 30 c 128,-1,108
 879 46 879 46 867.5 58 c 128,-1,109
 856 70 856 70 839 70 c 2,82,-1
EndSplineSet
Validated: 9
Ligature2: "'liga' Ligaduras est+AOEA-ndar en Latin b+APoA-squeda 0 subtabla" u s e r underscore a d d
Ligature2: "'liga' Ligaduras est+AOEA-ndar en Latin b+APoA-squeda 0 subtabla" a d d underscore u s e r
Ligature2: "'liga' Ligaduras est+AOEA-ndar en Latin b+APoA-squeda 0 subtabla" a c c o u n t underscore a d d
EndChar

StartChar: account_delete
Encoding: 57362 57362 80
Width: 1000
GlyphClass: 3
Flags: W
LayerCount: 2
Fore
SplineSet
310 461 m 128,-1,1
 310 402 310 402 352 360 c 128,-1,2
 394 318 394 318 453 318 c 128,-1,3
 512 318 512 318 554 360 c 128,-1,4
 596 402 596 402 596 461 c 128,-1,5
 596 520 596 520 554 562 c 128,-1,6
 512 604 512 604 453 604 c 128,-1,7
 394 604 394 604 352 562 c 128,-1,0
 310 520 310 520 310 461 c 128,-1,1
515 461 m 128,-1,9
 515 435 515 435 496.5 416.5 c 128,-1,10
 478 398 478 398 452 398 c 128,-1,11
 426 398 426 398 408 416.5 c 128,-1,12
 390 435 390 435 390 461 c 128,-1,13
 390 487 390 487 408.5 505.5 c 128,-1,14
 427 524 427 524 453 524 c 128,-1,15
 479 524 479 524 497 505.5 c 128,-1,8
 515 487 515 487 515 461 c 128,-1,9
512 257 m 2,16,-1
 322 257 l 2,17,18
 265 257 265 257 224.5 216.5 c 128,-1,19
 184 176 184 176 184 119 c 2,20,-1
 184 89 l 1,21,22
 80 198 80 198 80 348 c 0,23,24
 80 502 80 502 189 611 c 128,-1,25
 298 720 298 720 452 720 c 128,-1,26
 606 720 606 720 715 611 c 128,-1,27
 824 502 824 502 824 348 c 0,28,29
 824 332 824 332 836 320 c 128,-1,30
 848 308 848 308 864 308 c 128,-1,31
 880 308 880 308 892 320 c 128,-1,32
 904 332 904 332 904 348 c 0,33,34
 904 470 904 470 844 574.5 c 128,-1,35
 784 679 784 679 679.5 739.5 c 128,-1,36
 575 800 575 800 452 800 c 0,37,38
 330 800 330 800 225.5 739.5 c 128,-1,39
 121 679 121 679 60.5 574.5 c 128,-1,40
 0 470 0 470 0 348 c 0,41,42
 0 233 0 233 54.5 133.5 c 128,-1,43
 109 34 109 34 201 -28 c 0,44,45
 202 -28 202 -28 202 -29 c 2,46,-1
 204 -30 l 1,47,48
 316 -104 316 -104 452 -104 c 0,49,50
 468 -104 468 -104 480 -92 c 128,-1,51
 492 -80 492 -80 492 -64 c 128,-1,52
 492 -48 492 -48 480 -36 c 128,-1,53
 468 -24 468 -24 452 -24 c 0,54,55
 352 -24 352 -24 264 27 c 1,56,-1
 264 120 l 2,57,58
 264 144 264 144 281 161 c 128,-1,59
 298 178 298 178 322 178 c 2,60,-1
 511 178 l 2,61,62
 528 178 528 178 539.5 190 c 128,-1,63
 551 202 551 202 551 218 c 128,-1,64
 551 234 551 234 539.5 245.5 c 128,-1,65
 528 257 528 257 512 257 c 2,16,-1
770 260 m 128,-1,67
 675 260 675 260 607.5 192.5 c 128,-1,68
 540 125 540 125 540 30 c 128,-1,69
 540 -65 540 -65 607.5 -132.5 c 128,-1,70
 675 -200 675 -200 770 -200 c 128,-1,71
 865 -200 865 -200 932.5 -132.5 c 128,-1,72
 1000 -65 1000 -65 1000 30 c 128,-1,73
 1000 125 1000 125 932.5 192.5 c 128,-1,66
 865 260 865 260 770 260 c 128,-1,67
770 -120 m 128,-1,75
 708 -120 708 -120 664 -76 c 128,-1,76
 620 -32 620 -32 620 30 c 128,-1,77
 620 92 620 92 664 136 c 128,-1,78
 708 180 708 180 770 180 c 128,-1,79
 832 180 832 180 876 136 c 128,-1,80
 920 92 920 92 920 30 c 128,-1,81
 920 -32 920 -32 876 -76 c 128,-1,74
 832 -120 832 -120 770 -120 c 128,-1,75
839 70 m 2,82,-1
 701 70 l 2,83,84
 684 70 684 70 672.5 58 c 128,-1,85
 661 46 661 46 661 30 c 128,-1,86
 661 14 661 14 672.5 2 c 128,-1,87
 684 -10 684 -10 701 -10 c 2,88,-1
 840 -10 l 2,89,90
 856 -10 856 -10 868 2 c 128,-1,91
 880 14 880 14 880 30 c 128,-1,92
 880 46 880 46 868 58 c 128,-1,93
 856 70 856 70 839 70 c 2,82,-1
EndSplineSet
Validated: 9
Ligature2: "'liga' Ligaduras est+AOEA-ndar en Latin b+APoA-squeda 0 subtabla" u s e r underscore d e l e t e
Ligature2: "'liga' Ligaduras est+AOEA-ndar en Latin b+APoA-squeda 0 subtabla" d e l e t e underscore u s e r
Ligature2: "'liga' Ligaduras est+AOEA-ndar en Latin b+APoA-squeda 0 subtabla" a c c o u n t underscore d e l e t e
EndChar

StartChar: connect
Encoding: 57363 57363 81
Width: 1000
GlyphClass: 3
Flags: W
LayerCount: 2
Fore
SplineSet
500 -200 m 128,-1,1
 364 -200 364 -200 249 -133 c 128,-1,2
 134 -66 134 -66 67 49 c 128,-1,3
 0 164 0 164 0 300 c 128,-1,4
 0 436 0 436 67 551 c 128,-1,5
 134 666 134 666 249 733 c 128,-1,6
 364 800 364 800 500 800 c 128,-1,7
 636 800 636 800 751 733 c 128,-1,8
 866 666 866 666 933 551 c 128,-1,9
 1000 436 1000 436 1000 300 c 128,-1,10
 1000 164 1000 164 933 49 c 128,-1,11
 866 -66 866 -66 751 -133 c 128,-1,0
 636 -200 636 -200 500 -200 c 128,-1,1
500 720 m 128,-1,13
 326 720 326 720 203 597 c 128,-1,14
 80 474 80 474 80 300 c 128,-1,15
 80 126 80 126 203 3 c 128,-1,16
 326 -120 326 -120 500 -120 c 128,-1,17
 674 -120 674 -120 797 3 c 128,-1,18
 920 126 920 126 920 300 c 128,-1,19
 920 474 920 474 797 597 c 128,-1,12
 674 720 674 720 500 720 c 128,-1,13
568 6 m 0,20,21
 548 6 548 6 537 21 c 2,22,-1
 337 275 l 2,23,24
 322 293 322 293 332 317 c 0,25,26
 344 340 344 340 368 340 c 2,27,-1
 550 340 l 1,28,-1
 401 529 l 2,29,30
 390 542 390 542 392.5 558.5 c 128,-1,31
 395 575 395 575 408 585 c 0,32,33
 421 596 421 596 437.5 593.5 c 128,-1,34
 454 591 454 591 464 578 c 2,35,-1
 664 324 l 2,36,37
 679 306 679 306 669 282 c 0,38,39
 658 259 658 259 633 259 c 2,40,-1
 450 259 l 1,41,-1
 599 70 l 2,42,43
 610 57 610 57 607.5 40.5 c 128,-1,44
 605 24 605 24 592 14 c 0,45,46
 581 6 581 6 568 6 c 0,20,21
EndSplineSet
Validated: 33
Ligature2: "'liga' Ligaduras est+AOEA-ndar en Latin b+APoA-squeda 0 subtabla" c o n n e c t
EndChar

StartChar: connect_cancel
Encoding: 57364 57364 82
Width: 1000
GlyphClass: 3
Flags: W
LayerCount: 2
Fore
SplineSet
602 260 m 1,0,-1
 698 260 l 1,1,-1
 633 325 l 1,2,-1
 398 557 l 1,3,-1
 531 340 l 1,4,-1
 398 340 l 1,5,-1
 302 340 l 1,6,-1
 367 275 l 1,7,-1
 602 43 l 1,8,-1
 469 260 l 1,9,-1
 602 260 l 1,0,-1
500 800 m 128,-1,11
 364 800 364 800 249 733 c 128,-1,12
 134 666 134 666 67 551 c 128,-1,13
 0 436 0 436 0 300 c 128,-1,14
 0 164 0 164 67 49 c 128,-1,15
 134 -66 134 -66 249 -133 c 128,-1,16
 364 -200 364 -200 500 -200 c 128,-1,17
 636 -200 636 -200 751 -133 c 128,-1,18
 866 -66 866 -66 933 49 c 128,-1,19
 1000 164 1000 164 1000 300 c 128,-1,20
 1000 436 1000 436 933 551 c 128,-1,21
 866 666 866 666 751 733 c 128,-1,10
 636 800 636 800 500 800 c 128,-1,11
80 300 m 0,22,23
 80 452 80 452 176 567 c 1,24,-1
 767 -24 l 1,25,26
 652 -120 652 -120 500 -120 c 0,27,28
 326 -120 326 -120 203 3 c 128,-1,29
 80 126 80 126 80 300 c 0,22,23
824 33 m 1,30,-1
 233 624 l 1,31,32
 348 720 348 720 500 720 c 0,33,34
 674 720 674 720 797 597 c 128,-1,35
 920 474 920 474 920 300 c 0,36,37
 920 148 920 148 824 33 c 1,30,-1
EndSplineSet
Validated: 5
Ligature2: "'liga' Ligaduras est+AOEA-ndar en Latin b+APoA-squeda 0 subtabla" c o n n e c t underscore c a n c e l
EndChar

StartChar: tv
Encoding: 57365 57365 83
Width: 999
GlyphClass: 3
Flags: W
LayerCount: 2
Fore
SplineSet
880 38 m 2,0,-1
 120 38 l 2,1,2
 70 38 70 38 35 73 c 128,-1,3
 0 108 0 108 0 158 c 2,4,-1
 0 569 l 2,5,6
 0 618 0 618 35 653.5 c 128,-1,7
 70 689 70 689 120 689 c 2,8,-1
 880 689 l 2,9,10
 930 689 930 689 965 653.5 c 128,-1,11
 1000 618 1000 618 1000 569 c 2,12,-1
 1000 158 l 2,13,14
 1000 108 1000 108 965 73 c 128,-1,15
 930 38 930 38 880 38 c 2,0,-1
120 609 m 2,16,17
 104 609 104 609 92 597.5 c 128,-1,18
 80 586 80 586 80 569 c 2,19,-1
 80 158 l 2,20,21
 80 142 80 142 92 130 c 128,-1,22
 104 118 104 118 120 118 c 2,23,-1
 880 118 l 2,24,25
 896 118 896 118 908 130 c 128,-1,26
 920 142 920 142 920 158 c 2,27,-1
 920 569 l 2,28,29
 920 586 920 586 908 597.5 c 128,-1,30
 896 609 896 609 880 609 c 2,31,-1
 120 609 l 2,16,17
680 -89 m 2,32,-1
 320 -89 l 2,33,34
 304 -89 304 -89 292 -77.5 c 128,-1,35
 280 -66 280 -66 280 -49 c 128,-1,36
 280 -32 280 -32 292 -20.5 c 128,-1,37
 304 -9 304 -9 320 -9 c 2,38,-1
 680 -9 l 2,39,40
 696 -9 696 -9 708 -20.5 c 128,-1,41
 720 -32 720 -32 720 -49 c 128,-1,42
 720 -66 720 -66 708 -77.5 c 128,-1,43
 696 -89 696 -89 680 -89 c 2,32,-1
EndSplineSet
Validated: 1
Ligature2: "'liga' Ligaduras est+AOEA-ndar en Latin b+APoA-squeda 0 subtabla" t v
Ligature2: "'liga' Ligaduras est+AOEA-ndar en Latin b+APoA-squeda 0 subtabla" d i s p l a y
EndChar

StartChar: api_connect
Encoding: 57366 57366 84
Width: 1000
GlyphClass: 3
Flags: W
LayerCount: 2
Fore
SplineSet
506 249 m 2,0,-1
 458 201 l 1,1,-1
 401 258 l 1,2,-1
 449 306 l 2,3,4
 461 318 461 318 461 334.5 c 128,-1,5
 461 351 461 351 449 363 c 128,-1,6
 437 375 437 375 420.5 375 c 128,-1,7
 404 375 404 375 392 363 c 2,8,-1
 344 315 l 1,9,-1
 335 324 l 2,10,11
 323 336 323 336 306.5 336 c 128,-1,12
 290 336 290 336 278 324 c 2,13,-1
 184 230 l 2,14,15
 133 179 133 179 133 107 c 0,16,17
 133 57 133 57 159 16 c 1,18,-1
 12 -131 l 2,19,20
 0 -143 0 -143 0 -159.5 c 128,-1,21
 0 -176 0 -176 12 -188 c 128,-1,22
 24 -200 24 -200 40 -200 c 128,-1,23
 56 -200 56 -200 68 -188 c 2,24,-1
 215 -41 l 1,25,26
 258 -67 258 -67 306 -67 c 0,27,28
 378 -67 378 -67 429 -16 c 2,29,-1
 523 78 l 2,30,31
 535 90 535 90 535 106 c 0,32,33
 535 124 535 124 523 134 c 2,34,-1
 514 143 l 1,35,-1
 562 191 l 2,36,37
 574 203 574 203 574 219.5 c 128,-1,38
 574 236 574 236 562 248 c 0,39,40
 551 260 551 260 534.5 260 c 128,-1,41
 518 260 518 260 506 249 c 2,0,-1
373 41 m 2,42,43
 346 14 346 14 307 14 c 128,-1,44
 268 14 268 14 241 41 c 128,-1,45
 214 68 214 68 214 107 c 0,46,47
 214 144 214 144 241 173 c 2,48,-1
 307 239 l 1,49,-1
 439 107 l 1,50,-1
 373 41 l 2,42,43
988 788 m 128,-1,52
 976 800 976 800 959.5 800 c 128,-1,53
 943 800 943 800 931 788 c 2,54,-1
 784 641 l 1,55,56
 743 667 743 667 693 667 c 0,57,58
 621 667 621 667 570 616 c 2,59,-1
 476 522 l 2,60,61
 464 510 464 510 464 493.5 c 128,-1,62
 464 477 464 477 476 465 c 2,63,-1
 665 276 l 2,64,65
 677 264 677 264 693 264 c 0,66,67
 710 264 710 264 721 276 c 2,68,-1
 815 370 l 2,69,70
 858 413 858 413 864.5 473.5 c 128,-1,71
 871 534 871 534 840 584 c 1,72,-1
 988 731 l 2,73,74
 1000 743 1000 743 1000 759.5 c 128,-1,51
 1000 776 1000 776 988 788 c 128,-1,52
759 427 m 2,75,-1
 693 361 l 1,76,-1
 561 493 l 1,77,-1
 627 559 l 2,78,79
 654 586 654 586 693 586 c 0,80,81
 730 586 730 586 759 559 c 0,82,83
 787 532 787 532 787 493.5 c 128,-1,84
 787 455 787 455 759 427 c 2,75,-1
EndSplineSet
Validated: 41
Ligature2: "'liga' Ligaduras est+AOEA-ndar en Latin b+APoA-squeda 0 subtabla" a p i underscore c o n n e c t
EndChar

StartChar: bookmark
Encoding: 57367 57367 85
Width: 763
GlyphClass: 3
Flags: W
LayerCount: 2
Fore
SplineSet
641 -200 m 0,0,1
 607 -200 607 -200 578.5 -182 c 128,-1,2
 550 -164 550 -164 534 -132 c 2,3,-1
 417 108 l 2,4,5
 406 130 406 130 381 130 c 128,-1,6
 356 130 356 130 345 108 c 2,7,-1
 228 -132 l 2,8,9
 209 -170 209 -170 172 -188 c 128,-1,10
 135 -206 135 -206 93 -196 c 128,-1,11
 51 -186 51 -186 25.5 -154 c 128,-1,12
 0 -122 0 -122 0 -79 c 2,13,-1
 0 680 l 2,14,15
 0 730 0 730 35 765 c 128,-1,16
 70 800 70 800 120 800 c 2,17,-1
 642 800 l 2,18,19
 692 800 692 800 727 765 c 128,-1,20
 762 730 762 730 762 680 c 2,21,-1
 762 -80 l 2,22,23
 762 -123 762 -123 736.5 -155 c 128,-1,24
 711 -187 711 -187 669 -197 c 0,25,26
 655 -200 655 -200 641 -200 c 0,0,1
381 211 m 128,-1,28
 416 211 416 211 445 193 c 128,-1,29
 474 175 474 175 489 144 c 2,30,-1
 606 -97 l 2,31,32
 620 -127 620 -127 651 -118 c 128,-1,33
 682 -109 682 -109 682 -79 c 2,34,-1
 682 680 l 2,35,36
 682 696 682 696 670 708 c 128,-1,37
 658 720 658 720 642 720 c 2,38,-1
 120 720 l 2,39,40
 104 720 104 720 92 708 c 128,-1,41
 80 696 80 696 80 680 c 2,42,-1
 80 -80 l 2,43,44
 80 -110 80 -110 111 -119 c 0,45,46
 141 -128 141 -128 156 -98 c 2,47,-1
 273 143 l 2,48,49
 288 174 288 174 317 192.5 c 128,-1,27
 346 211 346 211 381 211 c 128,-1,28
EndSplineSet
Validated: 33
Ligature2: "'liga' Ligaduras est+AOEA-ndar en Latin b+APoA-squeda 0 subtabla" b o o k m a r k
EndChar

StartChar: star
Encoding: 57368 57368 86
Width: 1000
GlyphClass: 3
Flags: W
LayerCount: 2
Fore
SplineSet
735 -181 m 0,0,1
 708 -181 708 -181 682 -169 c 2,2,-1
 518 -88 l 2,3,4
 500 -80 500 -80 483 -88 c 2,5,-1
 319 -169 l 2,6,7
 255 -201 255 -201 195 -159 c 0,8,9
 136 -116 136 -116 147 -45 c 2,10,-1
 173 136 l 2,11,12
 176 156 176 156 162 170 c 2,13,-1
 34 302 l 2,14,15
 11 326 11 326 3.5 358 c 128,-1,16
 -4 390 -4 390 6 422 c 128,-1,17
 16 454 16 454 41.5 476 c 128,-1,18
 67 498 67 498 100 503 c 2,19,-1
 280 534 l 2,20,21
 299 537 299 537 309 555 c 2,22,-1
 394 717 l 2,23,24
 410 747 410 747 438.5 764 c 128,-1,25
 467 781 467 781 500 781 c 128,-1,26
 533 781 533 781 561.5 763.5 c 128,-1,27
 590 746 590 746 606 717 c 2,28,-1
 691 555 l 2,29,30
 701 537 701 537 720 534 c 2,31,-1
 900 503 l 2,32,33
 933 497 933 497 958.5 475 c 128,-1,34
 984 453 984 453 994 422 c 0,35,36
 1016 353 1016 353 966 301 c 2,37,-1
 838 171 l 2,38,39
 824 157 824 157 827 137 c 2,40,-1
 853 -44 l 2,41,42
 858 -77 858 -77 845 -108 c 128,-1,43
 832 -139 832 -139 805 -158 c 0,44,45
 775 -181 775 -181 735 -181 c 0,0,1
500 -4 m 0,46,47
 529 -4 529 -4 553 -16 c 2,48,-1
 717 -97 l 2,49,50
 740 -108 740 -108 758 -93 c 0,51,52
 778 -80 778 -80 774 -55 c 2,53,-1
 748 126 l 2,54,55
 740 186 740 186 781 227 c 2,56,-1
 909 358 l 2,57,58
 927 377 927 377 918 398 c 0,59,60
 912 420 912 420 887 425 c 2,61,-1
 707 456 l 2,62,63
 649 465 649 465 621 518 c 2,64,-1
 535 680 l 2,65,66
 524 701 524 701 500 701 c 128,-1,67
 476 701 476 701 465 680 c 2,68,-1
 380 518 l 2,69,70
 353 466 353 466 294 456 c 2,71,-1
 114 425 l 2,72,73
 89 421 89 421 83 398 c 0,74,75
 76 374 76 374 92 358 c 2,76,-1
 220 227 l 2,77,78
 261 185 261 185 253 126 c 2,79,-1
 227 -55 l 2,80,81
 224 -80 224 -80 243 -93 c 0,82,83
 264 -107 264 -107 284 -97 c 2,84,-1
 448 -16 l 2,85,86
 470 -4 470 -4 500 -4 c 0,46,47
EndSplineSet
Validated: 33
Ligature2: "'liga' Ligaduras est+AOEA-ndar en Latin b+APoA-squeda 0 subtabla" s t a r
EndChar

StartChar: sdcard
Encoding: 57369 57369 87
Width: 808
GlyphClass: 3
Flags: W
LayerCount: 2
Fore
SplineSet
688 800 m 2,0,-1
 120 800 l 2,1,2
 70 800 70 800 35 765 c 128,-1,3
 0 730 0 730 0 680 c 2,4,-1
 0 -80 l 2,5,6
 0 -130 0 -130 35 -165 c 128,-1,7
 70 -200 70 -200 120 -200 c 2,8,-1
 585 -200 l 2,9,10
 634 -200 634 -200 669.5 -165 c 128,-1,11
 705 -130 705 -130 705 -80 c 2,12,-1
 705 354 l 2,13,14
 705 381 705 381 730 391 c 2,15,-1
 734 393 l 2,16,17
 768 407 768 407 788 437 c 128,-1,18
 808 467 808 467 808 504 c 2,19,-1
 808 680 l 2,20,21
 808 730 808 730 773 765 c 128,-1,22
 738 800 738 800 688 800 c 2,0,-1
728 504 m 2,23,24
 728 477 728 477 703 467 c 2,25,-1
 699 465 l 2,26,27
 665 451 665 451 645 421 c 128,-1,28
 625 391 625 391 625 354 c 2,29,-1
 625 -80 l 2,30,31
 625 -96 625 -96 613.5 -108 c 128,-1,32
 602 -120 602 -120 585 -120 c 2,33,-1
 572 -120 l 1,34,-1
 572 -1 l 2,35,36
 572 16 572 16 560 27.5 c 128,-1,37
 548 39 548 39 532 39 c 128,-1,38
 516 39 516 39 504 27.5 c 128,-1,39
 492 16 492 16 492 -1 c 2,40,-1
 492 -120 l 1,41,-1
 452 -120 l 1,42,-1
 452 -1 l 2,43,44
 452 16 452 16 440 27.5 c 128,-1,45
 428 39 428 39 412 39 c 128,-1,46
 396 39 396 39 384 27.5 c 128,-1,47
 372 16 372 16 372 -1 c 2,48,-1
 372 -120 l 1,49,-1
 332 -120 l 1,50,-1
 332 -1 l 2,51,52
 332 16 332 16 320 27.5 c 128,-1,53
 308 39 308 39 292 39 c 128,-1,54
 276 39 276 39 264 27.5 c 128,-1,55
 252 16 252 16 252 -1 c 2,56,-1
 252 -120 l 1,57,-1
 212 -120 l 1,58,-1
 212 -1 l 2,59,60
 212 16 212 16 200 27.5 c 128,-1,61
 188 39 188 39 172 39 c 128,-1,62
 156 39 156 39 144 27.5 c 128,-1,63
 132 16 132 16 132 -1 c 2,64,-1
 132 -120 l 1,65,-1
 119 -120 l 2,66,67
 102 -120 102 -120 90.5 -108 c 128,-1,68
 79 -96 79 -96 79 -80 c 2,69,-1
 79 680 l 2,70,71
 79 696 79 696 90.5 708 c 128,-1,72
 102 720 102 720 119 720 c 2,73,-1
 688 720 l 2,74,75
 704 720 704 720 716 708 c 128,-1,76
 728 696 728 696 728 680 c 2,77,-1
 728 504 l 2,23,24
EndSplineSet
Validated: 9
Ligature2: "'liga' Ligaduras est+AOEA-ndar en Latin b+APoA-squeda 0 subtabla" s d c a r d
EndChar

StartChar: next
Encoding: 57370 57370 88
Width: 1000
GlyphClass: 3
Flags: W
LayerCount: 2
Fore
SplineSet
975 567 m 128,-1,1
 950 577 950 577 931 558 c 2,2,-1
 824 451 l 1,3,4
 685 570 685 570 500 570 c 0,5,6
 364 570 364 570 249 503 c 128,-1,7
 134 436 134 436 67 321 c 128,-1,8
 0 206 0 206 0 70 c 1,9,-1
 80 70 l 1,10,11
 80 244 80 244 203 367 c 128,-1,12
 326 490 326 490 500 490 c 0,13,14
 651 490 651 490 767 394 c 1,15,-1
 662 289 l 2,16,17
 643 270 643 270 653 245 c 128,-1,18
 663 220 663 220 690 220 c 2,19,-1
 960 220 l 2,20,21
 976 220 976 220 988 232 c 128,-1,22
 1000 244 1000 244 1000 260 c 2,23,-1
 1000 530 l 2,24,0
 1000 557 1000 557 975 567 c 128,-1,1
920 301 m 1,25,-1
 787 301 l 1,26,-1
 920 433 l 1,27,-1
 920 301 l 1,25,-1
EndSplineSet
Validated: 41
Ligature2: "'liga' Ligaduras est+AOEA-ndar en Latin b+APoA-squeda 0 subtabla" n e x t
EndChar

StartChar: next_alt
Encoding: 57371 57371 89
Width: 1000
GlyphClass: 3
Flags: W
LayerCount: 2
Fore
SplineSet
960 379 m 2,0,-1
 691 379 l 2,1,2
 664 379 664 379 654 354 c 128,-1,3
 644 329 644 329 663 310 c 2,4,-1
 768 205 l 1,5,6
 650 110 650 110 500 110 c 0,7,8
 326 110 326 110 203 233 c 128,-1,9
 80 356 80 356 80 530 c 1,10,-1
 0 530 l 1,11,12
 0 394 0 394 67 279 c 128,-1,13
 134 164 134 164 249 97 c 128,-1,14
 364 30 364 30 500 30 c 0,15,16
 685 30 685 30 824 149 c 1,17,-1
 932 41 l 2,18,19
 943 30 943 30 960 30 c 0,20,21
 968 30 968 30 975 33 c 0,22,23
 1000 43 1000 43 1000 70 c 2,24,-1
 1000 339 l 2,25,26
 1000 356 1000 356 988.5 367.5 c 128,-1,27
 977 379 977 379 960 379 c 2,0,-1
920 167 m 1,28,-1
 787 299 l 1,29,-1
 920 299 l 1,30,-1
 920 167 l 1,28,-1
EndSplineSet
Validated: 41
Ligature2: "'liga' Ligaduras est+AOEA-ndar en Latin b+APoA-squeda 0 subtabla" n e x t underscore a l t
EndChar

StartChar: previous
Encoding: 57372 57372 90
Width: 1000
GlyphClass: 3
Flags: W
LayerCount: 2
Fore
SplineSet
500 570 m 0,0,1
 315 570 315 570 176 451 c 1,2,-1
 68 558 l 2,3,4
 50 577 50 577 25 567 c 128,-1,5
 0 557 0 557 0 530 c 2,6,-1
 0 261 l 2,7,8
 0 244 0 244 12 232.5 c 128,-1,9
 24 221 24 221 40 221 c 2,10,-1
 309 221 l 2,11,12
 336 221 336 221 346 246 c 128,-1,13
 356 271 356 271 337 290 c 2,14,-1
 233 394 l 1,15,16
 349 490 349 490 500 490 c 0,17,18
 674 490 674 490 797 367 c 128,-1,19
 920 244 920 244 920 70 c 1,20,-1
 1000 70 l 1,21,22
 1000 206 1000 206 933 321 c 128,-1,23
 866 436 866 436 751 503 c 128,-1,24
 636 570 636 570 500 570 c 0,0,1
80 301 m 1,25,-1
 80 433 l 1,26,-1
 213 300 l 1,27,-1
 80 300 l 1,28,-1
 80 301 l 1,25,-1
EndSplineSet
Validated: 41
Ligature2: "'liga' Ligaduras est+AOEA-ndar en Latin b+APoA-squeda 0 subtabla" p r e v i o u s
EndChar

StartChar: previous_alt
Encoding: 57373 57373 91
Width: 1000
GlyphClass: 3
Flags: W
LayerCount: 2
Fore
SplineSet
920 530 m 1,0,1
 920 356 920 356 797 233 c 128,-1,2
 674 110 674 110 500 110 c 0,3,4
 349 110 349 110 233 206 c 1,5,-1
 338 311 l 2,6,7
 357 330 357 330 347 355 c 128,-1,8
 337 380 337 380 310 380 c 2,9,-1
 40 380 l 2,10,11
 24 380 24 380 12 368 c 128,-1,12
 0 356 0 356 0 340 c 2,13,-1
 0 70 l 2,14,15
 0 43 0 43 25 33 c 0,16,17
 32 30 32 30 40 30 c 0,18,19
 58 30 58 30 68 42 c 2,20,-1
 176 150 l 1,21,22
 314 30 314 30 500 30 c 0,23,24
 636 30 636 30 751 97 c 128,-1,25
 866 164 866 164 933 279 c 128,-1,26
 1000 394 1000 394 1000 530 c 1,27,-1
 920 530 l 1,0,1
80 167 m 1,28,-1
 80 299 l 1,29,-1
 213 299 l 1,30,-1
 80 167 l 1,28,-1
EndSplineSet
Validated: 41
Ligature2: "'liga' Ligaduras est+AOEA-ndar en Latin b+APoA-squeda 0 subtabla" p r e v i o u s underscore a l t
EndChar

StartChar: document
Encoding: 57374 57374 92
Width: 837
GlyphClass: 3
Flags: W
LayerCount: 2
Fore
SplineSet
718 -200 m 2,0,-1
 120 -200 l 2,1,2
 70 -200 70 -200 35 -165 c 128,-1,3
 0 -130 0 -130 0 -80 c 2,4,-1
 0 680 l 2,5,6
 0 730 0 730 35 765 c 128,-1,7
 70 800 70 800 120 800 c 2,8,-1
 718 800 l 2,9,10
 767 800 767 800 802.5 765 c 128,-1,11
 838 730 838 730 838 680 c 2,12,-1
 838 -80 l 2,13,14
 838 -130 838 -130 802.5 -165 c 128,-1,15
 767 -200 767 -200 718 -200 c 2,0,-1
120 720 m 2,16,17
 103 720 103 720 91.5 708 c 128,-1,18
 80 696 80 696 80 680 c 2,19,-1
 80 -80 l 2,20,21
 80 -96 80 -96 91.5 -108 c 128,-1,22
 103 -120 103 -120 120 -120 c 2,23,-1
 718 -120 l 2,24,25
 734 -120 734 -120 746 -108 c 128,-1,26
 758 -96 758 -96 758 -80 c 2,27,-1
 758 680 l 2,28,29
 758 696 758 696 746 708 c 128,-1,30
 734 720 734 720 718 720 c 2,31,-1
 120 720 l 2,16,17
640 556 m 2,32,-1
 198 556 l 2,33,34
 181 556 181 556 169.5 568 c 128,-1,35
 158 580 158 580 158 596 c 128,-1,36
 158 612 158 612 169.5 624 c 128,-1,37
 181 636 181 636 198 636 c 2,38,-1
 640 636 l 2,39,40
 657 636 657 636 668.5 624 c 128,-1,41
 680 612 680 612 680 596 c 128,-1,42
 680 580 680 580 668 568 c 128,-1,43
 656 556 656 556 640 556 c 2,32,-1
446 405 m 2,44,-1
 198 405 l 2,45,46
 181 405 181 405 169.5 416.5 c 128,-1,47
 158 428 158 428 158 445 c 128,-1,48
 158 462 158 462 169.5 473.5 c 128,-1,49
 181 485 181 485 198 485 c 2,50,-1
 446 485 l 2,51,52
 463 485 463 485 474.5 473.5 c 128,-1,53
 486 462 486 462 486 445 c 128,-1,54
 486 428 486 428 474.5 416.5 c 128,-1,55
 463 405 463 405 446 405 c 2,44,-1
EndSplineSet
Validated: 1
Ligature2: "'liga' Ligaduras est+AOEA-ndar en Latin b+APoA-squeda 0 subtabla" d o c u m e n t
EndChar

StartChar: picture
Encoding: 57375 57375 93
Width: 999
GlyphClass: 3
Flags: W
LayerCount: 2
Fore
SplineSet
880 -200 m 2,0,-1
 120 -200 l 2,1,2
 70 -200 70 -200 35 -165 c 128,-1,3
 0 -130 0 -130 0 -80 c 2,4,-1
 0 680 l 2,5,6
 0 730 0 730 35 765 c 128,-1,7
 70 800 70 800 120 800 c 2,8,-1
 880 800 l 2,9,10
 930 800 930 800 965 765 c 128,-1,11
 1000 730 1000 730 1000 680 c 2,12,-1
 1000 -80 l 2,13,14
 1000 -130 1000 -130 965 -165 c 128,-1,15
 930 -200 930 -200 880 -200 c 2,0,-1
120 720 m 2,16,17
 104 720 104 720 92 708 c 128,-1,18
 80 696 80 696 80 680 c 2,19,-1
 80 -80 l 2,20,21
 80 -96 80 -96 92 -108 c 128,-1,22
 104 -120 104 -120 120 -120 c 2,23,-1
 880 -120 l 2,24,25
 896 -120 896 -120 908 -108 c 128,-1,26
 920 -96 920 -96 920 -80 c 2,27,-1
 920 680 l 2,28,29
 920 696 920 696 908 708 c 128,-1,30
 896 720 896 720 880 720 c 2,31,-1
 120 720 l 2,16,17
839 85 m 1,32,-1
 161 85 l 1,33,-1
 161 639 l 1,34,-1
 839 639 l 1,35,-1
 839 85 l 1,32,-1
241 165 m 1,36,-1
 759 165 l 1,37,-1
 759 559 l 1,38,-1
 241 559 l 1,39,-1
 241 165 l 1,36,-1
EndSplineSet
Validated: 1
Ligature2: "'liga' Ligaduras est+AOEA-ndar en Latin b+APoA-squeda 0 subtabla" p i c t u r e
EndChar

StartChar: music
Encoding: 57376 57376 94
Width: 724
GlyphClass: 3
Flags: W
LayerCount: 2
Fore
SplineSet
684 694 m 2,0,-1
 470 694 l 1,1,-1
 470 760 l 2,2,3
 470 776 470 776 458 788 c 128,-1,4
 446 800 446 800 430 800 c 128,-1,5
 414 800 414 800 402 788 c 128,-1,6
 390 776 390 776 390 760 c 2,7,-1
 390 211 l 1,8,9
 324 269 324 269 235 269 c 0,10,11
 138 269 138 269 69 200 c 128,-1,12
 0 131 0 131 0 34 c 128,-1,13
 0 -63 0 -63 69 -132 c 128,-1,14
 138 -201 138 -201 235 -201 c 128,-1,15
 332 -201 332 -201 401 -132 c 128,-1,16
 470 -63 470 -63 470 34 c 2,17,-1
 470 614 l 1,18,-1
 684 614 l 2,19,20
 700 614 700 614 712 626 c 128,-1,21
 724 638 724 638 724 654 c 128,-1,22
 724 670 724 670 712 682 c 128,-1,23
 700 694 700 694 684 694 c 2,0,-1
235 -120 m 0,24,25
 171 -120 171 -120 125.5 -74.5 c 128,-1,26
 80 -29 80 -29 80 35 c 128,-1,27
 80 99 80 99 125.5 144.5 c 128,-1,28
 171 190 171 190 235 190 c 128,-1,29
 299 190 299 190 344.5 144.5 c 128,-1,30
 390 99 390 99 390 35 c 0,31,32
 390 -30 390 -30 345 -75 c 128,-1,33
 300 -120 300 -120 235 -120 c 0,24,25
EndSplineSet
Validated: 9
Ligature2: "'liga' Ligaduras est+AOEA-ndar en Latin b+APoA-squeda 0 subtabla" m u s i c
EndChar

StartChar: fast_backward
Encoding: 57377 57377 95
Width: 998
GlyphClass: 3
Flags: W
LayerCount: 2
Fore
SplineSet
940 561 m 0,0,1
 879 596 879 596 820 561 c 2,2,-1
 549 404 l 2,3,4
 527 392 527 392 511 369 c 1,5,-1
 511 457 l 2,6,7
 511 526 511 526 451 561 c 0,8,9
 390 596 390 596 331 561 c 2,10,-1
 60 404 l 2,11,12
 0 369 0 369 0 300 c 128,-1,13
 0 231 0 231 60 196 c 2,14,-1
 331 39 l 2,15,16
 359 23 359 23 391 23 c 128,-1,17
 423 23 423 23 451 39 c 0,18,19
 511 74 511 74 511 143 c 2,20,-1
 511 231 l 1,21,22
 526 210 526 210 549 196 c 2,23,-1
 820 39 l 2,24,25
 848 23 848 23 880 23 c 128,-1,26
 912 23 912 23 940 39 c 0,27,28
 1000 74 1000 74 1000 143 c 2,29,-1
 1000 457 l 2,30,31
 1000 526 1000 526 940 561 c 0,0,1
431 143 m 2,32,33
 431 121 431 121 411 108 c 0,34,35
 390 97 390 97 371 108 c 2,36,-1
 100 265 l 2,37,38
 80 276 80 276 80 300 c 0,39,40
 80 323 80 323 100 335 c 2,41,-1
 371 492 l 2,42,43
 393 504 393 504 411 492 c 0,44,45
 431 479 431 479 431 457 c 2,46,-1
 431 143 l 2,32,33
920 143 m 2,47,48
 920 121 920 121 900 108 c 0,49,50
 879 97 879 97 860 108 c 2,51,-1
 589 265 l 2,52,53
 569 276 569 276 569 300 c 0,54,55
 569 323 569 323 589 335 c 2,56,-1
 860 492 l 2,57,58
 882 504 882 504 900 492 c 0,59,60
 920 479 920 479 920 457 c 2,61,-1
 920 143 l 2,47,48
EndSplineSet
Validated: 41
Ligature2: "'liga' Ligaduras est+AOEA-ndar en Latin b+APoA-squeda 0 subtabla" f a s t underscore b a c k w a r d
EndChar

StartChar: play
Encoding: 57378 57378 96
Width: 883
GlyphClass: 3
Flags: W
LayerCount: 2
Fore
SplineSet
120 -200 m 128,-1,1
 88 -200 88 -200 60 -184 c 0,2,3
 0 -149 0 -149 0 -80 c 2,4,-1
 0 680 l 2,5,6
 0 749 0 749 60 784 c 0,7,8
 121 819 121 819 180 784 c 2,9,-1
 835 404 l 2,10,11
 895 368 895 368 895 300 c 0,12,13
 895 231 895 231 835 196 c 2,14,-1
 180 -184 l 2,15,0
 152 -200 152 -200 120 -200 c 128,-1,1
120 720 m 0,16,17
 107 720 107 720 100 715 c 0,18,19
 80 702 80 702 80 680 c 2,20,-1
 80 -80 l 2,21,22
 80 -102 80 -102 100 -115 c 0,23,24
 121 -126 121 -126 140 -115 c 2,25,-1
 795 265 l 2,26,27
 815 276 815 276 815 300 c 0,28,29
 815 323 815 323 795 335 c 2,30,-1
 140 714 l 2,31,32
 132 720 132 720 120 720 c 0,16,17
EndSplineSet
Validated: 33
Ligature2: "'liga' Ligaduras est+AOEA-ndar en Latin b+APoA-squeda 0 subtabla" p l a y
EndChar

StartChar: pause
Encoding: 57379 57379 97
Width: 936
GlyphClass: 3
Flags: W
LayerCount: 2
Fore
SplineSet
249 -200 m 2,0,-1
 120 -200 l 2,1,2
 70 -200 70 -200 35 -165 c 128,-1,3
 0 -130 0 -130 0 -80 c 2,4,-1
 0 680 l 2,5,6
 0 730 0 730 35 765 c 128,-1,7
 70 800 70 800 120 800 c 2,8,-1
 249 800 l 2,9,10
 298 800 298 800 333.5 765 c 128,-1,11
 369 730 369 730 369 680 c 2,12,-1
 369 -80 l 2,13,14
 369 -130 369 -130 333.5 -165 c 128,-1,15
 298 -200 298 -200 249 -200 c 2,0,-1
120 720 m 2,16,17
 104 720 104 720 92 708 c 128,-1,18
 80 696 80 696 80 680 c 2,19,-1
 80 -80 l 2,20,21
 80 -96 80 -96 92 -108 c 128,-1,22
 104 -120 104 -120 120 -120 c 2,23,-1
 249 -120 l 2,24,25
 266 -120 266 -120 277.5 -108 c 128,-1,26
 289 -96 289 -96 289 -80 c 2,27,-1
 289 680 l 2,28,29
 289 696 289 696 277.5 708 c 128,-1,30
 266 720 266 720 249 720 c 2,31,-1
 120 720 l 2,16,17
816 -200 m 2,32,-1
 687 -200 l 2,33,34
 638 -200 638 -200 602.5 -165 c 128,-1,35
 567 -130 567 -130 567 -80 c 2,36,-1
 567 680 l 2,37,38
 567 730 567 730 602.5 765 c 128,-1,39
 638 800 638 800 687 800 c 2,40,-1
 816 800 l 2,41,42
 866 800 866 800 901 765 c 128,-1,43
 936 730 936 730 936 680 c 2,44,-1
 936 -80 l 2,45,46
 936 -130 936 -130 901 -165 c 128,-1,47
 866 -200 866 -200 816 -200 c 2,32,-1
687 720 m 2,48,49
 670 720 670 720 658.5 708 c 128,-1,50
 647 696 647 696 647 680 c 2,51,-1
 647 -80 l 2,52,53
 647 -96 647 -96 658.5 -108 c 128,-1,54
 670 -120 670 -120 687 -120 c 2,55,-1
 816 -120 l 2,56,57
 832 -120 832 -120 844 -108 c 128,-1,58
 856 -96 856 -96 856 -80 c 2,59,-1
 856 680 l 2,60,61
 856 696 856 696 844 708 c 128,-1,62
 832 720 832 720 816 720 c 2,63,-1
 687 720 l 2,48,49
EndSplineSet
Validated: 1
Ligature2: "'liga' Ligaduras est+AOEA-ndar en Latin b+APoA-squeda 0 subtabla" p a u s e
EndChar

StartChar: pause_alt
Encoding: 57380 57380 98
Width: 490
GlyphClass: 3
Flags: W
LayerCount: 2
Fore
SplineSet
0 -200 m 1,0,-1
 80 -200 l 1,1,-1
 80 800 l 1,2,-1
 0 800 l 1,3,-1
 0 -200 l 1,0,-1
410 -200 m 1,4,-1
 490 -200 l 1,5,-1
 490 800 l 1,6,-1
 410 800 l 1,7,-1
 410 -200 l 1,4,-1
EndSplineSet
Validated: 9
Ligature2: "'liga' Ligaduras est+AOEA-ndar en Latin b+APoA-squeda 0 subtabla" p a u s e underscore a l t
EndChar

StartChar: fast_forward
Encoding: 57381 57381 99
Width: 998
GlyphClass: 3
Flags: W
LayerCount: 2
Fore
SplineSet
940 404 m 2,0,-1
 669 561 l 2,1,2
 609 596 609 596 549 561 c 128,-1,3
 489 526 489 526 489 457 c 2,4,-1
 489 369 l 1,5,6
 474 390 474 390 451 404 c 2,7,-1
 180 561 l 2,8,9
 120 596 120 596 60 561 c 128,-1,10
 0 526 0 526 0 457 c 2,11,-1
 0 143 l 2,12,13
 0 74 0 74 60 39 c 0,14,15
 88 23 88 23 120 23 c 128,-1,16
 152 23 152 23 180 39 c 2,17,-1
 451 196 l 2,18,19
 473 208 473 208 489 231 c 1,20,-1
 489 143 l 2,21,22
 489 74 489 74 549 39 c 0,23,24
 577 23 577 23 609 23 c 128,-1,25
 641 23 641 23 669 39 c 2,26,-1
 940 196 l 2,27,28
 1000 232 1000 232 1000 300 c 0,29,30
 1000 369 1000 369 940 404 c 2,0,-1
411 265 m 2,31,-1
 140 108 l 2,32,33
 118 96 118 96 100 108 c 0,34,35
 80 118 80 118 80 143 c 2,36,-1
 80 457 l 2,37,38
 80 479 80 479 100 492 c 0,39,40
 110 497 110 497 120 497 c 0,41,42
 132 497 132 497 140 491 c 2,43,-1
 411 334 l 2,44,45
 431 323 431 323 431 299 c 0,46,47
 431 277 431 277 411 265 c 2,31,-1
900 265 m 2,48,-1
 629 108 l 2,49,50
 607 96 607 96 589 108 c 0,51,52
 569 118 569 118 569 143 c 2,53,-1
 569 457 l 2,54,55
 569 479 569 479 589 492 c 0,56,57
 599 497 599 497 609 497 c 0,58,59
 621 497 621 497 629 491 c 2,60,-1
 900 335 l 2,61,62
 920 324 920 324 920 300 c 0,63,64
 920 277 920 277 900 265 c 2,48,-1
EndSplineSet
Validated: 41
Ligature2: "'liga' Ligaduras est+AOEA-ndar en Latin b+APoA-squeda 0 subtabla" f a s t underscore f o r w a r d
EndChar

StartChar: display_add
Encoding: 57382 57382 100
Width: 1000
GlyphClass: 3
Flags: W
LayerCount: 2
Fore
SplineSet
942 363 m 1,0,-1
 942 600 l 2,1,2
 942 637 942 637 916 662.5 c 128,-1,3
 890 688 890 688 854 688 c 2,4,-1
 88 688 l 2,5,6
 52 689 52 689 26 663 c 128,-1,7
 0 637 0 637 0 600 c 2,8,-1
 0 162 l 2,9,10
 0 125 0 125 26 99.5 c 128,-1,11
 52 74 52 74 88 74 c 2,12,-1
 465 74 l 1,13,14
 475 51 475 51 487 36 c 1,15,-1
 285 36 l 1,16,-1
 285 -44 l 1,17,-1
 569 -44 l 1,18,19
 638 -88 638 -88 720 -88 c 0,20,21
 836 -88 836 -88 918 -6 c 128,-1,22
 1000 76 1000 76 1000 192 c 0,23,24
 1000 286 1000 286 942 363 c 1,0,-1
88 154 m 2,25,26
 80 154 80 154 80 162 c 2,27,-1
 80 600 l 2,28,29
 80 608 80 608 88 608 c 2,30,-1
 853 608 l 2,31,32
 861 608 861 608 861 600 c 2,33,-1
 861 433 l 1,34,35
 795 472 795 472 719 472 c 0,36,37
 603 472 603 472 521 390 c 128,-1,38
 439 308 439 308 439 192 c 0,39,40
 439 172 439 172 442 154 c 1,41,-1
 88 154 l 2,25,26
720 -9 m 0,42,43
 637 -9 637 -9 578.5 49.5 c 128,-1,44
 520 108 520 108 520 191 c 128,-1,45
 520 274 520 274 579 332.5 c 128,-1,46
 638 391 638 391 720 391 c 128,-1,47
 802 391 802 391 861 332.5 c 128,-1,48
 920 274 920 274 920 191 c 128,-1,49
 920 108 920 108 861 49.5 c 128,-1,50
 802 -9 802 -9 720 -9 c 0,42,43
760 328 m 1,51,-1
 680 328 l 1,52,-1
 680 232 l 1,53,-1
 584 232 l 1,54,-1
 584 152 l 1,55,-1
 680 152 l 1,56,-1
 680 56 l 1,57,-1
 760 56 l 1,58,-1
 760 152 l 1,59,-1
 855 152 l 1,60,-1
 855 232 l 1,61,-1
 760 232 l 1,62,-1
 760 328 l 1,51,-1
EndSplineSet
Validated: 41
Ligature2: "'liga' Ligaduras est+AOEA-ndar en Latin b+APoA-squeda 0 subtabla" d i s p l a y underscore a d d
EndChar

StartChar: display_delete
Encoding: 57383 57383 101
Width: 1000
GlyphClass: 3
Flags: W
LayerCount: 2
Fore
SplineSet
942 363 m 1,0,-1
 942 600 l 2,1,2
 942 637 942 637 916 662.5 c 128,-1,3
 890 688 890 688 854 688 c 2,4,-1
 88 688 l 2,5,6
 52 689 52 689 26 663 c 128,-1,7
 0 637 0 637 0 600 c 2,8,-1
 0 162 l 2,9,10
 0 125 0 125 26 99.5 c 128,-1,11
 52 74 52 74 88 74 c 2,12,-1
 465 74 l 1,13,14
 475 51 475 51 487 36 c 1,15,-1
 285 36 l 1,16,-1
 285 -44 l 1,17,-1
 569 -44 l 1,18,19
 638 -88 638 -88 720 -88 c 0,20,21
 836 -88 836 -88 918 -6 c 128,-1,22
 1000 76 1000 76 1000 192 c 0,23,24
 1000 286 1000 286 942 363 c 1,0,-1
88 154 m 2,25,26
 80 154 80 154 80 162 c 2,27,-1
 80 600 l 2,28,29
 80 608 80 608 88 608 c 2,30,-1
 853 608 l 2,31,32
 861 608 861 608 861 600 c 2,33,-1
 861 433 l 1,34,35
 795 472 795 472 719 472 c 0,36,37
 603 472 603 472 521 390 c 128,-1,38
 439 308 439 308 439 192 c 0,39,40
 439 172 439 172 442 154 c 1,41,-1
 88 154 l 2,25,26
720 -9 m 0,42,43
 637 -9 637 -9 578.5 49.5 c 128,-1,44
 520 108 520 108 520 191 c 128,-1,45
 520 274 520 274 579 332.5 c 128,-1,46
 638 391 638 391 720 391 c 128,-1,47
 802 391 802 391 861 332.5 c 128,-1,48
 920 274 920 274 920 191 c 128,-1,49
 920 108 920 108 861 49.5 c 128,-1,50
 802 -9 802 -9 720 -9 c 0,42,43
584 152 m 1,51,-1
 856 152 l 1,52,-1
 856 232 l 1,53,-1
 584 232 l 1,54,-1
 584 152 l 1,51,-1
EndSplineSet
Validated: 41
Ligature2: "'liga' Ligaduras est+AOEA-ndar en Latin b+APoA-squeda 0 subtabla" d i s p l a y underscore d e l e t e
EndChar

StartChar: display_content
Encoding: 57384 57384 102
Width: 999
GlyphClass: 3
Flags: W
LayerCount: 2
Fore
SplineSet
912 38 m 2,0,-1
 88 38 l 2,1,2
 51 38 51 38 25.5 64 c 128,-1,3
 0 90 0 90 0 126 c 2,4,-1
 0 600 l 2,5,6
 0 637 0 637 26 662.5 c 128,-1,7
 52 688 52 688 88 688 c 2,8,-1
 911 688 l 2,9,10
 948 688 948 688 973.5 662 c 128,-1,11
 999 636 999 636 999 600 c 2,12,-1
 999 126 l 2,13,14
 1000 89 1000 89 974 63.5 c 128,-1,15
 948 38 948 38 912 38 c 2,0,-1
88 609 m 1,16,17
 80 609 80 609 80 600 c 2,18,-1
 80 126 l 2,19,20
 80 118 80 118 88 118 c 2,21,-1
 911 118 l 2,22,23
 919 118 919 118 919 126 c 2,24,-1
 919 600 l 2,25,26
 919 608 919 608 911 608 c 2,27,-1
 88 608 l 1,28,-1
 88 609 l 1,16,17
301 -89 m 1,29,-1
 698 -89 l 1,30,-1
 698 -9 l 1,31,-1
 301 -9 l 1,32,-1
 301 -89 l 1,29,-1
804 248 m 1,33,34
 770 248 770 248 741 265 c 128,-1,35
 712 282 712 282 700 296.5 c 128,-1,36
 688 311 688 311 668 339 c 0,37,38
 646 371 646 371 632.5 382.5 c 128,-1,39
 619 394 619 394 601 394 c 128,-1,40
 583 394 583 394 569.5 382.5 c 128,-1,41
 556 371 556 371 534 339 c 0,42,43
 514 311 514 311 502 296.5 c 128,-1,44
 490 282 490 282 461 265 c 128,-1,45
 432 248 432 248 398 248 c 128,-1,46
 364 248 364 248 335 265 c 128,-1,47
 306 282 306 282 294 296.5 c 128,-1,48
 282 311 282 311 262 339 c 0,49,50
 240 371 240 371 226.5 382.5 c 128,-1,51
 213 394 213 394 195 394 c 1,52,-1
 195 479 l 1,53,54
 229 479 229 479 258 462 c 128,-1,55
 287 445 287 445 299 430.5 c 128,-1,56
 311 416 311 416 331 388 c 0,57,58
 353 356 353 356 366.5 344.5 c 128,-1,59
 380 333 380 333 398 333 c 128,-1,60
 416 333 416 333 429.5 344.5 c 128,-1,61
 443 356 443 356 465 388 c 0,62,63
 485 416 485 416 497 430.5 c 128,-1,64
 509 445 509 445 538 462 c 128,-1,65
 567 479 567 479 601 479 c 128,-1,66
 635 479 635 479 664 462 c 128,-1,67
 693 445 693 445 705 430.5 c 128,-1,68
 717 416 717 416 737 388 c 0,69,70
 759 356 759 356 772.5 344.5 c 128,-1,71
 786 333 786 333 804 333 c 1,72,-1
 804 248 l 1,33,34
EndSplineSet
Validated: 41
Ligature2: "'liga' Ligaduras est+AOEA-ndar en Latin b+APoA-squeda 0 subtabla" d i s p l a y underscore c o n t e n t
EndChar

StartChar: display_connect
Encoding: 57385 57385 103
Width: 999
GlyphClass: 3
Flags: W
LayerCount: 2
Fore
SplineSet
912 38 m 2,0,-1
 88 38 l 2,1,2
 51 38 51 38 25.5 64 c 128,-1,3
 0 90 0 90 0 126 c 2,4,-1
 0 600 l 2,5,6
 0 637 0 637 26 662.5 c 128,-1,7
 52 688 52 688 88 688 c 2,8,-1
 911 688 l 2,9,10
 948 688 948 688 973.5 662 c 128,-1,11
 999 636 999 636 999 600 c 2,12,-1
 999 126 l 2,13,14
 1000 89 1000 89 974 63.5 c 128,-1,15
 948 38 948 38 912 38 c 2,0,-1
88 609 m 1,16,17
 80 609 80 609 80 600 c 2,18,-1
 80 126 l 2,19,20
 80 118 80 118 88 118 c 2,21,-1
 911 118 l 2,22,23
 919 118 919 118 919 126 c 2,24,-1
 919 600 l 2,25,26
 919 608 919 608 911 608 c 2,27,-1
 88 608 l 1,28,-1
 88 609 l 1,16,17
301 -89 m 1,29,-1
 698 -89 l 1,30,-1
 698 -9 l 1,31,-1
 301 -9 l 1,32,-1
 301 -89 l 1,29,-1
749 313 m 1,33,-1
 588 461 l 1,34,-1
 411 357 l 1,35,-1
 251 413 l 1,36,-1
 412 265 l 1,37,-1
 589 369 l 1,38,-1
 749 313 l 1,33,-1
EndSplineSet
Validated: 41
Ligature2: "'liga' Ligaduras est+AOEA-ndar en Latin b+APoA-squeda 0 subtabla" d i s p l a y underscore c o n n e c t
EndChar

StartChar: cast
Encoding: 57386 57386 104
Width: 999
GlyphClass: 3
Flags: W
LayerCount: 2
Fore
SplineSet
880 38 m 2,0,-1
 520 38 l 2,1,2
 504 38 504 38 492 50 c 128,-1,3
 480 62 480 62 480 78 c 128,-1,4
 480 94 480 94 492 106 c 128,-1,5
 504 118 504 118 520 118 c 2,6,-1
 880 118 l 2,7,8
 896 118 896 118 908 130 c 128,-1,9
 920 142 920 142 920 158 c 2,10,-1
 920 569 l 2,11,12
 920 586 920 586 908 597.5 c 128,-1,13
 896 609 896 609 880 609 c 2,14,-1
 120 609 l 2,15,16
 104 609 104 609 92 597.5 c 128,-1,17
 80 586 80 586 80 569 c 2,18,-1
 80 431 l 2,19,20
 80 414 80 414 68 402.5 c 128,-1,21
 56 391 56 391 40 391 c 128,-1,22
 24 391 24 391 12 402.5 c 128,-1,23
 0 414 0 414 0 431 c 2,24,-1
 0 569 l 2,25,26
 0 618 0 618 35 653.5 c 128,-1,27
 70 689 70 689 120 689 c 2,28,-1
 880 689 l 2,29,30
 930 689 930 689 965 653.5 c 128,-1,31
 1000 618 1000 618 1000 569 c 2,32,-1
 1000 158 l 2,33,34
 1000 108 1000 108 965 73 c 128,-1,35
 930 38 930 38 880 38 c 2,0,-1
607 -89 m 2,36,-1
 520 -89 l 2,37,38
 504 -89 504 -89 492 -77.5 c 128,-1,39
 480 -66 480 -66 480 -49 c 128,-1,40
 480 -32 480 -32 492 -20.5 c 128,-1,41
 504 -9 504 -9 520 -9 c 2,42,-1
 607 -9 l 2,43,44
 624 -9 624 -9 635.5 -20.5 c 128,-1,45
 647 -32 647 -32 647 -49 c 128,-1,46
 647 -66 647 -66 635.5 -77.5 c 128,-1,47
 624 -89 624 -89 607 -89 c 2,36,-1
280 -89 m 128,-1,49
 264 -89 264 -89 252 -77.5 c 128,-1,50
 240 -66 240 -66 240 -49 c 0,51,52
 240 34 240 34 181 92.5 c 128,-1,53
 122 151 122 151 40 151 c 0,54,55
 24 151 24 151 12 162.5 c 128,-1,56
 0 174 0 174 0 191 c 128,-1,57
 0 208 0 208 12 219.5 c 128,-1,58
 24 231 24 231 40 231 c 0,59,60
 156 231 156 231 238 148.5 c 128,-1,61
 320 66 320 66 320 -49 c 0,62,63
 320 -66 320 -66 308 -77.5 c 128,-1,48
 296 -89 296 -89 280 -89 c 128,-1,49
400 -89 m 128,-1,65
 384 -89 384 -89 372 -77.5 c 128,-1,66
 360 -66 360 -66 360 -49 c 0,67,68
 360 83 360 83 266 177 c 128,-1,69
 172 271 172 271 40 271 c 0,70,71
 24 271 24 271 12 282.5 c 128,-1,72
 0 294 0 294 0 311 c 128,-1,73
 0 328 0 328 12 339.5 c 128,-1,74
 24 351 24 351 40 351 c 0,75,76
 206 351 206 351 323 234 c 128,-1,77
 440 117 440 117 440 -49 c 0,78,79
 440 -66 440 -66 428 -77.5 c 128,-1,64
 416 -89 416 -89 400 -89 c 128,-1,65
160 -89 m 128,-1,81
 144 -89 144 -89 132 -77.5 c 128,-1,82
 120 -66 120 -66 120 -49 c 0,83,84
 120 -16 120 -16 96.5 7.5 c 128,-1,85
 73 31 73 31 40 31 c 0,86,87
 24 31 24 31 12 42.5 c 128,-1,88
 0 54 0 54 0 71 c 128,-1,89
 0 88 0 88 12 99.5 c 128,-1,90
 24 111 24 111 40 111 c 0,91,92
 106 111 106 111 153 64 c 128,-1,93
 200 17 200 17 200 -49 c 0,94,95
 200 -66 200 -66 188 -77.5 c 128,-1,80
 176 -89 176 -89 160 -89 c 128,-1,81
EndSplineSet
Validated: 1
Ligature2: "'liga' Ligaduras est+AOEA-ndar en Latin b+APoA-squeda 0 subtabla" c a s t
EndChar

StartChar: remote_control
Encoding: 57387 57387 105
Width: 538
GlyphClass: 3
Flags: W
LayerCount: 2
Fore
SplineSet
418 800 m 2,0,-1
 120 800 l 2,1,2
 70 800 70 800 35 765 c 128,-1,3
 0 730 0 730 0 680 c 2,4,-1
 0 -80 l 2,5,6
 0 -130 0 -130 35 -165 c 128,-1,7
 70 -200 70 -200 120 -200 c 2,8,-1
 418 -200 l 2,9,10
 468 -200 468 -200 503 -165 c 128,-1,11
 538 -130 538 -130 538 -80 c 2,12,-1
 538 680 l 2,13,14
 538 730 538 730 503 765 c 128,-1,15
 468 800 468 800 418 800 c 2,0,-1
458 -80 m 2,16,17
 458 -96 458 -96 446 -108 c 128,-1,18
 434 -120 434 -120 418 -120 c 2,19,-1
 120 -120 l 2,20,21
 104 -120 104 -120 92 -108 c 128,-1,22
 80 -96 80 -96 80 -80 c 2,23,-1
 80 680 l 2,24,25
 80 696 80 696 92 708 c 128,-1,26
 104 720 104 720 120 720 c 2,27,-1
 418 720 l 2,28,29
 434 720 434 720 446 708 c 128,-1,30
 458 696 458 696 458 680 c 2,31,-1
 458 -80 l 2,16,17
229 298 m 128,-1,33
 229 281 229 281 240.5 269.5 c 128,-1,34
 252 258 252 258 269 258 c 128,-1,35
 286 258 286 258 297.5 269.5 c 128,-1,36
 309 281 309 281 309 298 c 128,-1,37
 309 315 309 315 297.5 326.5 c 128,-1,38
 286 338 286 338 269 338 c 128,-1,39
 252 338 252 338 240.5 326.5 c 128,-1,32
 229 315 229 315 229 298 c 128,-1,33
116 298 m 128,-1,41
 116 281 116 281 127.5 269.5 c 128,-1,42
 139 258 139 258 156 258 c 128,-1,43
 173 258 173 258 184.5 269.5 c 128,-1,44
 196 281 196 281 196 298 c 128,-1,45
 196 315 196 315 184.5 326.5 c 128,-1,46
 173 338 173 338 156 338 c 128,-1,47
 139 338 139 338 127.5 326.5 c 128,-1,40
 116 315 116 315 116 298 c 128,-1,41
342 298 m 128,-1,49
 342 281 342 281 353.5 269.5 c 128,-1,50
 365 258 365 258 382 258 c 128,-1,51
 399 258 399 258 410.5 269.5 c 128,-1,52
 422 281 422 281 422 298 c 128,-1,53
 422 315 422 315 410.5 326.5 c 128,-1,54
 399 338 399 338 382 338 c 128,-1,55
 365 338 365 338 353.5 326.5 c 128,-1,48
 342 315 342 315 342 298 c 128,-1,49
229 187 m 128,-1,57
 229 170 229 170 240.5 158.5 c 128,-1,58
 252 147 252 147 269 147 c 128,-1,59
 286 147 286 147 297.5 158.5 c 128,-1,60
 309 170 309 170 309 187 c 128,-1,61
 309 204 309 204 297.5 215.5 c 128,-1,62
 286 227 286 227 269 227 c 128,-1,63
 252 227 252 227 240.5 215.5 c 128,-1,56
 229 204 229 204 229 187 c 128,-1,57
116 187 m 128,-1,65
 116 170 116 170 127.5 158.5 c 128,-1,66
 139 147 139 147 156 147 c 128,-1,67
 173 147 173 147 184.5 158.5 c 128,-1,68
 196 170 196 170 196 187 c 128,-1,69
 196 204 196 204 184.5 215.5 c 128,-1,70
 173 227 173 227 156 227 c 128,-1,71
 139 227 139 227 127.5 215.5 c 128,-1,64
 116 204 116 204 116 187 c 128,-1,65
342 187 m 128,-1,73
 342 170 342 170 353.5 158.5 c 128,-1,74
 365 147 365 147 382 147 c 128,-1,75
 399 147 399 147 410.5 158.5 c 128,-1,76
 422 170 422 170 422 187 c 128,-1,77
 422 204 422 204 410.5 215.5 c 128,-1,78
 399 227 399 227 382 227 c 128,-1,79
 365 227 365 227 353.5 215.5 c 128,-1,72
 342 204 342 204 342 187 c 128,-1,73
229 76 m 128,-1,81
 229 59 229 59 240.5 47.5 c 128,-1,82
 252 36 252 36 269 36 c 128,-1,83
 286 36 286 36 297.5 47.5 c 128,-1,84
 309 59 309 59 309 76 c 128,-1,85
 309 93 309 93 297.5 104.5 c 128,-1,86
 286 116 286 116 269 116 c 128,-1,87
 252 116 252 116 240.5 104.5 c 128,-1,80
 229 93 229 93 229 76 c 128,-1,81
116 76 m 128,-1,89
 116 59 116 59 127.5 47.5 c 128,-1,90
 139 36 139 36 156 36 c 128,-1,91
 173 36 173 36 184.5 47.5 c 128,-1,92
 196 59 196 59 196 76 c 128,-1,93
 196 93 196 93 184.5 104.5 c 128,-1,94
 173 116 173 116 156 116 c 128,-1,95
 139 116 139 116 127.5 104.5 c 128,-1,88
 116 93 116 93 116 76 c 128,-1,89
342 76 m 128,-1,97
 342 59 342 59 353.5 47.5 c 128,-1,98
 365 36 365 36 382 36 c 128,-1,99
 399 36 399 36 410.5 47.5 c 128,-1,100
 422 59 422 59 422 76 c 128,-1,101
 422 93 422 93 410.5 104.5 c 128,-1,102
 399 116 399 116 382 116 c 128,-1,103
 365 116 365 116 353.5 104.5 c 128,-1,96
 342 93 342 93 342 76 c 128,-1,97
229 -34 m 128,-1,105
 229 -51 229 -51 240.5 -62.5 c 128,-1,106
 252 -74 252 -74 269 -74 c 128,-1,107
 286 -74 286 -74 297.5 -62.5 c 128,-1,108
 309 -51 309 -51 309 -34 c 128,-1,109
 309 -17 309 -17 297.5 -5.5 c 128,-1,110
 286 6 286 6 269 6 c 128,-1,111
 252 6 252 6 240.5 -5.5 c 128,-1,104
 229 -17 229 -17 229 -34 c 128,-1,105
269 388 m 128,-1,113
 327 388 327 388 368 429 c 128,-1,114
 409 470 409 470 409 528 c 128,-1,115
 409 586 409 586 368 627 c 128,-1,116
 327 668 327 668 269 668 c 128,-1,117
 211 668 211 668 170 627 c 128,-1,118
 129 586 129 586 129 528 c 128,-1,119
 129 470 129 470 170 429 c 128,-1,112
 211 388 211 388 269 388 c 128,-1,113
269 587 m 128,-1,121
 294 587 294 587 311.5 569.5 c 128,-1,122
 329 552 329 552 329 527 c 128,-1,123
 329 502 329 502 311.5 484.5 c 128,-1,124
 294 467 294 467 269 467 c 128,-1,125
 244 467 244 467 226.5 484.5 c 128,-1,126
 209 502 209 502 209 527 c 128,-1,127
 209 552 209 552 226.5 569.5 c 128,-1,120
 244 587 244 587 269 587 c 128,-1,121
EndSplineSet
Validated: 9
Ligature2: "'liga' Ligaduras est+AOEA-ndar en Latin b+APoA-squeda 0 subtabla" r e m o t e underscore c o n t r o l
EndChar

StartChar: fullscreen
Encoding: 57388 57388 106
Width: 1000
GlyphClass: 3
Flags: W
LayerCount: 2
Fore
SplineSet
40 268 m 128,-1,1
 24 268 24 268 12 280 c 128,-1,2
 0 292 0 292 0 308 c 2,3,-1
 0 680 l 2,4,5
 0 730 0 730 35 765 c 128,-1,6
 70 800 70 800 120 800 c 2,7,-1
 492 800 l 2,8,9
 508 800 508 800 520 788 c 128,-1,10
 532 776 532 776 532 760 c 128,-1,11
 532 744 532 744 520 732 c 128,-1,12
 508 720 508 720 492 720 c 2,13,-1
 120 720 l 2,14,15
 104 720 104 720 92 708 c 128,-1,16
 80 696 80 696 80 680 c 2,17,-1
 80 308 l 2,18,19
 80 292 80 292 68 280 c 128,-1,0
 56 268 56 268 40 268 c 128,-1,1
677 3 m 2,20,-1
 323 3 l 2,21,22
 274 3 274 3 238.5 38.5 c 128,-1,23
 203 74 203 74 203 123 c 2,24,-1
 203 477 l 2,25,26
 203 526 203 526 238.5 561.5 c 128,-1,27
 274 597 274 597 323 597 c 2,28,-1
 677 597 l 2,29,30
 726 597 726 597 761.5 561.5 c 128,-1,31
 797 526 797 526 797 477 c 2,32,-1
 797 123 l 2,33,34
 797 74 797 74 761.5 38.5 c 128,-1,35
 726 3 726 3 677 3 c 2,20,-1
323 517 m 2,36,37
 306 517 306 517 294.5 505.5 c 128,-1,38
 283 494 283 494 283 477 c 2,39,-1
 283 123 l 2,40,41
 283 106 283 106 294.5 94.5 c 128,-1,42
 306 83 306 83 323 83 c 2,43,-1
 677 83 l 2,44,45
 694 83 694 83 705.5 94.5 c 128,-1,46
 717 106 717 106 717 123 c 2,47,-1
 717 477 l 2,48,49
 717 494 717 494 705.5 505.5 c 128,-1,50
 694 517 694 517 677 517 c 2,51,-1
 323 517 l 2,36,37
877 -197 m 2,52,-1
 505 -197 l 2,53,54
 488 -197 488 -197 476.5 -185.5 c 128,-1,55
 465 -174 465 -174 465 -157 c 128,-1,56
 465 -140 465 -140 476.5 -128.5 c 128,-1,57
 488 -117 488 -117 505 -117 c 2,58,-1
 877 -117 l 2,59,60
 894 -117 894 -117 905.5 -105.5 c 128,-1,61
 917 -94 917 -94 917 -77 c 2,62,-1
 917 295 l 2,63,64
 917 312 917 312 928.5 323.5 c 128,-1,65
 940 335 940 335 957 335 c 128,-1,66
 974 335 974 335 985.5 323.5 c 128,-1,67
 997 312 997 312 997 295 c 2,68,-1
 997 -77 l 2,69,70
 997 -126 997 -126 961.5 -161.5 c 128,-1,71
 926 -197 926 -197 877 -197 c 2,52,-1
EndSplineSet
Validated: 1
Ligature2: "'liga' Ligaduras est+AOEA-ndar en Latin b+APoA-squeda 0 subtabla" f u l l s c r e e n
EndChar

StartChar: swap_area
Encoding: 57389 57389 107
Width: 1000
GlyphClass: 3
Flags: W
LayerCount: 2
Fore
SplineSet
965 385 m 2,0,-1
 804 546 l 2,1,2
 792 558 792 558 775.5 558 c 128,-1,3
 759 558 759 558 747 546 c 128,-1,4
 735 534 735 534 735 517.5 c 128,-1,5
 735 501 735 501 747 489 c 2,6,-1
 897 340 l 1,7,-1
 103 340 l 1,8,-1
 252 489 l 2,9,10
 264 501 264 501 264 517.5 c 128,-1,11
 264 534 264 534 252 546 c 128,-1,12
 240 558 240 558 223.5 558 c 128,-1,13
 207 558 207 558 195 546 c 2,14,-1
 35 385 l 2,15,16
 0 350 0 350 0 300 c 128,-1,17
 0 250 0 250 35 215 c 2,18,-1
 196 54 l 2,19,20
 208 42 208 42 224 42 c 128,-1,21
 240 42 240 42 252 54 c 128,-1,22
 264 66 264 66 264 82.5 c 128,-1,23
 264 99 264 99 252 111 c 2,24,-1
 103 260 l 1,25,-1
 896 260 l 1,26,-1
 747 111 l 2,27,28
 735 99 735 99 735 82.5 c 128,-1,29
 735 66 735 66 747 54 c 128,-1,30
 759 42 759 42 775 42 c 128,-1,31
 791 42 791 42 803 54 c 2,32,-1
 964 215 l 2,33,34
 1000 250 1000 250 1000 300 c 128,-1,35
 1000 350 1000 350 965 385 c 2,0,-1
EndSplineSet
Validated: 9
Ligature2: "'liga' Ligaduras est+AOEA-ndar en Latin b+APoA-squeda 0 subtabla" s w a p underscore a r e a
EndChar

StartChar: directory_tree
Encoding: 57390 57390 108
Width: 1000
GlyphClass: 3
Flags: W
LayerCount: 2
Fore
SplineSet
880 566 m 2,0,-1
 494 566 l 2,1,2
 464 566 464 566 455 595 c 2,3,-1
 445 629 l 2,4,5
 435 668 435 668 402.5 692.5 c 128,-1,6
 370 717 370 717 329 717 c 2,7,-1
 120 717 l 2,8,9
 70 717 70 717 35 681.5 c 128,-1,10
 0 646 0 646 0 597 c 2,11,-1
 0 -19 l 2,12,13
 0 -68 0 -68 35 -103.5 c 128,-1,14
 70 -139 70 -139 120 -139 c 2,15,-1
 880 -139 l 2,16,17
 930 -139 930 -139 965 -103.5 c 128,-1,18
 1000 -68 1000 -68 1000 -19 c 2,19,-1
 1000 446 l 2,20,21
 1000 496 1000 496 965 531 c 128,-1,22
 930 566 930 566 880 566 c 2,0,-1
920 -19 m 2,23,24
 920 -36 920 -36 908 -47.5 c 128,-1,25
 896 -59 896 -59 880 -59 c 2,26,-1
 120 -59 l 2,27,28
 104 -59 104 -59 92 -47.5 c 128,-1,29
 80 -36 80 -36 80 -19 c 2,30,-1
 80 597 l 2,31,32
 80 614 80 614 92 625.5 c 128,-1,33
 104 637 104 637 120 637 c 2,34,-1
 330 637 l 2,35,36
 360 637 360 637 369 608 c 2,37,-1
 379 574 l 2,38,39
 389 535 389 535 421.5 510.5 c 128,-1,40
 454 486 454 486 495 486 c 2,41,-1
 880 486 l 2,42,43
 896 486 896 486 908 474 c 128,-1,44
 920 462 920 462 920 446 c 2,45,-1
 920 -19 l 2,23,24
614 79 m 2,46,-1
 223 79 l 1,47,-1
 223 142 l 1,48,-1
 465 142 l 2,49,50
 482 142 482 142 493.5 154 c 128,-1,51
 505 166 505 166 505 182 c 128,-1,52
 505 198 505 198 493.5 210 c 128,-1,53
 482 222 482 222 465 222 c 2,54,-1
 223 222 l 1,55,-1
 223 285 l 1,56,-1
 358 285 l 2,57,58
 374 285 374 285 386 296.5 c 128,-1,59
 398 308 398 308 398 325 c 128,-1,60
 398 342 398 342 386 353.5 c 128,-1,61
 374 365 374 365 358 365 c 2,62,-1
 223 365 l 1,63,-1
 223 394 l 2,64,65
 223 410 223 410 211.5 422 c 128,-1,66
 200 434 200 434 183 434 c 128,-1,67
 166 434 166 434 154.5 422 c 128,-1,68
 143 410 143 410 143 394 c 2,69,-1
 143 41 l 2,70,71
 143 24 143 24 155.5 11.5 c 128,-1,72
 168 -1 168 -1 185 -1 c 2,73,-1
 613 -1 l 2,74,75
 630 -1 630 -1 641.5 10.5 c 128,-1,76
 653 22 653 22 653 39 c 128,-1,77
 653 56 653 56 641.5 67.5 c 128,-1,78
 630 79 630 79 614 79 c 2,46,-1
EndSplineSet
Validated: 9
Ligature2: "'liga' Ligaduras est+AOEA-ndar en Latin b+APoA-squeda 0 subtabla" d i r e c t o r y underscore t r e e
EndChar

StartChar: user_manual
Encoding: 57391 57391 109
Width: 1003
GlyphClass: 3
Flags: W
LayerCount: 2
Fore
SplineSet
163 527 m 0,0,1
 147 524 147 524 137.5 511 c 128,-1,2
 128 498 128 498 130 481 c 0,3,4
 132 467 132 467 143.5 457.5 c 128,-1,5
 155 448 155 448 169 448 c 0,6,7
 174 448 174 448 176 449 c 0,8,9
 230 459 230 459 293 457 c 0,10,11
 310 456 310 456 322 467.5 c 128,-1,12
 334 479 334 479 335 495 c 0,13,14
 336 512 336 512 324.5 524 c 128,-1,15
 313 536 313 536 297 537 c 0,16,17
 226 537 226 537 163 527 c 0,0,1
163 367 m 0,18,19
 147 364 147 364 137.5 351 c 128,-1,20
 128 338 128 338 130 321 c 0,21,22
 132 307 132 307 143.5 297.5 c 128,-1,23
 155 288 155 288 169 288 c 0,24,25
 174 288 174 288 176 289 c 0,26,27
 260 304 260 304 344 292 c 0,28,29
 361 290 361 290 374 300 c 128,-1,30
 387 310 387 310 389 326 c 0,31,32
 391 343 391 343 381 356 c 128,-1,33
 371 369 371 369 355 371 c 0,34,35
 261 384 261 384 163 367 c 0,18,19
893 674 m 0,36,37
 694 726 694 726 503 652 c 1,38,39
 308 729 308 729 107 675 c 0,40,41
 62 663 62 663 30 620.5 c 128,-1,42
 -2 578 -2 578 -2 529 c 2,43,-1
 -2 62 l 2,44,45
 -2 12 -2 12 33 -15 c 0,46,47
 58 -34 58 -34 93 -34 c 0,48,49
 107 -34 107 -34 127 -29 c 0,50,51
 261 6 261 6 394 -24 c 0,52,53
 460 -40 460 -40 502 -5 c 1,54,55
 546 -39 546 -39 611 -24 c 0,56,57
 742 6 742 6 873 -29 c 0,58,59
 893 -34 893 -34 907 -34 c 0,60,61
 940 -34 940 -34 967 -15 c 0,62,63
 1002 12 1002 12 1002 62 c 2,64,-1
 1002 529 l 2,65,66
 1002 577 1002 577 970 620 c 128,-1,67
 938 663 938 663 893 674 c 0,36,37
462 82 m 1,68,69
 462 64 462 64 453 57 c 0,70,71
 441 46 441 46 412 53 c 0,72,73
 260 88 260 88 107 48 c 0,74,75
 89 44 89 44 82 49 c 0,76,77
 78 52 78 52 78 63 c 2,78,-1
 78 529 l 2,79,80
 78 550 78 550 93 571.5 c 128,-1,81
 108 593 108 593 127 597 c 0,82,83
 201 616 201 616 269 616 c 0,84,85
 371 616 371 616 461 582 c 1,86,-1
 461 82 l 1,87,-1
 462 82 l 1,68,69
922 62 m 2,88,89
 922 51 922 51 918 48 c 0,90,91
 910 43 910 43 893 47 c 0,92,93
 743 87 743 87 593 52 c 0,94,95
 565 46 565 46 552 56 c 0,96,97
 543 64 543 64 543 81 c 2,98,-1
 543 581 l 1,99,100
 704 641 704 641 873 596 c 0,101,102
 892 592 892 592 907 570.5 c 128,-1,103
 922 549 922 549 922 528 c 2,104,-1
 922 62 l 2,88,89
EndSplineSet
Validated: 41
Ligature2: "'liga' Ligaduras est+AOEA-ndar en Latin b+APoA-squeda 0 subtabla" u s e r underscore m a n u a l
EndChar

StartChar: chevron_up
Encoding: 57392 57392 110
Width: 1000
GlyphClass: 3
Flags: W
LayerCount: 2
Fore
SplineSet
40 47 m 0,0,1
 24 47 24 47 12 59 c 128,-1,2
 0 71 0 71 0 87.5 c 128,-1,3
 0 104 0 104 12 116 c 2,4,-1
 415 519 l 2,5,6
 450 554 450 554 500 554 c 128,-1,7
 550 554 550 554 585 519 c 2,8,-1
 988 116 l 2,9,10
 1000 104 1000 104 1000 87.5 c 128,-1,11
 1000 71 1000 71 988 59 c 128,-1,12
 976 47 976 47 959.5 47 c 128,-1,13
 943 47 943 47 931 59 c 2,14,-1
 528 462 l 2,15,16
 516 474 516 474 499.5 474 c 128,-1,17
 483 474 483 474 471 462 c 2,18,-1
 68 58 l 2,19,20
 57 47 57 47 40 47 c 0,0,1
EndSplineSet
Validated: 1
Ligature2: "'liga' Ligaduras est+AOEA-ndar en Latin b+APoA-squeda 0 subtabla" c h e v r o n underscore u p
EndChar

StartChar: chevron_down
Encoding: 57393 57393 111
Width: 1000
GlyphClass: 3
Flags: W
LayerCount: 2
Fore
SplineSet
500 47 m 0,0,1
 452 47 452 47 415 82 c 2,2,-1
 12 485 l 2,3,4
 0 497 0 497 0 513.5 c 128,-1,5
 0 530 0 530 12 542 c 128,-1,6
 24 554 24 554 40.5 554 c 128,-1,7
 57 554 57 554 69 542 c 2,8,-1
 472 139 l 2,9,10
 484 127 484 127 500.5 127 c 128,-1,11
 517 127 517 127 529 139 c 2,12,-1
 932 542 l 2,13,14
 944 554 944 554 960.5 554 c 128,-1,15
 977 554 977 554 989 542 c 128,-1,16
 1001 530 1001 530 1001 513.5 c 128,-1,17
 1001 497 1001 497 989 485 c 2,18,-1
 585 82 l 2,19,20
 550 47 550 47 500 47 c 0,0,1
EndSplineSet
Validated: 1
Ligature2: "'liga' Ligaduras est+AOEA-ndar en Latin b+APoA-squeda 0 subtabla" c h e v r o n underscore d o w n
EndChar

StartChar: chevron_right
Encoding: 57394 57394 112
Width: 515
GlyphClass: 3
Flags: W
LayerCount: 2
Fore
SplineSet
41 -200 m 128,-1,1
 25 -200 25 -200 13 -188 c 128,-1,2
 1 -176 1 -176 1 -159.5 c 128,-1,3
 1 -143 1 -143 13 -131 c 2,4,-1
 416 272 l 2,5,6
 428 284 428 284 428 300.5 c 128,-1,7
 428 317 428 317 416 329 c 2,8,-1
 12 732 l 2,9,10
 0 744 0 744 0 760.5 c 128,-1,11
 0 777 0 777 12 789 c 128,-1,12
 24 801 24 801 40.5 801 c 128,-1,13
 57 801 57 801 69 789 c 2,14,-1
 472 386 l 2,15,16
 507 351 507 351 507 301 c 128,-1,17
 507 251 507 251 472 216 c 2,18,-1
 69 -188 l 2,19,0
 57 -200 57 -200 41 -200 c 128,-1,1
EndSplineSet
Validated: 1
Ligature2: "'liga' Ligaduras est+AOEA-ndar en Latin b+APoA-squeda 0 subtabla" c h e v r o n underscore r i g h t
EndChar

StartChar: chevron_left
Encoding: 57395 57395 113
Width: 515
GlyphClass: 3
Flags: W
LayerCount: 2
Fore
SplineSet
466 -200 m 0,0,1
 450 -200 450 -200 438 -188 c 2,2,-1
 35 215 l 2,3,4
 0 250 0 250 0 300 c 128,-1,5
 0 350 0 350 35 385 c 2,6,-1
 438 788 l 2,7,8
 450 800 450 800 466.5 800 c 128,-1,9
 483 800 483 800 495 788 c 128,-1,10
 507 776 507 776 507 759.5 c 128,-1,11
 507 743 507 743 495 731 c 2,12,-1
 91 328 l 2,13,14
 79 316 79 316 79 299.5 c 128,-1,15
 79 283 79 283 91 271 c 2,16,-1
 494 -132 l 2,17,18
 506 -144 506 -144 506 -160.5 c 128,-1,19
 506 -177 506 -177 494 -189 c 0,20,21
 483 -200 483 -200 466 -200 c 0,0,1
EndSplineSet
Validated: 1
Ligature2: "'liga' Ligaduras est+AOEA-ndar en Latin b+APoA-squeda 0 subtabla" c h e v r o n underscore l e f t
EndChar

StartChar: trash
Encoding: 57396 57396 114
Width: 831
GlyphClass: 3
Flags: W
LayerCount: 2
Fore
SplineSet
520 398 m 128,-1,1
 504 398 504 398 492 386 c 128,-1,2
 480 374 480 374 480 358 c 2,3,-1
 480 85 l 2,4,5
 480 68 480 68 492 56.5 c 128,-1,6
 504 45 504 45 520 45 c 128,-1,7
 536 45 536 45 548 56.5 c 128,-1,8
 560 68 560 68 560 85 c 2,9,-1
 560 358 l 2,10,11
 560 374 560 374 548 386 c 128,-1,0
 536 398 536 398 520 398 c 128,-1,1
310 398 m 128,-1,13
 294 398 294 398 282 386 c 128,-1,14
 270 374 270 374 270 358 c 2,15,-1
 270 85 l 2,16,17
 270 68 270 68 282 56.5 c 128,-1,18
 294 45 294 45 310 45 c 128,-1,19
 326 45 326 45 338 56.5 c 128,-1,20
 350 68 350 68 350 85 c 2,21,-1
 350 358 l 2,22,23
 350 374 350 374 338 386 c 128,-1,12
 326 398 326 398 310 398 c 128,-1,13
790 643 m 2,24,-1
 759 643 l 1,25,-1
 595 643 l 1,26,-1
 595 680 l 2,27,28
 595 730 595 730 559.5 765 c 128,-1,29
 524 800 524 800 475 800 c 2,30,-1
 355 800 l 2,31,32
 306 800 306 800 270.5 765 c 128,-1,33
 235 730 235 730 235 680 c 2,34,-1
 235 643 l 1,35,-1
 71 643 l 1,36,-1
 40 643 l 2,37,38
 24 643 24 643 12 631.5 c 128,-1,39
 0 620 0 620 0 603 c 128,-1,40
 0 586 0 586 12 574.5 c 128,-1,41
 24 563 24 563 40 563 c 2,42,-1
 71 563 l 1,43,-1
 71 -80 l 2,44,45
 71 -130 71 -130 106.5 -165 c 128,-1,46
 142 -200 142 -200 191 -200 c 2,47,-1
 640 -200 l 2,48,49
 690 -200 690 -200 725 -165 c 128,-1,50
 760 -130 760 -130 760 -80 c 2,51,-1
 760 563 l 1,52,-1
 791 563 l 2,53,54
 808 563 808 563 819.5 574.5 c 128,-1,55
 831 586 831 586 831 603 c 128,-1,56
 831 620 831 620 819 631.5 c 128,-1,57
 807 643 807 643 790 643 c 2,24,-1
315 680 m 2,58,59
 315 696 315 696 326.5 708 c 128,-1,60
 338 720 338 720 355 720 c 2,61,-1
 475 720 l 2,62,63
 492 720 492 720 503.5 708 c 128,-1,64
 515 696 515 696 515 680 c 2,65,-1
 515 643 l 1,66,-1
 315 643 l 1,67,-1
 315 680 l 2,58,59
679 -80 m 2,68,69
 679 -96 679 -96 667.5 -108 c 128,-1,70
 656 -120 656 -120 639 -120 c 2,71,-1
 191 -120 l 2,72,73
 174 -120 174 -120 162.5 -108 c 128,-1,74
 151 -96 151 -96 151 -80 c 2,75,-1
 151 563 l 1,76,-1
 235 563 l 1,77,-1
 595 563 l 1,78,-1
 679 563 l 1,79,-1
 679 -80 l 2,68,69
EndSplineSet
Validated: 9
Ligature2: "'liga' Ligaduras est+AOEA-ndar en Latin b+APoA-squeda 0 subtabla" t r a s h
EndChar

StartChar: shopping_bag
Encoding: 57397 57397 115
Width: 727
GlyphClass: 3
Flags: W
LayerCount: 2
Fore
SplineSet
606 596 m 2,0,-1
 550 596 l 1,1,-1
 550 680 l 2,2,3
 550 730 550 730 515 765 c 128,-1,4
 480 800 480 800 430 800 c 2,5,-1
 306 800 l 2,6,7
 256 800 256 800 221 765 c 128,-1,8
 186 730 186 730 186 680 c 2,9,-1
 186 596 l 1,10,-1
 120 596 l 2,11,12
 70 596 70 596 35 561 c 128,-1,13
 0 526 0 526 0 476 c 2,14,-1
 0 -80 l 2,15,16
 0 -130 0 -130 35 -165 c 128,-1,17
 70 -200 70 -200 120 -200 c 2,18,-1
 607 -200 l 2,19,20
 656 -200 656 -200 691.5 -165 c 128,-1,21
 727 -130 727 -130 727 -80 c 2,22,-1
 727 476 l 2,23,24
 726 526 726 526 691 561 c 128,-1,25
 656 596 656 596 606 596 c 2,0,-1
266 680 m 2,26,27
 266 696 266 696 278 708 c 128,-1,28
 290 720 290 720 306 720 c 2,29,-1
 431 720 l 2,30,31
 448 720 448 720 459.5 708 c 128,-1,32
 471 696 471 696 471 680 c 2,33,-1
 471 596 l 1,34,-1
 266 596 l 1,35,-1
 266 680 l 2,26,27
646 -80 m 1,36,37
 646 -96 646 -96 634 -108 c 128,-1,38
 622 -120 622 -120 606 -120 c 2,39,-1
 120 -120 l 2,40,41
 104 -120 104 -120 92 -108 c 128,-1,42
 80 -96 80 -96 80 -80 c 2,43,-1
 80 476 l 2,44,45
 80 492 80 492 92 504 c 128,-1,46
 104 516 104 516 120 516 c 2,47,-1
 186 516 l 1,48,-1
 551 516 l 1,49,-1
 607 516 l 2,50,51
 624 516 624 516 635.5 504 c 128,-1,52
 647 492 647 492 647 476 c 2,53,-1
 647 -80 l 1,54,-1
 646 -80 l 1,36,37
EndSplineSet
Validated: 9
Ligature2: "'liga' Ligaduras est+AOEA-ndar en Latin b+APoA-squeda 0 subtabla" s h o p p i n g underscore b a g
EndChar

StartChar: search
Encoding: 57398 57398 116
Width: 1000
GlyphClass: 3
Flags: W
LayerCount: 2
Fore
SplineSet
986 -130 m 2,0,-1
 679 177 l 1,1,2
 764 283 764 283 764 417 c 0,3,4
 765 575 765 575 652.5 687.5 c 128,-1,5
 540 800 540 800 382 800 c 128,-1,6
 224 800 224 800 112 688 c 128,-1,7
 0 576 0 576 0 418 c 128,-1,8
 0 260 0 260 112 148 c 128,-1,9
 224 36 224 36 382 36 c 0,10,11
 518 36 518 36 622 121 c 1,12,-1
 930 -186 l 2,13,14
 942 -198 942 -198 958 -198 c 128,-1,15
 974 -198 974 -198 986 -186 c 0,16,17
 998 -175 998 -175 998 -158 c 128,-1,18
 998 -141 998 -141 986 -130 c 2,0,-1
80 418 m 0,19,20
 80 542 80 542 169 631 c 128,-1,21
 258 720 258 720 382 720 c 128,-1,22
 506 720 506 720 595 631 c 128,-1,23
 684 542 684 542 684 418 c 0,24,25
 684 293 684 293 595.5 204 c 128,-1,26
 507 115 507 115 382 115 c 128,-1,27
 257 115 257 115 168.5 204 c 128,-1,28
 80 293 80 293 80 418 c 0,19,20
EndSplineSet
Validated: 41
Ligature2: "'liga' Ligaduras est+AOEA-ndar en Latin b+APoA-squeda 0 subtabla" s e a r c h
EndChar

StartChar: room
Encoding: 57399 57399 117
Width: 894
GlyphClass: 3
Flags: W
LayerCount: 2
Fore
SplineSet
836 594 m 2,0,-1
 507 784 l 2,1,2
 447 818 447 818 387 784 c 2,3,-1
 58 594 l 2,4,5
 30 578 30 578 14 550 c 128,-1,6
 -2 522 -2 522 -2 490 c 2,7,-1
 -2 110 l 2,8,9
 -2 78 -2 78 14 50 c 128,-1,10
 30 22 30 22 58 6 c 2,11,-1
 387 -184 l 2,12,13
 415 -200 415 -200 447 -200 c 128,-1,14
 479 -200 479 -200 507 -184 c 2,15,-1
 836 6 l 2,16,17
 864 22 864 22 880 50 c 128,-1,18
 896 78 896 78 896 110 c 2,19,-1
 896 490 l 2,20,21
 896 522 896 522 880 550 c 128,-1,22
 864 578 864 578 836 594 c 2,0,-1
796 525 m 2,23,24
 816 513 816 513 816 490 c 2,25,-1
 816 133 l 1,26,-1
 487 323 l 1,27,-1
 487 703 l 1,28,-1
 796 525 l 2,23,24
98 525 m 2,29,-1
 407 703 l 1,30,-1
 407 323 l 1,31,-1
 78 133 l 1,32,-1
 78 490 l 2,33,34
 78 513 78 513 98 525 c 2,29,-1
467 -115 m 2,35,36
 447 -127 447 -127 427 -115 c 2,37,-1
 118 64 l 1,38,-1
 447 254 l 1,39,-1
 776 64 l 1,40,-1
 467 -115 l 2,35,36
EndSplineSet
Validated: 41
Ligature2: "'liga' Ligaduras est+AOEA-ndar en Latin b+APoA-squeda 0 subtabla" r o o m
EndChar

StartChar: notification
Encoding: 57400 57400 118
Width: 1000
GlyphClass: 3
Flags: W
LayerCount: 2
Fore
SplineSet
500 -200 m 128,-1,1
 364 -200 364 -200 249 -133 c 128,-1,2
 134 -66 134 -66 67 49 c 128,-1,3
 0 164 0 164 0 300 c 128,-1,4
 0 436 0 436 67 551 c 128,-1,5
 134 666 134 666 249 733 c 128,-1,6
 364 800 364 800 500 800 c 128,-1,7
 636 800 636 800 751 733 c 128,-1,8
 866 666 866 666 933 551 c 128,-1,9
 1000 436 1000 436 1000 300 c 128,-1,10
 1000 164 1000 164 933 49 c 128,-1,11
 866 -66 866 -66 751 -133 c 128,-1,0
 636 -200 636 -200 500 -200 c 128,-1,1
500 720 m 128,-1,13
 326 720 326 720 203 597 c 128,-1,14
 80 474 80 474 80 300 c 128,-1,15
 80 126 80 126 203 3 c 128,-1,16
 326 -120 326 -120 500 -120 c 128,-1,17
 674 -120 674 -120 797 3 c 128,-1,18
 920 126 920 126 920 300 c 128,-1,19
 920 474 920 474 797 597 c 128,-1,12
 674 720 674 720 500 720 c 128,-1,13
500 198 m 128,-1,21
 484 198 484 198 472 210 c 128,-1,22
 460 222 460 222 460 238 c 2,23,-1
 460 498 l 2,24,25
 460 514 460 514 472 526 c 128,-1,26
 484 538 484 538 500 538 c 128,-1,27
 516 538 516 538 528 526 c 128,-1,28
 540 514 540 514 540 498 c 2,29,-1
 540 238 l 2,30,31
 540 222 540 222 528 210 c 128,-1,20
 516 198 516 198 500 198 c 128,-1,21
460 85 m 128,-1,33
 460 68 460 68 471.5 56.5 c 128,-1,34
 483 45 483 45 500 45 c 128,-1,35
 517 45 517 45 528.5 56.5 c 128,-1,36
 540 68 540 68 540 85 c 128,-1,37
 540 102 540 102 528.5 113.5 c 128,-1,38
 517 125 517 125 500 125 c 128,-1,39
 483 125 483 125 471.5 113.5 c 128,-1,32
 460 102 460 102 460 85 c 128,-1,33
EndSplineSet
Validated: 9
Ligature2: "'liga' Ligaduras est+AOEA-ndar en Latin b+APoA-squeda 0 subtabla" n o t i f i c a t i o n
EndChar

StartChar: notification_alt
Encoding: 57401 57401 119
Width: 960
GlyphClass: 3
Flags: W
LayerCount: 2
Fore
SplineSet
480.5 200 m 128,-1,1
 464 200 464 200 452 212 c 128,-1,2
 440 224 440 224 440 240 c 2,3,-1
 440 500 l 2,4,5
 440 516 440 516 452 528 c 128,-1,6
 464 540 464 540 480.5 540 c 128,-1,7
 497 540 497 540 508.5 528 c 128,-1,8
 520 516 520 516 520 500 c 2,9,-1
 520 240 l 2,10,11
 520 224 520 224 508.5 212 c 128,-1,0
 497 200 497 200 480.5 200 c 128,-1,1
440 87 m 128,-1,13
 440 70 440 70 452 58.5 c 128,-1,14
 464 47 464 47 480.5 47 c 128,-1,15
 497 47 497 47 508.5 58.5 c 128,-1,16
 520 70 520 70 520 87 c 128,-1,17
 520 104 520 104 508.5 115.5 c 128,-1,18
 497 127 497 127 480.5 127 c 128,-1,19
 464 127 464 127 452 115.5 c 128,-1,12
 440 104 440 104 440 87 c 128,-1,13
480 -200 m 0,20,21
 440 -200 440 -200 406 -174 c 2,22,-1
 354 -133 l 2,23,24
 344 -124 344 -124 328 -124 c 2,25,-1
 262 -126 l 2,26,27
 221 -128 221 -128 187.5 -103.5 c 128,-1,28
 154 -79 154 -79 142 -39 c 2,29,-1
 124 25 l 2,30,31
 119 40 119 40 108 47 c 2,32,-1
 53 84 l 2,33,34
 19 107 19 107 6 146.5 c 128,-1,35
 -7 186 -7 186 7 225 c 2,36,-1
 30 287 l 2,37,38
 35 301 35 301 30 315 c 2,39,-1
 7 377 l 2,40,41
 -7 416 -7 416 6 455.5 c 128,-1,42
 19 495 19 495 53 518 c 2,43,-1
 108 555 l 2,44,45
 121 563 121 563 124 577 c 2,46,-1
 142 641 l 2,47,48
 154 681 154 681 187 705 c 128,-1,49
 220 729 220 729 262 728 c 2,50,-1
 328 726 l 2,51,52
 344 726 344 726 354 735 c 2,53,-1
 406 776 l 2,54,55
 439 801 439 801 480 800.5 c 128,-1,56
 521 800 521 800 554 774 c 2,57,-1
 606 733 l 2,58,59
 617 724 617 724 632 724 c 2,60,-1
 698 726 l 2,61,62
 740 727 740 727 773.5 703 c 128,-1,63
 807 679 807 679 818 639 c 2,64,-1
 836 575 l 2,65,66
 841 560 841 560 852 553 c 2,67,-1
 907 516 l 2,68,69
 942 493 942 493 955 453.5 c 128,-1,70
 968 414 968 414 953 375 c 2,71,-1
 930 313 l 2,72,73
 926 299 926 299 930 285 c 2,74,-1
 953 223 l 2,75,76
 968 184 968 184 955 144.5 c 128,-1,77
 942 105 942 105 907 82 c 2,78,-1
 852 45 l 2,79,80
 839 37 839 37 836 23 c 2,81,-1
 819 -40 l 2,82,83
 808 -79 808 -79 776 -103 c 128,-1,84
 744 -127 744 -127 704 -127 c 2,85,-1
 699 -127 l 1,86,-1
 633 -125 l 2,87,88
 618 -125 618 -125 607 -134 c 2,89,-1
 555 -175 l 2,90,91
 521 -200 521 -200 480 -200 c 0,20,21
329 -45 m 0,92,93
 371 -45 371 -45 403 -71 c 2,94,-1
 455 -112 l 2,95,96
 467 -120 467 -120 480.5 -120 c 128,-1,97
 494 -120 494 -120 504 -112 c 2,98,-1
 556 -71 l 2,99,100
 590 -43 590 -43 635 -45 c 2,101,-1
 701 -47 l 2,102,103
 715 -48 715 -48 726.5 -40 c 128,-1,104
 738 -32 738 -32 741 -18 c 2,105,-1
 759 46 l 2,106,107
 772 89 772 89 808 113 c 2,108,-1
 863 150 l 2,109,110
 875 158 875 158 879 171 c 128,-1,111
 883 184 883 184 878 197 c 2,112,-1
 855 259 l 2,113,114
 848 279 848 279 848 300.5 c 128,-1,115
 848 322 848 322 855 342 c 2,116,-1
 878 404 l 2,117,118
 883 417 883 417 878.5 430.5 c 128,-1,119
 874 444 874 444 863 451 c 2,120,-1
 808 488 l 2,121,122
 772 512 772 512 759 555 c 2,123,-1
 741 619 l 2,124,125
 738 632 738 632 726.5 640.5 c 128,-1,126
 715 649 715 649 701 648 c 2,127,-1
 635 646 l 2,128,129
 592 644 592 644 556 672 c 2,130,-1
 504 713 l 2,131,132
 493 721 493 721 479.5 721 c 128,-1,133
 466 721 466 721 455 713 c 2,134,-1
 403 670 l 2,135,136
 370 642 370 642 324 644 c 2,137,-1
 258 646 l 2,138,139
 245 647 245 647 233.5 638.5 c 128,-1,140
 222 630 222 630 218 617 c 2,141,-1
 200 554 l 2,142,143
 188 511 188 511 151 487 c 2,144,-1
 96 450 l 2,145,146
 85 442 85 442 80.5 429 c 128,-1,147
 76 416 76 416 81 403 c 2,148,-1
 104 341 l 2,149,150
 120 300 120 300 104 258 c 2,151,-1
 81 196 l 2,152,153
 77 183 77 183 81 169.5 c 128,-1,154
 85 156 85 156 96 149 c 2,155,-1
 151 112 l 2,156,157
 188 88 188 88 200 45 c 2,158,-1
 218 -19 l 2,159,160
 222 -33 222 -33 233 -41 c 128,-1,161
 244 -49 244 -49 258 -48 c 2,162,-1
 324 -46 l 2,163,164
 326 -45 326 -45 329 -45 c 0,92,93
EndSplineSet
Validated: 41
Ligature2: "'liga' Ligaduras est+AOEA-ndar en Latin b+APoA-squeda 0 subtabla" n o t i f i c a t i o n underscore a l t
EndChar

StartChar: bell
Encoding: 57402 57402 120
Width: 1000
GlyphClass: 3
Flags: W
LayerCount: 2
Fore
SplineSet
960 15 m 2,0,-1
 861 15 l 1,1,-1
 861 269 l 2,2,3
 861 387 861 387 792.5 481 c 128,-1,4
 724 575 724 575 615 611 c 1,5,-1
 615 685 l 2,6,7
 615 732 615 732 581 766 c 128,-1,8
 547 800 547 800 500 800 c 128,-1,9
 453 800 453 800 419 766 c 128,-1,10
 385 732 385 732 385 685 c 2,11,-1
 385 611 l 1,12,13
 276 575 276 575 207.5 481 c 128,-1,14
 139 387 139 387 139 269 c 2,15,-1
 139 15 l 1,16,-1
 40 15 l 2,17,18
 24 15 24 15 12 3.5 c 128,-1,19
 0 -8 0 -8 0 -25 c 128,-1,20
 0 -42 0 -42 12 -53.5 c 128,-1,21
 24 -65 24 -65 40 -65 c 2,22,-1
 139 -65 l 1,23,-1
 330 -65 l 1,24,25
 344 -123 344 -123 391 -161.5 c 128,-1,26
 438 -200 438 -200 500 -200 c 128,-1,27
 562 -200 562 -200 609 -161.5 c 128,-1,28
 656 -123 656 -123 670 -65 c 1,29,-1
 861 -65 l 1,30,-1
 960 -65 l 2,31,32
 976 -65 976 -65 988 -53.5 c 128,-1,33
 1000 -42 1000 -42 1000 -25 c 128,-1,34
 1000 -8 1000 -8 988 3.5 c 128,-1,35
 976 15 976 15 960 15 c 2,0,-1
465 685 m 2,36,37
 465 699 465 699 475.5 709.5 c 128,-1,38
 486 720 486 720 500 720 c 128,-1,39
 514 720 514 720 524.5 709.5 c 128,-1,40
 535 699 535 699 535 685 c 2,41,-1
 535 628 l 1,42,43
 511 630 511 630 500 630 c 128,-1,44
 489 630 489 630 465 628 c 1,45,-1
 465 685 l 2,36,37
500 -120 m 128,-1,47
 472 -120 472 -120 448.5 -104.5 c 128,-1,48
 425 -89 425 -89 414 -65 c 1,49,-1
 586 -65 l 1,50,51
 575 -89 575 -89 551.5 -104.5 c 128,-1,46
 528 -120 528 -120 500 -120 c 128,-1,47
219 15 m 1,52,-1
 219 269 l 2,53,54
 219 385 219 385 301.5 467.5 c 128,-1,55
 384 550 384 550 500 550 c 128,-1,56
 616 550 616 550 698.5 467.5 c 128,-1,57
 781 385 781 385 781 269 c 2,58,-1
 781 15 l 1,59,-1
 219 15 l 1,52,-1
EndSplineSet
Validated: 9
Ligature2: "'liga' Ligaduras est+AOEA-ndar en Latin b+APoA-squeda 0 subtabla" b e l l
EndChar

StartChar: home
Encoding: 57403 57403 121
Width: 870
GlyphClass: 3
Flags: W
LayerCount: 2
Fore
SplineSet
750 -200 m 2,0,-1
 120 -200 l 2,1,2
 70 -200 70 -200 35 -165 c 128,-1,3
 0 -130 0 -130 0 -80 c 2,4,-1
 0 352 l 2,5,6
 0 401 0 401 34 435 c 2,7,-1
 349 763 l 2,8,9
 383 800 383 800 435 800 c 128,-1,10
 487 800 487 800 521 763 c 2,11,-1
 836 435 l 2,12,13
 870 401 870 401 870 352 c 2,14,-1
 870 -80 l 2,15,16
 870 -130 870 -130 835 -165 c 128,-1,17
 800 -200 800 -200 750 -200 c 2,0,-1
435 720 m 128,-1,19
 418 720 418 720 406 708 c 2,20,-1
 91 380 l 2,21,22
 80 369 80 369 80 352 c 2,23,-1
 80 -80 l 2,24,25
 80 -96 80 -96 92 -108 c 128,-1,26
 104 -120 104 -120 120 -120 c 2,27,-1
 751 -120 l 2,28,29
 768 -120 768 -120 779.5 -108 c 128,-1,30
 791 -96 791 -96 791 -80 c 2,31,-1
 791 352 l 2,32,33
 791 367 791 367 780 380 c 2,34,-1
 464 708 l 2,35,18
 452 720 452 720 435 720 c 128,-1,19
EndSplineSet
Validated: 1
Ligature2: "'liga' Ligaduras est+AOEA-ndar en Latin b+APoA-squeda 0 subtabla" h o m e
EndChar

StartChar: repeat
Encoding: 57404 57404 122
Width: 1000
GlyphClass: 3
Flags: W
LayerCount: 2
Fore
SplineSet
880 576 m 2,0,-1
 486 576 l 2,1,2
 470 576 470 576 458 564 c 128,-1,3
 446 552 446 552 446 536 c 128,-1,4
 446 520 446 520 458 508 c 128,-1,5
 470 496 470 496 486 496 c 2,6,-1
 880 496 l 2,7,8
 896 496 896 496 908 484 c 128,-1,9
 920 472 920 472 920 456 c 2,10,-1
 920 144 l 2,11,12
 920 128 920 128 908 116 c 128,-1,13
 896 104 896 104 880 104 c 2,14,-1
 735 104 l 1,15,-1
 802 171 l 2,16,17
 814 183 814 183 814 199.5 c 128,-1,18
 814 216 814 216 802 228 c 128,-1,19
 790 240 790 240 773.5 240 c 128,-1,20
 757 240 757 240 745 228 c 2,21,-1
 666 149 l 2,22,23
 631 114 631 114 631 64 c 128,-1,24
 631 14 631 14 666 -21 c 2,25,-1
 745 -100 l 2,26,27
 757 -112 757 -112 773 -112 c 128,-1,28
 789 -112 789 -112 801 -100 c 128,-1,29
 813 -88 813 -88 813 -71.5 c 128,-1,30
 813 -55 813 -55 801 -43 c 2,31,-1
 734 24 l 1,32,-1
 880 24 l 2,33,34
 930 24 930 24 965 59 c 128,-1,35
 1000 94 1000 94 1000 144 c 2,36,-1
 1000 456 l 2,37,38
 1000 506 1000 506 965 541 c 128,-1,39
 930 576 930 576 880 576 c 2,0,-1
515 104 m 2,40,-1
 120 104 l 2,41,42
 104 104 104 104 92 116 c 128,-1,43
 80 128 80 128 80 144 c 2,44,-1
 80 456 l 2,45,46
 80 472 80 472 92 484 c 128,-1,47
 104 496 104 496 120 496 c 2,48,-1
 266 496 l 1,49,-1
 199 429 l 2,50,51
 187 417 187 417 187 400.5 c 128,-1,52
 187 384 187 384 199 372 c 128,-1,53
 211 360 211 360 227 360 c 128,-1,54
 243 360 243 360 255 372 c 2,55,-1
 334 451 l 2,56,57
 369 486 369 486 369 535 c 2,58,-1
 369 536 l 1,59,-1
 369 537 l 2,60,61
 369 586 369 586 334 621 c 2,62,-1
 255 700 l 2,63,64
 243 712 243 712 226.5 712 c 128,-1,65
 210 712 210 712 198 700 c 128,-1,66
 186 688 186 688 186 671.5 c 128,-1,67
 186 655 186 655 198 643 c 2,68,-1
 265 576 l 1,69,-1
 120 576 l 2,70,71
 70 576 70 576 35 541 c 128,-1,72
 0 506 0 506 0 456 c 2,73,-1
 0 144 l 2,74,75
 0 94 0 94 35 59 c 128,-1,76
 70 24 70 24 120 24 c 2,77,-1
 515 24 l 2,78,79
 532 24 532 24 543.5 36 c 128,-1,80
 555 48 555 48 555 64 c 128,-1,81
 555 80 555 80 543.5 92 c 128,-1,82
 532 104 532 104 515 104 c 2,40,-1
EndSplineSet
Validated: 9
Ligature2: "'liga' Ligaduras est+AOEA-ndar en Latin b+APoA-squeda 0 subtabla" r e p e a t
EndChar

StartChar: repeat_once
Encoding: 57405 57405 123
Width: 1000
GlyphClass: 3
Flags: W
LayerCount: 2
Fore
SplineSet
550 244 m 2,0,-1
 540 244 l 1,1,-1
 540 396 l 2,2,3
 540 412 540 412 528 424 c 128,-1,4
 516 436 516 436 500 436 c 2,5,-1
 450 436 l 2,6,7
 434 436 434 436 422 424 c 128,-1,8
 410 412 410 412 410 396 c 128,-1,9
 410 380 410 380 422 368 c 128,-1,10
 434 356 434 356 450 356 c 2,11,-1
 460 356 l 1,12,-1
 460 244 l 1,13,-1
 450 244 l 2,14,15
 434 244 434 244 422 232 c 128,-1,16
 410 220 410 220 410 204 c 128,-1,17
 410 188 410 188 422 176 c 128,-1,18
 434 164 434 164 450 164 c 2,19,-1
 550 164 l 2,20,21
 566 164 566 164 578 176 c 128,-1,22
 590 188 590 188 590 204 c 128,-1,23
 590 220 590 220 578 232 c 128,-1,24
 566 244 566 244 550 244 c 2,0,-1
880 576 m 2,25,-1
 486 576 l 2,26,27
 470 576 470 576 458 564 c 128,-1,28
 446 552 446 552 446 536 c 128,-1,29
 446 520 446 520 458 508 c 128,-1,30
 470 496 470 496 486 496 c 2,31,-1
 880 496 l 2,32,33
 896 496 896 496 908 484 c 128,-1,34
 920 472 920 472 920 456 c 2,35,-1
 920 144 l 2,36,37
 920 128 920 128 908 116 c 128,-1,38
 896 104 896 104 880 104 c 2,39,-1
 735 104 l 1,40,-1
 802 171 l 2,41,42
 814 183 814 183 814 199.5 c 128,-1,43
 814 216 814 216 802 228 c 128,-1,44
 790 240 790 240 773.5 240 c 128,-1,45
 757 240 757 240 745 228 c 2,46,-1
 666 149 l 2,47,48
 631 114 631 114 631 64 c 128,-1,49
 631 14 631 14 666 -21 c 2,50,-1
 745 -100 l 2,51,52
 757 -112 757 -112 773 -112 c 128,-1,53
 789 -112 789 -112 801 -100 c 128,-1,54
 813 -88 813 -88 813 -71.5 c 128,-1,55
 813 -55 813 -55 801 -43 c 2,56,-1
 734 24 l 1,57,-1
 880 24 l 2,58,59
 930 24 930 24 965 59 c 128,-1,60
 1000 94 1000 94 1000 144 c 2,61,-1
 1000 456 l 2,62,63
 1000 506 1000 506 965 541 c 128,-1,64
 930 576 930 576 880 576 c 2,25,-1
515 104 m 2,65,-1
 120 104 l 2,66,67
 104 104 104 104 92 116 c 128,-1,68
 80 128 80 128 80 144 c 2,69,-1
 80 456 l 2,70,71
 80 472 80 472 92 484 c 128,-1,72
 104 496 104 496 120 496 c 2,73,-1
 266 496 l 1,74,-1
 199 429 l 2,75,76
 187 417 187 417 187 400.5 c 128,-1,77
 187 384 187 384 199 372 c 128,-1,78
 211 360 211 360 227 360 c 128,-1,79
 243 360 243 360 255 372 c 2,80,-1
 334 451 l 2,81,82
 369 486 369 486 369 535 c 2,83,-1
 369 536 l 1,84,-1
 369 537 l 2,85,86
 369 586 369 586 334 621 c 2,87,-1
 255 700 l 2,88,89
 243 712 243 712 226.5 712 c 128,-1,90
 210 712 210 712 198 700 c 128,-1,91
 186 688 186 688 186 671.5 c 128,-1,92
 186 655 186 655 198 643 c 2,93,-1
 265 576 l 1,94,-1
 120 576 l 2,95,96
 70 576 70 576 35 541 c 128,-1,97
 0 506 0 506 0 456 c 2,98,-1
 0 144 l 2,99,100
 0 94 0 94 35 59 c 128,-1,101
 70 24 70 24 120 24 c 2,102,-1
 515 24 l 2,103,104
 532 24 532 24 543.5 36 c 128,-1,105
 555 48 555 48 555 64 c 128,-1,106
 555 80 555 80 543.5 92 c 128,-1,107
 532 104 532 104 515 104 c 2,65,-1
EndSplineSet
Validated: 9
Ligature2: "'liga' Ligaduras est+AOEA-ndar en Latin b+APoA-squeda 0 subtabla" r e p e a t underscore o n c e
EndChar

StartChar: skip_next
Encoding: 57406 57406 124
Width: 895
GlyphClass: 3
Flags: W
LayerCount: 2
Fore
SplineSet
855 800 m 128,-1,1
 838 800 838 800 826.5 788 c 128,-1,2
 815 776 815 776 815 760 c 2,3,-1
 815 416 l 1,4,-1
 180 784 l 2,5,6
 120 819 120 819 60 784 c 128,-1,7
 0 749 0 749 0 680 c 2,8,-1
 0 -80 l 2,9,10
 0 -149 0 -149 60 -184 c 0,11,12
 88 -200 88 -200 120 -200 c 128,-1,13
 152 -200 152 -200 180 -184 c 2,14,-1
 815 184 l 1,15,-1
 815 -160 l 2,16,17
 815 -176 815 -176 826.5 -188 c 128,-1,18
 838 -200 838 -200 855 -200 c 128,-1,19
 872 -200 872 -200 883.5 -188 c 128,-1,20
 895 -176 895 -176 895 -160 c 2,21,-1
 895 760 l 2,22,23
 895 776 895 776 883.5 788 c 128,-1,0
 872 800 872 800 855 800 c 128,-1,1
795 265 m 2,24,-1
 140 -115 l 2,25,26
 118 -127 118 -127 100 -115 c 0,27,28
 80 -105 80 -105 80 -80 c 2,29,-1
 80 680 l 2,30,31
 80 702 80 702 100 715 c 0,32,33
 110 720 110 720 120 720 c 0,34,35
 132 720 132 720 140 714 c 2,36,-1
 795 334 l 2,37,38
 815 323 815 323 815 299 c 0,39,40
 815 277 815 277 795 265 c 2,24,-1
EndSplineSet
Validated: 41
Ligature2: "'liga' Ligaduras est+AOEA-ndar en Latin b+APoA-squeda 0 subtabla" s k i p underscore n e x t
EndChar

StartChar: skip_previous
Encoding: 57407 57407 125
Width: 895
GlyphClass: 3
Flags: W
LayerCount: 2
Fore
SplineSet
835 784 m 0,0,1
 774 819 774 819 715 784 c 2,2,-1
 80 416 l 1,3,-1
 80 760 l 2,4,5
 80 776 80 776 68 788 c 128,-1,6
 56 800 56 800 40 800 c 128,-1,7
 24 800 24 800 12 788 c 128,-1,8
 0 776 0 776 0 760 c 2,9,-1
 0 -160 l 2,10,11
 0 -176 0 -176 12 -188 c 128,-1,12
 24 -200 24 -200 40 -200 c 128,-1,13
 56 -200 56 -200 68 -188 c 128,-1,14
 80 -176 80 -176 80 -160 c 2,15,-1
 80 184 l 1,16,-1
 715 -184 l 2,17,18
 743 -200 743 -200 775 -200 c 128,-1,19
 807 -200 807 -200 835 -184 c 0,20,21
 895 -149 895 -149 895 -80 c 2,22,-1
 895 680 l 2,23,24
 897 748 897 748 835 784 c 0,0,1
816 -80 m 2,25,26
 816 -102 816 -102 796 -115 c 0,27,28
 775 -126 775 -126 756 -115 c 2,29,-1
 101 265 l 2,30,31
 81 276 81 276 81 300 c 0,32,33
 81 323 81 323 101 335 c 2,34,-1
 756 715 l 2,35,36
 778 727 778 727 796 715 c 0,37,38
 816 702 816 702 816 680 c 2,39,-1
 816 -80 l 2,25,26
EndSplineSet
Validated: 41
Ligature2: "'liga' Ligaduras est+AOEA-ndar en Latin b+APoA-squeda 0 subtabla" s k i p underscore p r e v i o u s
EndChar

StartChar: volume_mute
Encoding: 57408 57408 126
Width: 969
GlyphClass: 3
Flags: W
LayerCount: 2
Fore
SplineSet
470 485 m 1,0,-1
 611 609 l 2,1,2
 631 627 631 627 654 615 c 0,3,4
 678 603 678 603 678 579 c 2,5,-1
 678 278 l 1,6,-1
 758 198 l 1,7,-1
 758 579 l 2,8,9
 758 615 758 615 739 644.5 c 128,-1,10
 720 674 720 674 687 688 c 0,11,12
 655 703 655 703 620 697.5 c 128,-1,13
 585 692 585 692 558 669 c 2,14,-1
 413 542 l 1,15,-1
 470 485 l 1,0,-1
957 -116 m 2,16,-1
 757 84 l 1,17,-1
 677 164 l 1,18,-1
 405 437 l 1,19,20
 405 437 405 437 334 508 c 2,21,-1
 69 772 l 2,22,23
 57 784 57 784 40.5 784 c 128,-1,24
 24 784 24 784 12 772 c 128,-1,25
 0 760 0 760 0 743.5 c 128,-1,26
 0 727 0 727 12 715 c 2,27,-1
 238 489 l 1,28,29
 181 454 181 454 181 387 c 2,30,-1
 181 243 l 2,31,32
 181 194 181 194 216.5 158.5 c 128,-1,33
 252 123 252 123 301 123 c 2,34,-1
 358 123 l 2,35,36
 372 123 372 123 384 113 c 2,37,-1
 557 -39 l 2,38,39
 592 -69 592 -69 636 -69 c 0,40,41
 661 -69 661 -69 686 -58 c 0,42,43
 719 -44 719 -44 739 -12 c 1,44,-1
 900 -173 l 2,45,46
 912 -185 912 -185 928 -185 c 128,-1,47
 944 -185 944 -185 956 -173 c 0,48,49
 969 -160 969 -160 969 -143.5 c 128,-1,50
 969 -127 969 -127 957 -116 c 2,16,-1
653 15 m 0,51,52
 627 6 627 6 610 21 c 2,53,-1
 438 174 l 2,54,55
 403 204 403 204 359 204 c 2,56,-1
 302 204 l 2,57,58
 286 204 286 204 274 216 c 128,-1,59
 262 228 262 228 262 244 c 2,60,-1
 262 388 l 2,61,62
 262 404 262 404 273 415.5 c 128,-1,63
 284 427 284 427 301 428 c 1,64,-1
 677 52 l 1,65,66
 677 27 677 27 653 15 c 0,51,52
EndSplineSet
Validated: 41
Ligature2: "'liga' Ligaduras est+AOEA-ndar en Latin b+APoA-squeda 0 subtabla" v o l u m e underscore m u t e
Ligature2: "'liga' Ligaduras est+AOEA-ndar en Latin b+APoA-squeda 0 subtabla" v o l u m e underscore d i s a b l e d
Ligature2: "'liga' Ligaduras est+AOEA-ndar en Latin b+APoA-squeda 0 subtabla" m u t e
EndChar

StartChar: volume_low
Encoding: 57409 57409 127
Width: 740
GlyphClass: 3
Flags: W
LayerCount: 2
Fore
SplineSet
454 -84 m 0,0,1
 410 -84 410 -84 375 -54 c 2,2,-1
 203 98 l 2,3,4
 191 108 191 108 177 108 c 2,5,-1
 120 108 l 2,6,7
 70 108 70 108 35 143 c 128,-1,8
 0 178 0 178 0 228 c 2,9,-1
 0 372 l 2,10,11
 0 422 0 422 35 457 c 128,-1,12
 70 492 70 492 120 492 c 2,13,-1
 177 492 l 2,14,15
 191 492 191 492 203 502 c 2,16,-1
 376 654 l 2,17,18
 434 705 434 705 505 673 c 0,19,20
 538 658 538 658 557 628.5 c 128,-1,21
 576 599 576 599 576 564 c 2,22,-1
 576 37 l 2,23,24
 576 1 576 1 557 -28.5 c 128,-1,25
 538 -58 538 -58 505 -72 c 0,26,27
 480 -84 480 -84 454 -84 c 0,0,1
120 412 m 2,28,29
 104 412 104 412 92 400 c 128,-1,30
 80 388 80 388 80 372 c 2,31,-1
 80 228 l 2,32,33
 80 212 80 212 92 200 c 128,-1,34
 104 188 104 188 120 188 c 2,35,-1
 177 188 l 2,36,37
 221 188 221 188 256 158 c 2,38,-1
 429 6 l 2,39,40
 449 -12 449 -12 472 0 c 1,41,42
 496 8 496 8 496 36 c 2,43,-1
 496 564 l 2,44,45
 496 592 496 592 472 600 c 0,46,47
 446 609 446 609 429 594 c 2,48,-1
 256 442 l 2,49,50
 221 412 221 412 177 412 c 2,51,-1
 120 412 l 2,28,29
665 177 m 128,-1,53
 649 177 649 177 637 189 c 128,-1,54
 625 201 625 201 625 217.5 c 128,-1,55
 625 234 625 234 637 246 c 0,56,57
 660 268 660 268 660 300 c 128,-1,58
 660 332 660 332 637 355 c 0,59,60
 625 367 625 367 625 383.5 c 128,-1,61
 625 400 625 400 637 412 c 128,-1,62
 649 424 649 424 665.5 424 c 128,-1,63
 682 424 682 424 694 412 c 0,64,65
 740 366 740 366 740 301 c 128,-1,66
 740 236 740 236 694 190 c 0,67,52
 681 177 681 177 665 177 c 128,-1,53
EndSplineSet
Validated: 33
Ligature2: "'liga' Ligaduras est+AOEA-ndar en Latin b+APoA-squeda 0 subtabla" v o l u m e underscore l o w
EndChar

StartChar: volume_mid
Encoding: 57410 57410 128
Width: 856
GlyphClass: 3
Flags: W
LayerCount: 2
Fore
SplineSet
454 -84 m 0,0,1
 410 -84 410 -84 375 -54 c 2,2,-1
 203 98 l 2,3,4
 191 108 191 108 177 108 c 2,5,-1
 120 108 l 2,6,7
 70 108 70 108 35 143 c 128,-1,8
 0 178 0 178 0 228 c 2,9,-1
 0 372 l 2,10,11
 0 422 0 422 35 457 c 128,-1,12
 70 492 70 492 120 492 c 2,13,-1
 177 492 l 2,14,15
 191 492 191 492 203 502 c 2,16,-1
 376 654 l 2,17,18
 434 705 434 705 505 673 c 0,19,20
 538 658 538 658 557 628.5 c 128,-1,21
 576 599 576 599 576 564 c 2,22,-1
 576 37 l 2,23,24
 576 1 576 1 557 -28.5 c 128,-1,25
 538 -58 538 -58 505 -72 c 0,26,27
 480 -84 480 -84 454 -84 c 0,0,1
120 412 m 2,28,29
 104 412 104 412 92 400 c 128,-1,30
 80 388 80 388 80 372 c 2,31,-1
 80 228 l 2,32,33
 80 212 80 212 92 200 c 128,-1,34
 104 188 104 188 120 188 c 2,35,-1
 177 188 l 2,36,37
 221 188 221 188 256 158 c 2,38,-1
 429 6 l 2,39,40
 449 -12 449 -12 472 0 c 1,41,42
 496 8 496 8 496 36 c 2,43,-1
 496 564 l 2,44,45
 496 592 496 592 472 600 c 0,46,47
 446 609 446 609 429 594 c 2,48,-1
 256 442 l 2,49,50
 221 412 221 412 177 412 c 2,51,-1
 120 412 l 2,28,29
760 95 m 0,52,53
 744 95 744 95 732 107 c 128,-1,54
 720 119 720 119 720 135.5 c 128,-1,55
 720 152 720 152 732 164 c 0,56,57
 789 221 789 221 789 301 c 0,58,59
 789 383 789 383 732 438 c 0,60,61
 720 450 720 450 720 466.5 c 128,-1,62
 720 483 720 483 732 495 c 128,-1,63
 744 507 744 507 760.5 507 c 128,-1,64
 777 507 777 507 789 495 c 0,65,66
 869 415 869 415 869 301 c 128,-1,67
 869 187 869 187 789 107 c 0,68,69
 778 95 778 95 760 95 c 0,52,53
665 177 m 128,-1,71
 649 177 649 177 637 189 c 128,-1,72
 625 201 625 201 625 217.5 c 128,-1,73
 625 234 625 234 637 246 c 0,74,75
 660 268 660 268 660 300 c 128,-1,76
 660 332 660 332 637 355 c 0,77,78
 625 367 625 367 625 383.5 c 128,-1,79
 625 400 625 400 637 412 c 128,-1,80
 649 424 649 424 665.5 424 c 128,-1,81
 682 424 682 424 694 412 c 0,82,83
 740 366 740 366 740 301 c 128,-1,84
 740 236 740 236 694 190 c 0,85,70
 681 177 681 177 665 177 c 128,-1,71
EndSplineSet
Validated: 33
Ligature2: "'liga' Ligaduras est+AOEA-ndar en Latin b+APoA-squeda 0 subtabla" v o l u m e underscore m i d
EndChar

StartChar: volume_high
Encoding: 57411 57411 129
Width: 1000
GlyphClass: 3
Flags: W
LayerCount: 2
Fore
SplineSet
454 -84 m 0,0,1
 410 -84 410 -84 375 -54 c 2,2,-1
 203 98 l 2,3,4
 191 108 191 108 177 108 c 2,5,-1
 120 108 l 2,6,7
 70 108 70 108 35 143 c 128,-1,8
 0 178 0 178 0 228 c 2,9,-1
 0 372 l 2,10,11
 0 422 0 422 35 457 c 128,-1,12
 70 492 70 492 120 492 c 2,13,-1
 177 492 l 2,14,15
 191 492 191 492 203 502 c 2,16,-1
 376 654 l 2,17,18
 434 705 434 705 505 673 c 0,19,20
 538 658 538 658 557 628.5 c 128,-1,21
 576 599 576 599 576 564 c 2,22,-1
 576 37 l 2,23,24
 576 1 576 1 557 -28.5 c 128,-1,25
 538 -58 538 -58 505 -72 c 0,26,27
 480 -84 480 -84 454 -84 c 0,0,1
120 412 m 2,28,29
 104 412 104 412 92 400 c 128,-1,30
 80 388 80 388 80 372 c 2,31,-1
 80 228 l 2,32,33
 80 212 80 212 92 200 c 128,-1,34
 104 188 104 188 120 188 c 2,35,-1
 177 188 l 2,36,37
 221 188 221 188 256 158 c 2,38,-1
 429 6 l 2,39,40
 449 -12 449 -12 472 0 c 1,41,42
 496 8 496 8 496 36 c 2,43,-1
 496 564 l 2,44,45
 496 592 496 592 472 600 c 0,46,47
 446 609 446 609 429 594 c 2,48,-1
 256 442 l 2,49,50
 221 412 221 412 177 412 c 2,51,-1
 120 412 l 2,28,29
760 95 m 0,52,53
 744 95 744 95 732 107 c 128,-1,54
 720 119 720 119 720 135.5 c 128,-1,55
 720 152 720 152 732 164 c 0,56,57
 789 221 789 221 789 301 c 0,58,59
 789 383 789 383 732 438 c 0,60,61
 720 450 720 450 720 466.5 c 128,-1,62
 720 483 720 483 732 495 c 128,-1,63
 744 507 744 507 760.5 507 c 128,-1,64
 777 507 777 507 789 495 c 0,65,66
 869 415 869 415 869 301 c 128,-1,67
 869 187 869 187 789 107 c 0,68,69
 778 95 778 95 760 95 c 0,52,53
857 12 m 0,70,71
 841 12 841 12 829 24 c 128,-1,72
 817 36 817 36 817 52.5 c 128,-1,73
 817 69 817 69 829 81 c 0,74,75
 920 171 920 171 920 300 c 128,-1,76
 920 429 920 429 829 520 c 0,77,78
 817 532 817 532 817 548.5 c 128,-1,79
 817 565 817 565 829 577 c 128,-1,80
 841 589 841 589 857.5 589 c 128,-1,81
 874 589 874 589 886 577 c 0,82,83
 1000 463 1000 463 1000 301 c 128,-1,84
 1000 139 1000 139 886 24 c 0,85,86
 874 12 874 12 857 12 c 0,70,71
665 177 m 128,-1,88
 649 177 649 177 637 189 c 128,-1,89
 625 201 625 201 625 217.5 c 128,-1,90
 625 234 625 234 637 246 c 0,91,92
 660 268 660 268 660 300 c 128,-1,93
 660 332 660 332 637 355 c 0,94,95
 625 367 625 367 625 383.5 c 128,-1,96
 625 400 625 400 637 412 c 128,-1,97
 649 424 649 424 665.5 424 c 128,-1,98
 682 424 682 424 694 412 c 0,99,100
 740 366 740 366 740 301 c 128,-1,101
 740 236 740 236 694 190 c 0,102,87
 681 177 681 177 665 177 c 128,-1,88
EndSplineSet
Validated: 33
Ligature2: "'liga' Ligaduras est+AOEA-ndar en Latin b+APoA-squeda 0 subtabla" v o l u m e underscore h i g h
EndChar

StartChar: label
Encoding: 57412 57412 130
Width: 1000
GlyphClass: 3
Flags: W
LayerCount: 2
Fore
SplineSet
415 -200 m 0,0,1
 367 -200 367 -200 330 -165 c 2,2,-1
 35 129 l 2,3,4
 0 164 0 164 0 214 c 128,-1,5
 0 264 0 264 35 299 c 2,6,-1
 500 764 l 2,7,8
 536 800 536 800 585 800 c 2,9,-1
 880 800 l 2,10,11
 930 800 930 800 965 765 c 128,-1,12
 1000 730 1000 730 1000 680 c 2,13,-1
 1000 385 l 2,14,15
 1000 335 1000 335 965 300 c 2,16,-1
 500 -165 l 2,17,18
 465 -200 465 -200 415 -200 c 0,0,1
585 720 m 2,19,20
 568 720 568 720 557 708 c 2,21,-1
 91 242 l 2,22,23
 80 231 80 231 80 214 c 0,24,25
 80 196 80 196 92 186 c 2,26,-1
 388 -108 l 2,27,28
 400 -120 400 -120 416.5 -119.5 c 128,-1,29
 433 -119 433 -119 444 -108 c 2,30,-1
 909 357 l 2,31,32
 921 369 921 369 921 385 c 2,33,-1
 921 680 l 2,34,35
 921 696 921 696 909.5 708 c 128,-1,36
 898 720 898 720 881 720 c 2,37,-1
 585 720 l 2,19,20
754 513 m 0,38,39
 736 513 736 513 726 525 c 0,40,41
 725 526 725 526 723.5 528 c 128,-1,42
 722 530 722 530 721 531 c 128,-1,43
 720 532 720 532 718.5 534.5 c 128,-1,44
 717 537 717 537 717 538 c 0,45,46
 715 542 715 542 715 546 c 0,47,48
 714 549 714 549 714 554 c 0,49,50
 714 572 714 572 726 582 c 0,51,52
 727 583 727 583 729 584.5 c 128,-1,53
 731 586 731 586 732 587 c 2,54,-1
 734 588 l 2,55,56
 737 590 737 590 739 591 c 0,57,58
 745 593 745 593 747 593 c 0,59,60
 767 598 767 598 783 582 c 0,61,62
 795 570 795 570 795 554 c 0,63,64
 795 549 795 549 794 546 c 0,65,66
 794 544 794 544 792 538 c 0,67,68
 789 532 789 532 788 531 c 128,-1,69
 787 530 787 530 785.5 528 c 128,-1,70
 784 526 784 526 783 525 c 0,71,72
 769 513 769 513 754 513 c 0,38,39
240 174 m 128,-1,74
 224 174 224 174 212 186 c 128,-1,75
 200 198 200 198 200 214.5 c 128,-1,76
 200 231 200 231 212 243 c 2,77,-1
 395 426 l 2,78,79
 407 438 407 438 423.5 438 c 128,-1,80
 440 438 440 438 452 426 c 128,-1,81
 464 414 464 414 464 397.5 c 128,-1,82
 464 381 464 381 452 369 c 2,83,-1
 268 186 l 2,84,73
 256 174 256 174 240 174 c 128,-1,74
342 71 m 0,85,86
 326 71 326 71 314 83 c 128,-1,87
 302 95 302 95 302 111.5 c 128,-1,88
 302 128 302 128 314 140 c 2,89,-1
 445 271 l 2,90,91
 457 283 457 283 473.5 283 c 128,-1,92
 490 283 490 283 502 271 c 128,-1,93
 514 259 514 259 514 242.5 c 128,-1,94
 514 226 514 226 502 214 c 2,95,-1
 371 83 l 2,96,97
 359 71 359 71 342 71 c 0,85,86
EndSplineSet
Validated: 33
Ligature2: "'liga' Ligaduras est+AOEA-ndar en Latin b+APoA-squeda 0 subtabla" l a b e l
EndChar

StartChar: footage
Encoding: 57413 57413 131
Width: 1000
GlyphClass: 3
Flags: W
LayerCount: 2
Fore
SplineSet
679 93 m 2,0,-1
 321 93 l 2,1,2
 280 93 280 93 250.5 122.5 c 128,-1,3
 221 152 221 152 221 193 c 2,4,-1
 221 407 l 2,5,6
 221 448 221 448 250.5 477.5 c 128,-1,7
 280 507 280 507 321 507 c 2,8,-1
 679 507 l 2,9,10
 720 507 720 507 749.5 477.5 c 128,-1,11
 779 448 779 448 779 407 c 2,12,-1
 779 193 l 2,13,14
 779 152 779 152 749.5 122.5 c 128,-1,15
 720 93 720 93 679 93 c 2,0,-1
321 427 m 2,16,17
 313 427 313 427 307 421 c 128,-1,18
 301 415 301 415 301 407 c 2,19,-1
 301 193 l 2,20,21
 301 185 301 185 307 179 c 128,-1,22
 313 173 313 173 321 173 c 2,23,-1
 679 173 l 2,24,25
 687 173 687 173 693 179 c 128,-1,26
 699 185 699 185 699 193 c 2,27,-1
 699 407 l 2,28,29
 699 415 699 415 693 421 c 128,-1,30
 687 427 687 427 679 427 c 2,31,-1
 321 427 l 2,16,17
900 -200 m 2,32,-1
 799 -200 l 2,33,34
 758 -200 758 -200 728.5 -170.5 c 128,-1,35
 699 -141 699 -141 699 -100 c 2,36,-1
 699 -53 l 2,37,38
 699 -45 699 -45 693 -39 c 128,-1,39
 687 -33 687 -33 679 -33 c 2,40,-1
 321 -33 l 2,41,42
 313 -33 313 -33 307 -39 c 128,-1,43
 301 -45 301 -45 301 -53 c 2,44,-1
 301 -100 l 2,45,46
 301 -141 301 -141 271.5 -170.5 c 128,-1,47
 242 -200 242 -200 201 -200 c 2,48,-1
 100 -200 l 2,49,50
 59 -200 59 -200 29.5 -170.5 c 128,-1,51
 0 -141 0 -141 0 -100 c 2,52,-1
 0 700 l 2,53,54
 0 741 0 741 29.5 770.5 c 128,-1,55
 59 800 59 800 100 800 c 2,56,-1
 201 800 l 2,57,58
 242 800 242 800 271.5 770.5 c 128,-1,59
 301 741 301 741 301 700 c 2,60,-1
 301 653 l 2,61,62
 301 645 301 645 307 639 c 128,-1,63
 313 633 313 633 321 633 c 2,64,-1
 679 633 l 2,65,66
 687 633 687 633 693 639 c 128,-1,67
 699 645 699 645 699 653 c 2,68,-1
 699 700 l 2,69,70
 699 741 699 741 728.5 770.5 c 128,-1,71
 758 800 758 800 799 800 c 2,72,-1
 900 800 l 2,73,74
 941 800 941 800 970.5 770.5 c 128,-1,75
 1000 741 1000 741 1000 700 c 2,76,-1
 1000 -100 l 2,77,78
 1000 -141 1000 -141 970.5 -170.5 c 128,-1,79
 941 -200 941 -200 900 -200 c 2,32,-1
321 47 m 2,80,-1
 679 47 l 2,81,82
 720 47 720 47 749.5 17.5 c 128,-1,83
 779 -12 779 -12 779 -53 c 2,84,-1
 779 -100 l 2,85,86
 779 -108 779 -108 785 -114 c 128,-1,87
 791 -120 791 -120 799 -120 c 2,88,-1
 900 -120 l 2,89,90
 908 -120 908 -120 914 -114 c 128,-1,91
 920 -108 920 -108 920 -100 c 2,92,-1
 920 700 l 2,93,94
 920 708 920 708 914 714 c 128,-1,95
 908 720 908 720 900 720 c 2,96,-1
 799 720 l 2,97,98
 791 720 791 720 785 714 c 128,-1,99
 779 708 779 708 779 700 c 2,100,-1
 779 653 l 2,101,102
 779 612 779 612 749.5 582.5 c 128,-1,103
 720 553 720 553 679 553 c 2,104,-1
 321 553 l 2,105,106
 280 553 280 553 250.5 582.5 c 128,-1,107
 221 612 221 612 221 653 c 2,108,-1
 221 700 l 2,109,110
 221 708 221 708 215 714 c 128,-1,111
 209 720 209 720 201 720 c 2,112,-1
 100 720 l 2,113,114
 92 720 92 720 86 714 c 128,-1,115
 80 708 80 708 80 700 c 2,116,-1
 80 -100 l 2,117,118
 80 -108 80 -108 86 -114 c 128,-1,119
 92 -120 92 -120 100 -120 c 2,120,-1
 201 -120 l 2,121,122
 209 -120 209 -120 215 -114 c 128,-1,123
 221 -108 221 -108 221 -100 c 2,124,-1
 221 -53 l 2,125,126
 221 -12 221 -12 250.5 17.5 c 128,-1,127
 280 47 280 47 321 47 c 2,80,-1
190 -87 m 1,128,-1
 110 -87 l 1,129,-1
 110 -8 l 1,130,-1
 190 -8 l 1,131,-1
 190 -87 l 1,128,-1
190 51 m 1,132,-1
 110 51 l 1,133,-1
 110 131 l 1,134,-1
 190 131 l 1,135,-1
 190 51 l 1,132,-1
190 190 m 1,136,-1
 110 190 l 1,137,-1
 110 270 l 1,138,-1
 190 270 l 1,139,-1
 190 190 l 1,136,-1
190 329 m 1,140,-1
 110 329 l 1,141,-1
 110 409 l 1,142,-1
 190 409 l 1,143,-1
 190 329 l 1,140,-1
190 468 m 1,144,-1
 110 468 l 1,145,-1
 110 548 l 1,146,-1
 190 548 l 1,147,-1
 190 468 l 1,144,-1
190 607 m 1,148,-1
 110 607 l 1,149,-1
 110 687 l 1,150,-1
 190 687 l 1,151,-1
 190 607 l 1,148,-1
890 -87 m 1,152,-1
 810 -87 l 1,153,-1
 810 -8 l 1,154,-1
 890 -8 l 1,155,-1
 890 -87 l 1,152,-1
890 51 m 1,156,-1
 810 51 l 1,157,-1
 810 131 l 1,158,-1
 890 131 l 1,159,-1
 890 51 l 1,156,-1
890 190 m 1,160,-1
 810 190 l 1,161,-1
 810 270 l 1,162,-1
 890 270 l 1,163,-1
 890 190 l 1,160,-1
890 329 m 1,164,-1
 810 329 l 1,165,-1
 810 409 l 1,166,-1
 890 409 l 1,167,-1
 890 329 l 1,164,-1
890 468 m 1,168,-1
 810 468 l 1,169,-1
 810 548 l 1,170,-1
 890 548 l 1,171,-1
 890 468 l 1,168,-1
890 607 m 1,172,-1
 810 607 l 1,173,-1
 810 687 l 1,174,-1
 890 687 l 1,175,-1
 890 607 l 1,172,-1
EndSplineSet
Validated: 1
Ligature2: "'liga' Ligaduras est+AOEA-ndar en Latin b+APoA-squeda 0 subtabla" m o v i e
Ligature2: "'liga' Ligaduras est+AOEA-ndar en Latin b+APoA-squeda 0 subtabla" f i l m
Ligature2: "'liga' Ligaduras est+AOEA-ndar en Latin b+APoA-squeda 0 subtabla" f o o t a g e
EndChar

StartChar: footage_alt
Encoding: 57414 57414 132
Width: 1000
GlyphClass: 3
Flags: W
LayerCount: 2
Fore
SplineSet
679 507 m 2,0,-1
 321 507 l 2,1,2
 280 507 280 507 250.5 477.5 c 128,-1,3
 221 448 221 448 221 407 c 2,4,-1
 221 193 l 2,5,6
 221 152 221 152 250.5 122.5 c 128,-1,7
 280 93 280 93 321 93 c 2,8,-1
 679 93 l 2,9,10
 720 93 720 93 749.5 122.5 c 128,-1,11
 779 152 779 152 779 193 c 2,12,-1
 779 407 l 2,13,14
 779 448 779 448 749.5 477.5 c 128,-1,15
 720 507 720 507 679 507 c 2,0,-1
699 193 m 2,16,17
 699 185 699 185 693 179 c 128,-1,18
 687 173 687 173 679 173 c 2,19,-1
 321 173 l 2,20,21
 313 173 313 173 307 179 c 128,-1,22
 301 185 301 185 301 193 c 2,23,-1
 301 407 l 2,24,25
 301 415 301 415 307 421 c 128,-1,26
 313 427 313 427 321 427 c 2,27,-1
 679 427 l 2,28,29
 687 427 687 427 693 421 c 128,-1,30
 699 415 699 415 699 407 c 2,31,-1
 699 193 l 2,16,17
900 800 m 2,32,-1
 739 800 l 1,33,-1
 699 800 l 1,34,-1
 301 800 l 1,35,-1
 261 800 l 1,36,-1
 100 800 l 2,37,38
 59 800 59 800 29.5 770.5 c 128,-1,39
 0 741 0 741 0 700 c 2,40,-1
 0 -100 l 2,41,42
 0 -141 0 -141 29.5 -170.5 c 128,-1,43
 59 -200 59 -200 100 -200 c 2,44,-1
 261 -200 l 1,45,-1
 301 -200 l 1,46,-1
 699 -200 l 1,47,-1
 739 -200 l 1,48,-1
 900 -200 l 2,49,50
 941 -200 941 -200 970.5 -170.5 c 128,-1,51
 1000 -141 1000 -141 1000 -100 c 2,52,-1
 1000 700 l 2,53,54
 1000 741 1000 741 970.5 770.5 c 128,-1,55
 941 800 941 800 900 800 c 2,32,-1
301 720 m 1,56,-1
 699 720 l 1,57,-1
 699 653 l 2,58,59
 699 645 699 645 693 639 c 128,-1,60
 687 633 687 633 679 633 c 2,61,-1
 321 633 l 2,62,63
 313 633 313 633 307 639 c 128,-1,64
 301 645 301 645 301 653 c 2,65,-1
 301 720 l 1,56,-1
301 -120 m 1,66,-1
 301 -53 l 2,67,68
 301 -45 301 -45 307 -39 c 128,-1,69
 313 -33 313 -33 321 -33 c 2,70,-1
 679 -33 l 2,71,72
 687 -33 687 -33 693 -39 c 128,-1,73
 699 -45 699 -45 699 -53 c 2,74,-1
 699 -120 l 1,75,-1
 301 -120 l 1,66,-1
920 -100 m 2,76,77
 920 -108 920 -108 914 -114 c 128,-1,78
 908 -120 908 -120 900 -120 c 2,79,-1
 779 -120 l 1,80,-1
 779 -53 l 2,81,82
 779 -12 779 -12 749.5 17.5 c 128,-1,83
 720 47 720 47 679 47 c 2,84,-1
 321 47 l 2,85,86
 280 47 280 47 250.5 17.5 c 128,-1,87
 221 -12 221 -12 221 -53 c 2,88,-1
 221 -120 l 1,89,-1
 100 -120 l 2,90,91
 92 -120 92 -120 86 -114 c 128,-1,92
 80 -108 80 -108 80 -100 c 2,93,-1
 80 700 l 2,94,95
 80 708 80 708 86 714 c 128,-1,96
 92 720 92 720 100 720 c 2,97,-1
 221 720 l 1,98,-1
 221 653 l 2,99,100
 221 612 221 612 250.5 582.5 c 128,-1,101
 280 553 280 553 321 553 c 2,102,-1
 679 553 l 2,103,104
 720 553 720 553 749.5 582.5 c 128,-1,105
 779 612 779 612 779 653 c 2,106,-1
 779 720 l 1,107,-1
 900 720 l 2,108,109
 908 720 908 720 914 714 c 128,-1,110
 920 708 920 708 920 700 c 2,111,-1
 920 -100 l 2,76,77
110 468 m 1,112,-1
 190 468 l 1,113,-1
 190 548 l 1,114,-1
 110 548 l 1,115,-1
 110 468 l 1,112,-1
110 607 m 1,116,-1
 190 607 l 1,117,-1
 190 687 l 1,118,-1
 110 687 l 1,119,-1
 110 607 l 1,116,-1
110 329 m 1,120,-1
 190 329 l 1,121,-1
 190 409 l 1,122,-1
 110 409 l 1,123,-1
 110 329 l 1,120,-1
110 51 m 1,124,-1
 190 51 l 1,125,-1
 190 131 l 1,126,-1
 110 131 l 1,127,-1
 110 51 l 1,124,-1
110 190 m 1,128,-1
 190 190 l 1,129,-1
 190 270 l 1,130,-1
 110 270 l 1,131,-1
 110 190 l 1,128,-1
110 -87 m 1,132,-1
 190 -87 l 1,133,-1
 190 -8 l 1,134,-1
 110 -8 l 1,135,-1
 110 -87 l 1,132,-1
810 468 m 1,136,-1
 890 468 l 1,137,-1
 890 548 l 1,138,-1
 810 548 l 1,139,-1
 810 468 l 1,136,-1
810 607 m 1,140,-1
 890 607 l 1,141,-1
 890 687 l 1,142,-1
 810 687 l 1,143,-1
 810 607 l 1,140,-1
810 329 m 1,144,-1
 890 329 l 1,145,-1
 890 409 l 1,146,-1
 810 409 l 1,147,-1
 810 329 l 1,144,-1
810 51 m 1,148,-1
 890 51 l 1,149,-1
 890 131 l 1,150,-1
 810 131 l 1,151,-1
 810 51 l 1,148,-1
810 -87 m 1,152,-1
 890 -87 l 1,153,-1
 890 -8 l 1,154,-1
 810 -8 l 1,155,-1
 810 -87 l 1,152,-1
810 190 m 1,156,-1
 890 190 l 1,157,-1
 890 270 l 1,158,-1
 810 270 l 1,159,-1
 810 190 l 1,156,-1
EndSplineSet
Validated: 9
Ligature2: "'liga' Ligaduras est+AOEA-ndar en Latin b+APoA-squeda 0 subtabla" m o v i e underscore a l t
Ligature2: "'liga' Ligaduras est+AOEA-ndar en Latin b+APoA-squeda 0 subtabla" f i l m underscore a l t
Ligature2: "'liga' Ligaduras est+AOEA-ndar en Latin b+APoA-squeda 0 subtabla" f o o t a g e underscore a l t
EndChar

StartChar: settings_gear_alt
Encoding: 57415 57415 133
Width: 1000
GlyphClass: 3
Flags: W
LayerCount: 2
Fore
SplineSet
336 -164 m 0,0,1
 304 -164 304 -164 276 -148 c 2,2,-1
 224 -118 l 2,3,4
 181 -93 181 -93 168 -45 c 128,-1,5
 155 3 155 3 180 46 c 2,6,-1
 186 56 l 2,7,8
 198 78 198 78 184 98 c 2,9,-1
 175 113 l 2,10,11
 169 123 169 123 167 128 c 0,12,13
 156 150 156 150 131 150 c 2,14,-1
 120 150 l 2,15,16
 70 150 70 150 35 185 c 128,-1,17
 0 220 0 220 0 270 c 2,18,-1
 0 330 l 2,19,20
 0 380 0 380 35 415 c 128,-1,21
 70 450 70 450 120 450 c 2,22,-1
 132 450 l 2,23,24
 157 450 157 450 167 471 c 0,25,26
 179 493 179 493 185 503 c 0,27,28
 198 522 198 522 186 544 c 2,29,-1
 180 554 l 2,30,31
 156 597 156 597 168 645 c 128,-1,32
 180 693 180 693 224 718 c 2,33,-1
 276 748 l 2,34,35
 319 773 319 773 367 760 c 128,-1,36
 415 747 415 747 440 704 c 2,37,-1
 446 694 l 2,38,39
 459 672 459 672 482 674 c 0,40,41
 500 676 500 676 519 674 c 0,42,43
 543 672 543 672 555 694 c 2,44,-1
 561 704 l 2,45,46
 586 747 586 747 634 760 c 128,-1,47
 682 773 682 773 725 748 c 2,48,-1
 777 718 l 2,49,50
 820 693 820 693 833 645 c 128,-1,51
 846 597 846 597 821 554 c 2,52,-1
 815 544 l 2,53,54
 803 522 803 522 817 502 c 2,55,-1
 826 487 l 2,56,57
 832 477 832 477 834 472 c 0,58,59
 845 450 845 450 870 450 c 2,60,-1
 880 450 l 2,61,62
 930 450 930 450 965 415 c 128,-1,63
 1000 380 1000 380 1000 330 c 2,64,-1
 1000 270 l 2,65,66
 1000 220 1000 220 965 185 c 128,-1,67
 930 150 930 150 880 150 c 2,68,-1
 868 150 l 2,69,70
 843 150 843 150 833 129 c 0,71,72
 821 107 821 107 815 97 c 0,73,74
 802 78 802 78 814 56 c 2,75,-1
 820 46 l 2,76,77
 845 3 845 3 832 -45 c 128,-1,78
 819 -93 819 -93 776 -118 c 2,79,-1
 724 -148 l 2,80,81
 681 -173 681 -173 633 -160 c 128,-1,82
 585 -147 585 -147 560 -104 c 2,83,-1
 554 -94 l 2,84,85
 541 -72 541 -72 518 -74 c 0,86,87
 499 -76 499 -76 481 -74 c 0,88,89
 457 -72 457 -72 445 -94 c 2,90,-1
 439 -104 l 2,91,92
 414 -148 414 -148 366 -160 c 0,93,94
 354 -164 354 -164 336 -164 c 0,0,1
120 370 m 1,95,96
 104 370 104 370 92 358 c 128,-1,97
 80 346 80 346 80 330 c 2,98,-1
 80 270 l 2,99,100
 80 254 80 254 92 242 c 128,-1,101
 104 230 104 230 120 230 c 2,102,-1
 131 230 l 2,103,104
 165 230 165 230 193.5 212.5 c 128,-1,105
 222 195 222 195 238 164 c 2,106,-1
 244 152 l 2,107,108
 245 150 245 150 251 141 c 0,109,110
 270 113 270 113 270.5 78.5 c 128,-1,111
 271 44 271 44 254 16 c 2,112,-1
 248 6 l 2,113,114
 240 -8 240 -8 244.5 -24.5 c 128,-1,115
 249 -41 249 -41 263 -49 c 2,116,-1
 315 -79 l 2,117,118
 330 -87 330 -87 345 -83 c 0,119,120
 362 -78 362 -78 369 -64 c 2,121,-1
 375 -54 l 2,122,123
 412 9 412 9 484 6 c 2,124,-1
 513 6 l 2,125,126
 586 9 586 9 622 -54 c 2,127,-1
 628 -64 l 2,128,129
 636 -78 636 -78 652.5 -82.5 c 128,-1,130
 669 -87 669 -87 683 -79 c 2,131,-1
 735 -49 l 2,132,133
 749 -41 749 -41 753.5 -24.5 c 128,-1,134
 758 -8 758 -8 750 6 c 2,135,-1
 744 16 l 2,136,137
 727 45 727 45 727.5 78.5 c 128,-1,138
 728 112 728 112 747 140 c 0,139,140
 754 152 754 152 761 165 c 0,141,142
 777 195 777 195 805.5 212.5 c 128,-1,143
 834 230 834 230 868 230 c 2,144,-1
 880 230 l 2,145,146
 896 230 896 230 908 242 c 128,-1,147
 920 254 920 254 920 270 c 2,148,-1
 920 330 l 2,149,150
 920 346 920 346 908 358 c 128,-1,151
 896 370 896 370 880 370 c 2,152,-1
 869 370 l 2,153,154
 835 370 835 370 806.5 387.5 c 128,-1,155
 778 405 778 405 762 436 c 2,156,-1
 756 448 l 2,157,158
 755 450 755 450 749 459 c 0,159,160
 730 487 730 487 729.5 521.5 c 128,-1,161
 729 556 729 556 746 585 c 2,162,-1
 752 595 l 2,163,164
 760 609 760 609 755.5 625.5 c 128,-1,165
 751 642 751 642 737 650 c 2,166,-1
 685 680 l 2,167,168
 671 688 671 688 654.5 683.5 c 128,-1,169
 638 679 638 679 630 665 c 2,170,-1
 624 655 l 2,171,172
 607 626 607 626 577.5 609.5 c 128,-1,173
 548 593 548 593 515 595 c 2,174,-1
 486 595 l 2,175,176
 413 592 413 592 377 655 c 2,177,-1
 371 665 l 2,178,179
 363 679 363 679 346.5 683.5 c 128,-1,180
 330 688 330 688 316 680 c 2,181,-1
 264 650 l 2,182,183
 250 642 250 642 245 626 c 0,184,185
 241 611 241 611 249 596 c 2,186,-1
 255 586 l 2,187,188
 272 557 272 557 271.5 523.5 c 128,-1,189
 271 490 271 490 252 462 c 0,190,191
 244 450 244 450 238 437 c 0,192,193
 222 407 222 407 193.5 389.5 c 128,-1,194
 165 372 165 372 131 372 c 2,195,-1
 120 372 l 1,196,-1
 120 370 l 1,95,96
500 114 m 128,-1,198
 423 114 423 114 368.5 168.5 c 128,-1,199
 314 223 314 223 314 300 c 128,-1,200
 314 377 314 377 368.5 431.5 c 128,-1,201
 423 486 423 486 500 486 c 128,-1,202
 577 486 577 486 631.5 431.5 c 128,-1,203
 686 377 686 377 686 300 c 128,-1,204
 686 223 686 223 631.5 168.5 c 128,-1,197
 577 114 577 114 500 114 c 128,-1,198
500 406 m 128,-1,206
 456 406 456 406 425 375 c 128,-1,207
 394 344 394 344 394 300 c 128,-1,208
 394 256 394 256 425 225 c 128,-1,209
 456 194 456 194 500 194 c 128,-1,210
 544 194 544 194 575 225 c 128,-1,211
 606 256 606 256 606 300 c 128,-1,212
 606 344 606 344 575 375 c 128,-1,205
 544 406 544 406 500 406 c 128,-1,206
EndSplineSet
Validated: 33
Ligature2: "'liga' Ligaduras est+AOEA-ndar en Latin b+APoA-squeda 0 subtabla" s e t t i n g s underscore g e a r underscore a l t
EndChar

StartChar: server
Encoding: 57416 57416 134
Width: 855
GlyphClass: 3
Flags: W
LayerCount: 2
Fore
SplineSet
734 487 m 2,0,-1
 120 487 l 2,1,2
 70 487 70 487 35 522.5 c 128,-1,3
 0 558 0 558 0 607 c 2,4,-1
 0 680 l 2,5,6
 0 730 0 730 35 765 c 128,-1,7
 70 800 70 800 120 800 c 2,8,-1
 735 800 l 2,9,10
 784 800 784 800 819.5 765 c 128,-1,11
 855 730 855 730 855 680 c 2,12,-1
 855 607 l 2,13,14
 854 557 854 557 819 522 c 128,-1,15
 784 487 784 487 734 487 c 2,0,-1
120 720 m 2,16,17
 104 720 104 720 92 708 c 128,-1,18
 80 696 80 696 80 680 c 2,19,-1
 80 607 l 2,20,21
 80 590 80 590 92 578.5 c 128,-1,22
 104 567 104 567 120 567 c 2,23,-1
 735 567 l 2,24,25
 752 567 752 567 763.5 578.5 c 128,-1,26
 775 590 775 590 775 607 c 2,27,-1
 775 680 l 2,28,29
 775 696 775 696 763.5 708 c 128,-1,30
 752 720 752 720 735 720 c 2,31,-1
 120 720 l 2,16,17
160 603 m 128,-1,33
 144 603 144 603 132 614.5 c 128,-1,34
 120 626 120 626 120 643 c 128,-1,35
 120 660 120 660 132 671.5 c 128,-1,36
 144 683 144 683 160 683 c 128,-1,37
 176 683 176 683 188 671.5 c 128,-1,38
 200 660 200 660 200 643 c 128,-1,39
 200 626 200 626 188 614.5 c 128,-1,32
 176 603 176 603 160 603 c 128,-1,33
734 143 m 2,40,-1
 120 143 l 2,41,42
 70 143 70 143 35 178.5 c 128,-1,43
 0 214 0 214 0 263 c 2,44,-1
 0 336 l 2,45,46
 0 386 0 386 35 421 c 128,-1,47
 70 456 70 456 120 456 c 2,48,-1
 735 456 l 2,49,50
 784 456 784 456 819.5 421 c 128,-1,51
 855 386 855 386 855 336 c 2,52,-1
 855 263 l 2,53,54
 854 213 854 213 819 178 c 128,-1,55
 784 143 784 143 734 143 c 2,40,-1
120 377 m 2,56,57
 104 377 104 377 92 365.5 c 128,-1,58
 80 354 80 354 80 337 c 2,59,-1
 80 264 l 2,60,61
 80 248 80 248 92 236 c 128,-1,62
 104 224 104 224 120 224 c 2,63,-1
 735 224 l 2,64,65
 752 224 752 224 763.5 236 c 128,-1,66
 775 248 775 248 775 264 c 2,67,-1
 775 337 l 2,68,69
 775 354 775 354 763.5 365.5 c 128,-1,70
 752 377 752 377 735 377 c 2,71,-1
 120 377 l 2,56,57
160 260 m 128,-1,73
 144 260 144 260 132 272 c 128,-1,74
 120 284 120 284 120 300 c 128,-1,75
 120 316 120 316 132 328 c 128,-1,76
 144 340 144 340 160 340 c 128,-1,77
 176 340 176 340 188 328 c 128,-1,78
 200 316 200 316 200 300 c 128,-1,79
 200 284 200 284 188 272 c 128,-1,72
 176 260 176 260 160 260 c 128,-1,73
734 -200 m 2,80,-1
 120 -200 l 2,81,82
 70 -200 70 -200 35 -165 c 128,-1,83
 0 -130 0 -130 0 -80 c 2,84,-1
 0 -7 l 2,85,86
 0 42 0 42 35 77.5 c 128,-1,87
 70 113 70 113 120 113 c 2,88,-1
 735 113 l 2,89,90
 784 113 784 113 819.5 77.5 c 128,-1,91
 855 42 855 42 855 -7 c 2,92,-1
 855 -80 l 2,93,94
 854 -130 854 -130 819 -165 c 128,-1,95
 784 -200 784 -200 734 -200 c 2,80,-1
120 33 m 2,96,97
 104 33 104 33 92 21.5 c 128,-1,98
 80 10 80 10 80 -7 c 2,99,-1
 80 -80 l 2,100,101
 80 -96 80 -96 92 -108 c 128,-1,102
 104 -120 104 -120 120 -120 c 2,103,-1
 735 -120 l 2,104,105
 752 -120 752 -120 763.5 -108 c 128,-1,106
 775 -96 775 -96 775 -80 c 2,107,-1
 775 -7 l 2,108,109
 775 10 775 10 763.5 21.5 c 128,-1,110
 752 33 752 33 735 33 c 2,111,-1
 120 33 l 2,96,97
160 -83 m 0,112,113
 144 -83 144 -83 132 -71.5 c 128,-1,114
 120 -60 120 -60 120 -43 c 128,-1,115
 120 -26 120 -26 132 -14.5 c 128,-1,116
 144 -3 144 -3 160 -3 c 128,-1,117
 176 -3 176 -3 188 -14.5 c 128,-1,118
 200 -26 200 -26 200 -43 c 128,-1,119
 200 -60 200 -60 188.5 -71.5 c 128,-1,120
 177 -83 177 -83 160 -83 c 0,112,113
282 603 m 128,-1,122
 266 603 266 603 254 614.5 c 128,-1,123
 242 626 242 626 242 643 c 128,-1,124
 242 660 242 660 254 671.5 c 128,-1,125
 266 683 266 683 282 683 c 128,-1,126
 298 683 298 683 310 671.5 c 128,-1,127
 322 660 322 660 322 643 c 128,-1,128
 322 626 322 626 310 614.5 c 128,-1,121
 298 603 298 603 282 603 c 128,-1,122
EndSplineSet
Validated: 1
Ligature2: "'liga' Ligaduras est+AOEA-ndar en Latin b+APoA-squeda 0 subtabla" s e r v e r
EndChar

StartChar: file
Encoding: 57417 57417 135
Width: 731
GlyphClass: 3
Flags: W
LayerCount: 2
Fore
SplineSet
701 493 m 2,0,-1
 699 495 l 1,1,2
 699 495 699 495 562 632 c 2,3,-1
 424 771 l 2,4,5
 395 800 395 800 353 800 c 2,6,-1
 120 800 l 2,7,8
 70 800 70 800 35 765 c 128,-1,9
 0 730 0 730 0 680 c 2,10,-1
 0 -80 l 2,11,12
 0 -130 0 -130 35 -165 c 128,-1,13
 70 -200 70 -200 120 -200 c 2,14,-1
 611 -200 l 2,15,16
 660 -200 660 -200 695.5 -165 c 128,-1,17
 731 -130 731 -130 731 -80 c 2,18,-1
 731 423 l 2,19,20
 729 466 729 466 701 493 c 2,0,-1
594 488 m 1,21,-1
 458 488 l 2,22,23
 442 488 442 488 430 500 c 128,-1,24
 418 512 418 512 418 528 c 2,25,-1
 418 663 l 1,26,-1
 506 575 l 1,27,-1
 594 488 l 1,21,-1
610 -120 m 2,28,-1
 120 -120 l 2,29,30
 104 -120 104 -120 92 -108 c 128,-1,31
 80 -96 80 -96 80 -80 c 2,32,-1
 80 680 l 2,33,34
 80 696 80 696 92 708 c 128,-1,35
 104 720 104 720 120 720 c 2,36,-1
 338 720 l 1,37,-1
 338 528 l 2,38,39
 338 478 338 478 373 443 c 128,-1,40
 408 408 408 408 458 408 c 2,41,-1
 650 408 l 1,42,-1
 650 -80 l 2,43,44
 650 -96 650 -96 638 -108 c 128,-1,45
 626 -120 626 -120 610 -120 c 2,28,-1
EndSplineSet
Validated: 9
Ligature2: "'liga' Ligaduras est+AOEA-ndar en Latin b+APoA-squeda 0 subtabla" f i l e
EndChar

StartChar: file_content
Encoding: 57418 57418 136
Width: 731
GlyphClass: 3
Flags: W
LayerCount: 2
Fore
SplineSet
200 248 m 2,0,-1
 435 248 l 2,1,2
 452 248 452 248 463.5 260 c 128,-1,3
 475 272 475 272 475 288 c 128,-1,4
 475 304 475 304 463.5 316 c 128,-1,5
 452 328 452 328 435 328 c 2,6,-1
 200 328 l 2,7,8
 184 328 184 328 172 316 c 128,-1,9
 160 304 160 304 160 288 c 128,-1,10
 160 272 160 272 172 260 c 128,-1,11
 184 248 184 248 200 248 c 2,0,-1
530 168 m 2,12,-1
 200 168 l 2,13,14
 184 168 184 168 172 156 c 128,-1,15
 160 144 160 144 160 128 c 128,-1,16
 160 112 160 112 172 100 c 128,-1,17
 184 88 184 88 200 88 c 2,18,-1
 531 88 l 2,19,20
 548 88 548 88 559.5 100 c 128,-1,21
 571 112 571 112 571 128 c 128,-1,22
 571 144 571 144 559 156 c 128,-1,23
 547 168 547 168 530 168 c 2,12,-1
701 493 m 2,24,-1
 699 495 l 1,25,-1
 562 632 l 1,26,-1
 424 771 l 2,27,28
 395 800 395 800 353 800 c 2,29,-1
 120 800 l 2,30,31
 70 800 70 800 35 765 c 128,-1,32
 0 730 0 730 0 680 c 2,33,-1
 0 -80 l 2,34,35
 0 -130 0 -130 35 -165 c 128,-1,36
 70 -200 70 -200 120 -200 c 2,37,-1
 611 -200 l 2,38,39
 660 -200 660 -200 695.5 -165 c 128,-1,40
 731 -130 731 -130 731 -80 c 2,41,-1
 731 423 l 2,42,43
 729 466 729 466 701 493 c 2,24,-1
594 488 m 1,44,-1
 458 488 l 2,45,46
 442 488 442 488 430 500 c 128,-1,47
 418 512 418 512 418 528 c 2,48,-1
 418 663 l 1,49,-1
 506 575 l 1,50,-1
 594 488 l 1,44,-1
610 -120 m 2,51,-1
 120 -120 l 2,52,53
 104 -120 104 -120 92 -108 c 128,-1,54
 80 -96 80 -96 80 -80 c 2,55,-1
 80 680 l 2,56,57
 80 696 80 696 92 708 c 128,-1,58
 104 720 104 720 120 720 c 2,59,-1
 338 720 l 1,60,-1
 338 528 l 2,61,62
 338 478 338 478 373 443 c 128,-1,63
 408 408 408 408 458 408 c 2,64,-1
 650 408 l 1,65,-1
 650 -80 l 2,66,67
 650 -96 650 -96 638 -108 c 128,-1,68
 626 -120 626 -120 610 -120 c 2,51,-1
EndSplineSet
Validated: 9
Ligature2: "'liga' Ligaduras est+AOEA-ndar en Latin b+APoA-squeda 0 subtabla" f i l e underscore c o n t e n t
EndChar

StartChar: file_upload
Encoding: 57419 57419 137
Width: 731
GlyphClass: 3
Flags: W
LayerCount: 2
Fore
SplineSet
701 493 m 2,0,-1
 699 495 l 1,1,2
 699 495 699 495 562 632 c 2,3,-1
 424 771 l 2,4,5
 395 800 395 800 353 800 c 2,6,-1
 120 800 l 2,7,8
 70 800 70 800 35 765 c 128,-1,9
 0 730 0 730 0 680 c 2,10,-1
 0 -80 l 2,11,12
 0 -130 0 -130 35 -165 c 128,-1,13
 70 -200 70 -200 120 -200 c 2,14,-1
 611 -200 l 2,15,16
 660 -200 660 -200 695.5 -165 c 128,-1,17
 731 -130 731 -130 731 -80 c 2,18,-1
 731 423 l 2,19,20
 729 466 729 466 701 493 c 2,0,-1
594 488 m 1,21,-1
 458 488 l 2,22,23
 442 488 442 488 430 500 c 128,-1,24
 418 512 418 512 418 528 c 2,25,-1
 418 663 l 1,26,-1
 506 575 l 1,27,-1
 594 488 l 1,21,-1
610 -120 m 2,28,-1
 120 -120 l 2,29,30
 104 -120 104 -120 92 -108 c 128,-1,31
 80 -96 80 -96 80 -80 c 2,32,-1
 80 680 l 2,33,34
 80 696 80 696 92 708 c 128,-1,35
 104 720 104 720 120 720 c 2,36,-1
 338 720 l 1,37,-1
 338 528 l 2,38,39
 338 478 338 478 373 443 c 128,-1,40
 408 408 408 408 458 408 c 2,41,-1
 650 408 l 1,42,-1
 650 -80 l 2,43,44
 650 -96 650 -96 638 -108 c 128,-1,45
 626 -120 626 -120 610 -120 c 2,28,-1
450 312 m 2,46,47
 415 347 415 347 365 347 c 128,-1,48
 315 347 315 347 280 312 c 2,49,-1
 201 233 l 2,50,51
 189 221 189 221 189 204.5 c 128,-1,52
 189 188 189 188 201 176 c 128,-1,53
 213 164 213 164 229.5 164 c 128,-1,54
 246 164 246 164 258 176 c 2,55,-1
 325 243 l 1,56,-1
 325 31 l 2,57,58
 325 14 325 14 336.5 2.5 c 128,-1,59
 348 -9 348 -9 365 -9 c 128,-1,60
 382 -9 382 -9 393.5 2.5 c 128,-1,61
 405 14 405 14 405 31 c 2,62,-1
 405 244 l 1,63,-1
 472 177 l 2,64,65
 484 165 484 165 500 165 c 128,-1,66
 516 165 516 165 528 177 c 128,-1,67
 540 189 540 189 540 205.5 c 128,-1,68
 540 222 540 222 528 234 c 2,69,-1
 450 312 l 2,46,47
EndSplineSet
Validated: 9
Ligature2: "'liga' Ligaduras est+AOEA-ndar en Latin b+APoA-squeda 0 subtabla" f i l e underscore u p l o a d
EndChar

StartChar: file_download
Encoding: 57420 57420 138
Width: 731
GlyphClass: 3
Flags: W
LayerCount: 2
Fore
SplineSet
701 493 m 2,0,-1
 699 495 l 1,1,2
 699 495 699 495 562 632 c 2,3,-1
 424 771 l 2,4,5
 395 800 395 800 353 800 c 2,6,-1
 120 800 l 2,7,8
 70 800 70 800 35 765 c 128,-1,9
 0 730 0 730 0 680 c 2,10,-1
 0 -80 l 2,11,12
 0 -130 0 -130 35 -165 c 128,-1,13
 70 -200 70 -200 120 -200 c 2,14,-1
 611 -200 l 2,15,16
 660 -200 660 -200 695.5 -165 c 128,-1,17
 731 -130 731 -130 731 -80 c 2,18,-1
 731 423 l 2,19,20
 729 466 729 466 701 493 c 2,0,-1
594 488 m 1,21,-1
 458 488 l 2,22,23
 442 488 442 488 430 500 c 128,-1,24
 418 512 418 512 418 528 c 2,25,-1
 418 663 l 1,26,-1
 506 575 l 1,27,-1
 594 488 l 1,21,-1
610 -120 m 2,28,-1
 120 -120 l 2,29,30
 104 -120 104 -120 92 -108 c 128,-1,31
 80 -96 80 -96 80 -80 c 2,32,-1
 80 680 l 2,33,34
 80 696 80 696 92 708 c 128,-1,35
 104 720 104 720 120 720 c 2,36,-1
 338 720 l 1,37,-1
 338 528 l 2,38,39
 338 478 338 478 373 443 c 128,-1,40
 408 408 408 408 458 408 c 2,41,-1
 650 408 l 1,42,-1
 650 -80 l 2,43,44
 650 -96 650 -96 638 -108 c 128,-1,45
 626 -120 626 -120 610 -120 c 2,28,-1
472 162 m 2,46,-1
 405 95 l 1,47,-1
 405 308 l 2,48,49
 405 324 405 324 393.5 336 c 128,-1,50
 382 348 382 348 365 348 c 128,-1,51
 348 348 348 348 336.5 336 c 128,-1,52
 325 324 325 324 325 308 c 2,53,-1
 325 96 l 1,54,-1
 258 163 l 2,55,56
 246 175 246 175 229.5 175 c 128,-1,57
 213 175 213 175 201 163 c 128,-1,58
 189 151 189 151 189 134.5 c 128,-1,59
 189 118 189 118 201 106 c 2,60,-1
 280 27 l 2,61,62
 315 -8 315 -8 365 -8 c 0,63,64
 413 -8 413 -8 450 27 c 2,65,-1
 529 106 l 2,66,67
 541 118 541 118 541 134.5 c 128,-1,68
 541 151 541 151 529 163 c 0,69,70
 517 174 517 174 500.5 174 c 128,-1,71
 484 174 484 174 472 162 c 2,46,-1
EndSplineSet
Validated: 9
Ligature2: "'liga' Ligaduras est+AOEA-ndar en Latin b+APoA-squeda 0 subtabla" f i l e underscore d o w n l o a d
EndChar

StartChar: compress
Encoding: 57421 57421 139
Width: 591
GlyphClass: 3
Flags: W
LayerCount: 2
Fore
SplineSet
292 -31 m 2,0,1
 341 -31 341 -31 375.5 3 c 128,-1,2
 410 37 410 37 412 86 c 1,3,-1
 457 86 l 2,4,5
 474 86 474 86 485.5 98 c 128,-1,6
 497 110 497 110 497 126 c 128,-1,7
 497 142 497 142 485.5 154 c 128,-1,8
 474 166 474 166 457 166 c 2,9,-1
 287 166 l 2,10,11
 270 166 270 166 258.5 154 c 128,-1,12
 247 142 247 142 247 126 c 128,-1,13
 247 110 247 110 258.5 98 c 128,-1,14
 270 86 270 86 287 86 c 2,15,-1
 331 86 l 1,16,17
 329 70 329 70 318 59.5 c 128,-1,18
 307 49 307 49 291 49 c 2,19,-1
 120 49 l 2,20,21
 104 49 104 49 92 60.5 c 128,-1,22
 80 72 80 72 80 89 c 2,23,-1
 80 680 l 2,24,25
 80 696 80 696 92 708 c 128,-1,26
 104 720 104 720 120 720 c 2,27,-1
 292 720 l 2,28,29
 308 720 308 720 319 709.5 c 128,-1,30
 330 699 330 699 332 683 c 1,31,-1
 288 683 l 2,32,33
 272 683 272 683 260 671.5 c 128,-1,34
 248 660 248 660 248 643 c 128,-1,35
 248 626 248 626 260 614.5 c 128,-1,36
 272 603 272 603 288 603 c 2,37,-1
 457 603 l 2,38,39
 474 603 474 603 485.5 614.5 c 128,-1,40
 497 626 497 626 497 643 c 128,-1,41
 497 660 497 660 485.5 671.5 c 128,-1,42
 474 683 474 683 457 683 c 2,43,-1
 412 683 l 1,44,45
 410 732 410 732 375.5 766 c 128,-1,46
 341 800 341 800 292 800 c 2,47,-1
 120 800 l 2,48,49
 70 800 70 800 35 765 c 128,-1,50
 0 730 0 730 0 680 c 2,51,-1
 0 89 l 2,52,53
 0 44 0 44 29 10.5 c 128,-1,54
 58 -23 58 -23 102 -30 c 1,55,-1
 102 -120 l 1,56,-1
 40 -120 l 2,57,58
 24 -120 24 -120 12 -132 c 128,-1,59
 0 -144 0 -144 0 -160 c 128,-1,60
 0 -176 0 -176 12 -188 c 128,-1,61
 24 -200 24 -200 40 -200 c 2,62,-1
 457 -200 l 2,63,64
 474 -200 474 -200 485.5 -188 c 128,-1,65
 497 -176 497 -176 497 -160 c 128,-1,66
 497 -144 497 -144 485.5 -132 c 128,-1,67
 474 -120 474 -120 457 -120 c 2,68,-1
 182 -120 l 1,69,-1
 182 -31 l 1,70,-1
 292 -31 l 2,0,1
556 519 m 0,71,72
 519 547 519 547 463 531 c 0,73,74
 373 508 373 508 281 531 c 0,75,76
 225 547 225 547 188 519 c 0,77,78
 153 493 153 493 153 441 c 2,79,-1
 153 327 l 2,80,81
 153 275 153 275 188 249 c 0,82,83
 212 231 212 231 244 231 c 0,84,85
 263 231 263 231 281 237 c 0,86,87
 371 260 371 260 463 237 c 0,88,89
 519 221 519 221 556 249 c 0,90,91
 591 275 591 275 591 327 c 2,92,-1
 591 441 l 2,93,94
 591 493 591 493 556 519 c 0,71,72
511 328 m 1,95,96
 511 317 511 317 508 314 c 0,97,98
 501 310 501 310 484 315 c 1,99,-1
 483 315 l 1,100,101
 427 329 427 329 372 329 c 128,-1,102
 317 329 317 329 261 315 c 1,103,-1
 260 315 l 1,104,105
 243 310 243 310 236 314 c 0,106,107
 233 317 233 317 233 328 c 2,108,-1
 233 441 l 2,109,110
 233 452 233 452 236 455 c 0,111,112
 243 459 243 459 260 454 c 1,113,-1
 261 454 l 1,114,115
 372 425 372 425 484 454 c 1,116,-1
 485 454 l 1,117,118
 502 459 502 459 509 455 c 0,119,120
 512 452 512 452 512 441 c 2,121,-1
 512 328 l 1,122,-1
 511 328 l 1,95,96
EndSplineSet
Validated: 41
Ligature2: "'liga' Ligaduras est+AOEA-ndar en Latin b+APoA-squeda 0 subtabla" c o m p r e s s
EndChar

StartChar: rename
Encoding: 57422 57422 140
Width: 1000
GlyphClass: 3
Flags: W
LayerCount: 2
Fore
SplineSet
419 129 m 2,0,-1
 120 129 l 2,1,2
 104 129 104 129 92 140.5 c 128,-1,3
 80 152 80 152 80 169 c 2,4,-1
 80 431 l 2,5,6
 80 448 80 448 92 459.5 c 128,-1,7
 104 471 104 471 120 471 c 2,8,-1
 421 471 l 2,9,10
 438 471 438 471 449.5 482.5 c 128,-1,11
 461 494 461 494 461 511 c 128,-1,12
 461 528 461 528 449.5 539.5 c 128,-1,13
 438 551 438 551 421 551 c 2,14,-1
 120 551 l 2,15,16
 70 551 70 551 35 515.5 c 128,-1,17
 0 480 0 480 0 431 c 2,18,-1
 0 169 l 2,19,20
 0 120 0 120 35 84.5 c 128,-1,21
 70 49 70 49 120 49 c 2,22,-1
 419 49 l 2,23,24
 436 49 436 49 447.5 60.5 c 128,-1,25
 459 72 459 72 459 89 c 128,-1,26
 459 106 459 106 447.5 117.5 c 128,-1,27
 436 129 436 129 419 129 c 2,0,-1
880 551 m 2,28,-1
 620 551 l 1,29,-1
 620 631 l 1,30,-1
 662 631 l 2,31,32
 678 631 678 631 690 642.5 c 128,-1,33
 702 654 702 654 702 671 c 128,-1,34
 702 688 702 688 690 699.5 c 128,-1,35
 678 711 678 711 662 711 c 2,36,-1
 498 711 l 2,37,38
 482 711 482 711 470 699.5 c 128,-1,39
 458 688 458 688 458 671 c 128,-1,40
 458 654 458 654 470 642.5 c 128,-1,41
 482 631 482 631 498 631 c 2,42,-1
 540 631 l 1,43,-1
 540 -31 l 1,44,-1
 498 -31 l 2,45,46
 482 -31 482 -31 470 -42.5 c 128,-1,47
 458 -54 458 -54 458 -71 c 128,-1,48
 458 -88 458 -88 470 -99.5 c 128,-1,49
 482 -111 482 -111 498 -111 c 2,50,-1
 663 -111 l 2,51,52
 680 -111 680 -111 691.5 -99.5 c 128,-1,53
 703 -88 703 -88 703 -71 c 128,-1,54
 703 -54 703 -54 691.5 -42.5 c 128,-1,55
 680 -31 680 -31 663 -31 c 2,56,-1
 620 -31 l 1,57,-1
 620 49 l 1,58,-1
 880 49 l 2,59,60
 930 49 930 49 965 84.5 c 128,-1,61
 1000 120 1000 120 1000 169 c 2,62,-1
 1000 431 l 2,63,64
 1000 480 1000 480 965 515.5 c 128,-1,65
 930 551 930 551 880 551 c 2,28,-1
920 169 m 2,66,67
 920 152 920 152 908 140.5 c 128,-1,68
 896 129 896 129 880 129 c 2,69,-1
 620 129 l 1,70,-1
 620 471 l 1,71,-1
 880 471 l 2,72,73
 896 471 896 471 908 459.5 c 128,-1,74
 920 448 920 448 920 431 c 2,75,-1
 920 169 l 2,66,67
170 391 m 2,76,77
 160 391 160 391 160 381 c 2,78,-1
 160 219 l 2,79,80
 160 209 160 209 170 209 c 2,81,-1
 448 209 l 2,82,83
 458 209 458 209 458 219 c 2,84,-1
 458 381 l 2,85,86
 458 391 458 391 448 391 c 2,87,-1
 170 391 l 2,76,77
EndSplineSet
Validated: 9
Ligature2: "'liga' Ligaduras est+AOEA-ndar en Latin b+APoA-squeda 0 subtabla" r e n a m e
EndChar

StartChar: copy
Encoding: 57423 57423 141
Width: 851
GlyphClass: 3
Flags: W
LayerCount: 2
Fore
SplineSet
833 389 m 0,0,1
 830 396 830 396 823 403 c 2,2,-1
 816 410 l 1,3,-1
 596 630 l 1,4,5
 596 630 596 630 589 637 c 256,6,7
 582 644 582 644 575 647 c 0,8,9
 546 665 546 665 512 665 c 2,10,-1
 480 665 l 1,11,-1
 381 764 l 1,12,-1
 381 764 l 1,13,-1
 374 771 l 2,14,15
 367 778 367 778 360 781 c 0,16,17
 331 800 331 800 295 800 c 2,18,-1
 120 800 l 2,19,20
 70 800 70 800 35 765 c 128,-1,21
 0 730 0 730 0 680 c 2,22,-1
 0 54 l 2,23,24
 0 4 0 4 35 -31 c 128,-1,25
 70 -66 70 -66 120 -66 c 2,26,-1
 215 -66 l 1,27,-1
 215 -80 l 2,28,29
 215 -130 215 -130 250.5 -165 c 128,-1,30
 286 -200 286 -200 335 -200 c 2,31,-1
 731 -200 l 2,32,33
 780 -200 780 -200 815.5 -165 c 128,-1,34
 851 -130 851 -130 851 -80 c 2,35,-1
 851 326 l 2,36,37
 851 362 851 362 833 389 c 0,0,1
584 530 m 1,38,-1
 714 400 l 1,39,-1
 624 400 l 2,40,41
 608 400 608 400 596 412 c 128,-1,42
 584 424 584 424 584 440 c 2,43,-1
 584 530 l 1,38,-1
120 14 m 1,44,45
 104 14 104 14 92 26 c 128,-1,46
 80 38 80 38 80 54 c 2,47,-1
 80 680 l 2,48,49
 80 696 80 696 92 708 c 128,-1,50
 104 720 104 720 120 720 c 2,51,-1
 289 720 l 1,52,-1
 289 657 l 1,53,54
 256 643 256 643 236 613 c 128,-1,55
 216 583 216 583 216 547 c 2,56,-1
 216 15 l 1,57,-1
 120 15 l 1,58,-1
 120 14 l 1,44,45
731 -120 m 2,59,-1
 335 -120 l 2,60,61
 318 -120 318 -120 306.5 -108 c 128,-1,62
 295 -96 295 -96 295 -80 c 2,63,-1
 295 546 l 2,64,65
 295 562 295 562 306.5 574 c 128,-1,66
 318 586 318 586 335 586 c 2,67,-1
 504 586 l 1,68,-1
 504 439 l 2,69,70
 504 390 504 390 539 354.5 c 128,-1,71
 574 319 574 319 624 319 c 2,72,-1
 771 319 l 1,73,-1
 771 -80 l 2,74,75
 771 -96 771 -96 759.5 -108 c 128,-1,76
 748 -120 748 -120 731 -120 c 2,59,-1
EndSplineSet
Validated: 9
Ligature2: "'liga' Ligaduras est+AOEA-ndar en Latin b+APoA-squeda 0 subtabla" c o p y
EndChar

StartChar: dashboard
Encoding: 57424 57424 142
Width: 1000
GlyphClass: 3
Flags: W
LayerCount: 2
Fore
SplineSet
500 800 m 128,-1,1
 364 800 364 800 249 733 c 128,-1,2
 134 666 134 666 67 551 c 128,-1,3
 0 436 0 436 0 300 c 128,-1,4
 0 164 0 164 67 49 c 128,-1,5
 134 -66 134 -66 249 -133 c 128,-1,6
 364 -200 364 -200 500 -200 c 128,-1,7
 636 -200 636 -200 751 -133 c 128,-1,8
 866 -66 866 -66 933 49 c 128,-1,9
 1000 164 1000 164 1000 300 c 128,-1,10
 1000 436 1000 436 933 551 c 128,-1,11
 866 666 866 666 751 733 c 128,-1,0
 636 800 636 800 500 800 c 128,-1,1
500 -120 m 128,-1,13
 326 -120 326 -120 203 3 c 128,-1,14
 80 126 80 126 80 300 c 128,-1,15
 80 474 80 474 203 597 c 128,-1,16
 326 720 326 720 500 720 c 128,-1,17
 674 720 674 720 797 597 c 128,-1,18
 920 474 920 474 920 300 c 128,-1,19
 920 126 920 126 797 3 c 128,-1,12
 674 -120 674 -120 500 -120 c 128,-1,13
836 413 m 0,20,21
 831 429 831 429 816 436 c 128,-1,22
 801 443 801 443 785 438 c 128,-1,23
 769 433 769 433 762 418 c 128,-1,24
 755 403 755 403 760 387 c 0,25,26
 774 343 774 343 774 300 c 0,27,28
 774 230 774 230 742 171 c 0,29,30
 734 157 734 157 739 140.5 c 128,-1,31
 744 124 744 124 758 117 c 0,32,33
 768 112 768 112 777 112 c 0,34,35
 801 112 801 112 812 133 c 0,36,37
 854 212 854 212 854 300 c 0,38,39
 854 358 854 358 836 413 c 0,20,21
500 574 m 0,40,41
 543 574 543 574 587 560 c 0,42,43
 603 555 603 555 618 562 c 128,-1,44
 633 569 633 569 638 585 c 128,-1,45
 643 601 643 601 636 616 c 128,-1,46
 629 631 629 631 613 636 c 0,47,48
 559 654 559 654 500 654 c 0,49,50
 354 654 354 654 250 550 c 128,-1,51
 146 446 146 446 146 300 c 0,52,53
 146 212 146 212 188 133 c 0,54,55
 199 112 199 112 223 112 c 0,56,57
 232 112 232 112 242 117 c 0,58,59
 256 125 256 125 261 141 c 128,-1,60
 266 157 266 157 258 171 c 0,61,62
 226 232 226 232 226 300 c 0,63,64
 226 413 226 413 306.5 493.5 c 128,-1,65
 387 574 387 574 500 574 c 0,40,41
750 493 m 2,66,67
 762 505 762 505 762 521.5 c 128,-1,68
 762 538 762 538 750 550 c 128,-1,69
 738 562 738 562 721.5 562 c 128,-1,70
 705 562 705 562 693 550 c 2,71,-1
 546 402 l 1,72,73
 523 412 523 412 500 412 c 0,74,75
 454 412 454 412 421 379 c 128,-1,76
 388 346 388 346 388 300 c 128,-1,77
 388 254 388 254 421 221 c 128,-1,78
 454 188 454 188 500 188 c 128,-1,79
 546 188 546 188 579 221 c 128,-1,80
 612 254 612 254 612 300 c 0,81,82
 612 323 612 323 602 346 c 1,83,-1
 750 493 l 2,66,67
500 268 m 128,-1,85
 486 268 486 268 477 277 c 128,-1,86
 468 286 468 286 468 300 c 128,-1,87
 468 314 468 314 477 323 c 128,-1,88
 486 332 486 332 500 332 c 128,-1,89
 514 332 514 332 523 323 c 128,-1,90
 532 314 532 314 532 300 c 128,-1,91
 532 286 532 286 523 277 c 128,-1,84
 514 268 514 268 500 268 c 128,-1,85
EndSplineSet
Validated: 9
Ligature2: "'liga' Ligaduras est+AOEA-ndar en Latin b+APoA-squeda 0 subtabla" d a s h b o a r d
EndChar

StartChar: package
Encoding: 57425 57425 143
Width: 1001
GlyphClass: 3
Flags: W
LayerCount: 2
Fore
SplineSet
967 576 m 2,0,-1
 540 726 l 2,1,2
 500 740 500 740 460 726 c 2,3,-1
 33 576 l 2,4,5
 0 564 0 564 0 529 c 2,6,-1
 0 122 l 2,7,8
 0 84 0 84 22 53 c 128,-1,9
 44 22 44 22 80 9 c 2,10,-1
 433 -115 l 2,11,12
 462 -126 462 -126 499 -126 c 0,13,14
 532 -126 532 -126 565 -115 c 2,15,-1
 920 8 l 2,16,17
 956 21 956 21 978 52 c 128,-1,18
 1000 83 1000 83 1000 121 c 2,19,-1
 1000 529 l 2,20,21
 1000 564 1000 564 967 576 c 2,0,-1
514 407 m 2,22,23
 500 402 500 402 485 407 c 2,24,-1
 380 444 l 1,25,-1
 740 571 l 1,26,-1
 859 529 l 1,27,-1
 514 407 l 2,22,23
487 650 m 2,28,29
 500 654 500 654 514 650 c 2,30,-1
 620 613 l 1,31,-1
 260 487 l 1,32,-1
 141 529 l 1,33,-1
 487 650 l 2,28,29
107 84 m 2,34,35
 80 92 80 92 80 121 c 2,36,-1
 80 465 l 1,37,-1
 220 416 l 1,38,-1
 220 258 l 2,39,40
 220 242 220 242 232 230 c 128,-1,41
 244 218 244 218 260 218 c 128,-1,42
 276 218 276 218 288 230 c 128,-1,43
 300 242 300 242 300 258 c 2,44,-1
 300 388 l 1,45,-1
 459 332 l 1,46,-1
 460 332 l 1,47,-1
 460 -40 l 1,48,-1
 107 84 l 2,34,35
893 84 m 2,49,-1
 540 -41 l 1,50,-1
 540 331 l 1,51,-1
 541 331 l 1,52,-1
 920 465 l 1,53,-1
 920 121 l 2,54,55
 920 92 920 92 893 84 c 2,49,-1
EndSplineSet
Validated: 41
Ligature2: "'liga' Ligaduras est+AOEA-ndar en Latin b+APoA-squeda 0 subtabla" p a c k a g e
EndChar

StartChar: db
Encoding: 57426 57426 144
Width: 814
GlyphClass: 3
Flags: W
LayerCount: 2
Fore
SplineSet
407 800 m 128,-1,1
 374 800 374 800 337 798.5 c 128,-1,2
 300 797 300 797 235.5 790 c 128,-1,3
 171 783 171 783 122.5 770.5 c 128,-1,4
 74 758 74 758 37 733 c 128,-1,5
 0 708 0 708 0 674 c 2,6,-1
 0 -75 l 2,7,8
 0 -109 0 -109 37 -134 c 128,-1,9
 74 -159 74 -159 122.5 -171.5 c 128,-1,10
 171 -184 171 -184 235.5 -191 c 128,-1,11
 300 -198 300 -198 337 -199.5 c 128,-1,12
 374 -201 374 -201 407 -201 c 128,-1,13
 440 -201 440 -201 477 -199.5 c 128,-1,14
 514 -198 514 -198 578.5 -191 c 128,-1,15
 643 -184 643 -184 691.5 -171.5 c 128,-1,16
 740 -159 740 -159 777 -134 c 128,-1,17
 814 -109 814 -109 814 -75 c 2,18,-1
 814 674 l 2,19,20
 814 708 814 708 777 733 c 128,-1,21
 740 758 740 758 691.5 770.5 c 128,-1,22
 643 783 643 783 578.5 790 c 128,-1,23
 514 797 514 797 477 798.5 c 128,-1,0
 440 800 440 800 407 800 c 128,-1,1
734 312 m 1,24,25
 713 294 713 294 624.5 277 c 128,-1,26
 536 260 536 260 407 260 c 128,-1,27
 278 260 278 260 189.5 277 c 128,-1,28
 101 294 101 294 80 312 c 1,29,-1
 80 592 l 1,30,31
 193 548 193 548 407 548 c 128,-1,32
 621 548 621 548 734 592 c 1,33,-1
 734 312 l 1,24,25
407 720 m 128,-1,35
 523 720 523 720 606.5 706 c 128,-1,36
 690 692 690 692 724 674 c 1,37,38
 690 657 690 657 606.5 643 c 128,-1,39
 523 629 523 629 407 629 c 128,-1,40
 291 629 291 629 207.5 643 c 128,-1,41
 124 657 124 657 90 675 c 1,42,43
 124 692 124 692 207.5 706 c 128,-1,34
 291 720 291 720 407 720 c 128,-1,35
407 -120 m 128,-1,45
 278 -120 278 -120 189.5 -103 c 128,-1,46
 101 -86 101 -86 80 -68 c 1,47,-1
 80 223 l 1,48,49
 193 179 193 179 407 179 c 128,-1,50
 621 179 621 179 734 223 c 1,51,-1
 734 -68 l 1,52,53
 713 -86 713 -86 624.5 -103 c 128,-1,44
 536 -120 536 -120 407 -120 c 128,-1,45
EndSplineSet
Validated: 9
Ligature2: "'liga' Ligaduras est+AOEA-ndar en Latin b+APoA-squeda 0 subtabla" d b
EndChar

StartChar: db_segmented
Encoding: 57427 57427 145
Width: 814
GlyphClass: 3
Flags: W
LayerCount: 2
Fore
SplineSet
407 800 m 128,-1,1
 374 800 374 800 337 798.5 c 128,-1,2
 300 797 300 797 235.5 790 c 128,-1,3
 171 783 171 783 122.5 770.5 c 128,-1,4
 74 758 74 758 37 733 c 128,-1,5
 0 708 0 708 0 674 c 2,6,-1
 0 -75 l 2,7,8
 0 -109 0 -109 37 -134 c 128,-1,9
 74 -159 74 -159 122.5 -171.5 c 128,-1,10
 171 -184 171 -184 235.5 -191 c 128,-1,11
 300 -198 300 -198 337 -199.5 c 128,-1,12
 374 -201 374 -201 407 -201 c 128,-1,13
 440 -201 440 -201 477 -199.5 c 128,-1,14
 514 -198 514 -198 578.5 -191 c 128,-1,15
 643 -184 643 -184 691.5 -171.5 c 128,-1,16
 740 -159 740 -159 777 -134 c 128,-1,17
 814 -109 814 -109 814 -75 c 2,18,-1
 814 674 l 2,19,20
 814 708 814 708 777 733 c 128,-1,21
 740 758 740 758 691.5 770.5 c 128,-1,22
 643 783 643 783 578.5 790 c 128,-1,23
 514 797 514 797 477 798.5 c 128,-1,0
 440 800 440 800 407 800 c 128,-1,1
407 720 m 128,-1,25
 523 720 523 720 606.5 706 c 128,-1,26
 690 692 690 692 724 674 c 1,27,28
 690 657 690 657 606.5 643 c 128,-1,29
 523 629 523 629 407 629 c 128,-1,30
 291 629 291 629 207.5 643 c 128,-1,31
 124 657 124 657 90 675 c 1,32,33
 124 692 124 692 207.5 706 c 128,-1,24
 291 720 291 720 407 720 c 128,-1,25
367 549 m 1,34,-1
 367 260 l 1,35,36
 291 261 291 261 216 272 c 1,37,-1
 216 561 l 1,38,39
 285 551 285 551 367 549 c 1,34,-1
367 180 m 1,40,-1
 367 -119 l 1,41,42
 291 -118 291 -118 216 -107 c 1,43,-1
 216 191 l 1,44,45
 288 182 288 182 367 180 c 1,40,-1
447 180 m 1,46,47
 525 182 525 182 597 191 c 1,48,-1
 597 -107 l 1,49,50
 522 -118 522 -118 447 -119 c 1,51,-1
 447 180 l 1,46,47
447 260 m 1,52,-1
 447 549 l 1,53,54
 525 551 525 551 597 560 c 1,55,-1
 597 272 l 1,56,57
 524 261 524 261 447 260 c 1,52,-1
80 592 m 1,58,59
 99 584 99 584 136 575 c 1,60,-1
 136 288 l 1,61,62
 93 300 93 300 80 311 c 1,63,-1
 80 592 l 1,58,59
80 223 m 1,64,65
 99 215 99 215 136 206 c 1,66,-1
 136 -91 l 1,67,68
 93 -79 93 -79 80 -68 c 1,69,-1
 80 223 l 1,64,65
734 -68 m 1,70,71
 721 -79 721 -79 677 -91 c 1,72,-1
 677 206 l 1,73,74
 701 212 701 212 734 223 c 1,75,-1
 734 -68 l 1,70,71
734 312 m 1,76,77
 721 301 721 301 677 289 c 1,78,-1
 677 575 l 1,79,80
 701 581 701 581 734 592 c 1,81,-1
 734 312 l 1,76,77
EndSplineSet
Validated: 9
Ligature2: "'liga' Ligaduras est+AOEA-ndar en Latin b+APoA-squeda 0 subtabla" d b underscore s e g m e n t e d
EndChar

StartChar: share
Encoding: 57428 57428 146
Width: 990
GlyphClass: 3
Flags: W
LayerCount: 2
Fore
SplineSet
985 89 m 0,0,1
 972 135 972 135 938 163 c 1,2,3
 947 207 947 207 947 251 c 0,4,5
 947 396 947 396 862 514 c 128,-1,6
 777 632 777 632 640 679 c 1,7,8
 630 731 630 731 589 765.5 c 128,-1,9
 548 800 548 800 494.5 800 c 128,-1,10
 441 800 441 800 400 765.5 c 128,-1,11
 359 731 359 731 350 679 c 1,12,13
 213 632 213 632 128.5 514.5 c 128,-1,14
 44 397 44 397 44 251 c 0,15,16
 44 206 44 206 53 163 c 1,17,18
 12 129 12 129 2.5 76.5 c 128,-1,19
 -7 24 -7 24 20 -23 c 0,20,21
 50 -75 50 -75 109 -92 c 0,22,23
 130 -97 130 -97 147 -97 c 0,24,25
 173 -97 173 -97 197 -88 c 1,26,27
 326 -200 326 -200 495 -200 c 128,-1,28
 664 -200 664 -200 793 -88 c 1,29,30
 817 -97 817 -97 843 -97 c 0,31,32
 861 -97 861 -97 881 -92 c 0,33,34
 940 -76 940 -76 970 -23 c 0,35,36
 1000 29 1000 29 985 89 c 0,0,1
866 251 m 0,37,38
 866 220 866 220 862 196 c 1,39,40
 835 200 835 200 804 192 c 0,41,42
 765 181 765 181 739 155 c 1,43,-1
 637 214 l 1,44,45
 642 234 642 234 642 250 c 0,46,47
 642 300 642 300 612 339 c 128,-1,48
 582 378 582 378 535 392 c 1,49,-1
 535 511 l 1,50,51
 567 520 567 520 592.5 542.5 c 128,-1,52
 618 565 618 565 631 597 c 1,53,54
 737 556 737 556 801.5 461 c 128,-1,55
 866 366 866 366 866 251 c 0,37,38
494.5 319 m 128,-1,57
 522 319 522 319 542 299.5 c 128,-1,58
 562 280 562 280 562 252 c 128,-1,59
 562 224 562 224 542 204.5 c 128,-1,60
 522 185 522 185 494.5 185 c 128,-1,61
 467 185 467 185 447.5 204.5 c 128,-1,62
 428 224 428 224 428 252 c 128,-1,63
 428 280 428 280 447.5 299.5 c 128,-1,56
 467 319 467 319 494.5 319 c 128,-1,57
494.5 720 m 128,-1,65
 522 720 522 720 542 700.5 c 128,-1,66
 562 681 562 681 562 653 c 128,-1,67
 562 625 562 625 542 605.5 c 128,-1,68
 522 586 522 586 494.5 586 c 128,-1,69
 467 586 467 586 447.5 605.5 c 128,-1,70
 428 625 428 625 428 653 c 128,-1,71
 428 681 428 681 447.5 700.5 c 128,-1,64
 467 720 467 720 494.5 720 c 128,-1,65
359 597 m 1,72,73
 371 566 371 566 396.5 543.5 c 128,-1,74
 422 521 422 521 455 511 c 1,75,-1
 455 393 l 1,76,77
 408 380 408 380 378 341 c 128,-1,78
 348 302 348 302 348 251 c 0,79,80
 348 233 348 233 353 215 c 1,81,-1
 251 156 l 1,82,83
 222 183 222 183 186 193 c 0,84,85
 158 200 158 200 128 197 c 1,86,87
 124 221 124 221 124 252 c 0,88,89
 124 366 124 366 188.5 461 c 128,-1,90
 253 556 253 556 359 597 c 1,72,73
130 -14 m 0,91,92
 102 -6 102 -6 89 17 c 0,93,94
 74 41 74 41 81.5 68 c 128,-1,95
 89 95 89 95 114 109 c 0,96,97
 129 118 129 118 148 118 c 0,98,99
 154 118 154 118 166 116 c 0,100,101
 193 108 193 108 207 85 c 0,102,103
 220 61 220 61 214 34 c 0,104,105
 206 7 206 7 183 -7 c 0,106,107
 156 -22 156 -22 130 -14 c 0,91,92
264 -39 m 1,108,109
 282 -16 282 -16 290 13 c 0,110,111
 300 51 300 51 290 87 c 1,112,-1
 392 146 l 1,113,114
 435 104 435 104 494.5 104 c 128,-1,115
 554 104 554 104 598 146 c 1,116,-1
 700 87 l 1,117,118
 690 50 690 50 700 13 c 0,119,120
 707 -16 707 -16 726 -39 c 1,121,122
 626 -120 626 -120 494.5 -120 c 128,-1,123
 363 -120 363 -120 264 -39 c 1,108,109
901 17 m 0,124,125
 887 -8 887 -8 860 -14 c 0,126,127
 834 -21 834 -21 809 -7 c 256,128,129
 784 7 784 7 778 34 c 0,130,131
 770 59 770 59 785 85 c 0,132,133
 799 110 799 110 826 116 c 0,134,135
 832 118 832 118 844 118 c 0,136,137
 861 118 861 118 878 109 c 0,138,139
 903 95 903 95 909 68 c 0,140,141
 914 40 914 40 901 17 c 0,124,125
EndSplineSet
Validated: 41
Ligature2: "'liga' Ligaduras est+AOEA-ndar en Latin b+APoA-squeda 0 subtabla" s h a r e
EndChar

StartChar: add
Encoding: 57429 57429 147
Width: 1000
GlyphClass: 3
Flags: W
LayerCount: 2
Fore
SplineSet
500 800 m 128,-1,1
 364 800 364 800 249 733 c 128,-1,2
 134 666 134 666 67 551 c 128,-1,3
 0 436 0 436 0 300 c 128,-1,4
 0 164 0 164 67 49 c 128,-1,5
 134 -66 134 -66 249 -133 c 128,-1,6
 364 -200 364 -200 500 -200 c 128,-1,7
 636 -200 636 -200 751 -133 c 128,-1,8
 866 -66 866 -66 933 49 c 128,-1,9
 1000 164 1000 164 1000 300 c 128,-1,10
 1000 436 1000 436 933 551 c 128,-1,11
 866 666 866 666 751 733 c 128,-1,0
 636 800 636 800 500 800 c 128,-1,1
500 -120 m 128,-1,13
 326 -120 326 -120 203 3 c 128,-1,14
 80 126 80 126 80 300 c 128,-1,15
 80 474 80 474 203 597 c 128,-1,16
 326 720 326 720 500 720 c 128,-1,17
 674 720 674 720 797 597 c 128,-1,18
 920 474 920 474 920 300 c 128,-1,19
 920 126 920 126 797 3 c 128,-1,12
 674 -120 674 -120 500 -120 c 128,-1,13
685 340 m 2,20,-1
 540 340 l 1,21,-1
 540 485 l 2,22,23
 540 502 540 502 528 513.5 c 128,-1,24
 516 525 516 525 500 525 c 128,-1,25
 484 525 484 525 472 513.5 c 128,-1,26
 460 502 460 502 460 485 c 2,27,-1
 460 340 l 1,28,-1
 315 340 l 2,29,30
 298 340 298 340 286.5 328 c 128,-1,31
 275 316 275 316 275 300 c 128,-1,32
 275 284 275 284 286.5 272 c 128,-1,33
 298 260 298 260 315 260 c 2,34,-1
 460 260 l 1,35,-1
 460 115 l 2,36,37
 460 98 460 98 472 86.5 c 128,-1,38
 484 75 484 75 500 75 c 128,-1,39
 516 75 516 75 528 86.5 c 128,-1,40
 540 98 540 98 540 115 c 2,41,-1
 540 260 l 1,42,-1
 685 260 l 2,43,44
 702 260 702 260 713.5 272 c 128,-1,45
 725 284 725 284 725 300 c 128,-1,46
 725 316 725 316 713.5 328 c 128,-1,47
 702 340 702 340 685 340 c 2,20,-1
EndSplineSet
Validated: 9
Ligature2: "'liga' Ligaduras est+AOEA-ndar en Latin b+APoA-squeda 0 subtabla" a d d
EndChar

StartChar: delete
Encoding: 57430 57430 148
Width: 1000
GlyphClass: 3
Flags: W
LayerCount: 2
Fore
SplineSet
500 -200 m 128,-1,1
 364 -200 364 -200 249 -133 c 128,-1,2
 134 -66 134 -66 67 49 c 128,-1,3
 0 164 0 164 0 300 c 128,-1,4
 0 436 0 436 67 551 c 128,-1,5
 134 666 134 666 249 733 c 128,-1,6
 364 800 364 800 500 800 c 128,-1,7
 636 800 636 800 751 733 c 128,-1,8
 866 666 866 666 933 551 c 128,-1,9
 1000 436 1000 436 1000 300 c 128,-1,10
 1000 164 1000 164 933 49 c 128,-1,11
 866 -66 866 -66 751 -133 c 128,-1,0
 636 -200 636 -200 500 -200 c 128,-1,1
500 720 m 128,-1,13
 326 720 326 720 203 597 c 128,-1,14
 80 474 80 474 80 300 c 128,-1,15
 80 126 80 126 203 3 c 128,-1,16
 326 -120 326 -120 500 -120 c 128,-1,17
 674 -120 674 -120 797 3 c 128,-1,18
 920 126 920 126 920 300 c 128,-1,19
 920 474 920 474 797 597 c 128,-1,12
 674 720 674 720 500 720 c 128,-1,13
685 260 m 2,20,-1
 315 260 l 2,21,22
 298 260 298 260 286.5 272 c 128,-1,23
 275 284 275 284 275 300 c 128,-1,24
 275 316 275 316 286.5 328 c 128,-1,25
 298 340 298 340 315 340 c 2,26,-1
 685 340 l 2,27,28
 702 340 702 340 713.5 328 c 128,-1,29
 725 316 725 316 725 300 c 128,-1,30
 725 284 725 284 713.5 272 c 128,-1,31
 702 260 702 260 685 260 c 2,20,-1
EndSplineSet
Validated: 1
Ligature2: "'liga' Ligaduras est+AOEA-ndar en Latin b+APoA-squeda 0 subtabla" d e l e t e
EndChar

StartChar: new
Encoding: 57431 57431 149
Width: 960
GlyphClass: 3
Flags: W
LayerCount: 2
Fore
SplineSet
480 -200 m 0,0,1
 440 -200 440 -200 406 -174 c 2,2,-1
 354 -133 l 2,3,4
 344 -124 344 -124 328 -124 c 2,5,-1
 262 -126 l 2,6,7
 221 -128 221 -128 187.5 -103.5 c 128,-1,8
 154 -79 154 -79 142 -39 c 2,9,-1
 124 25 l 2,10,11
 119 40 119 40 108 47 c 2,12,-1
 53 84 l 2,13,14
 19 107 19 107 6 146.5 c 128,-1,15
 -7 186 -7 186 7 225 c 2,16,-1
 30 287 l 2,17,18
 35 301 35 301 30 315 c 2,19,-1
 7 377 l 2,20,21
 -7 416 -7 416 6 455.5 c 128,-1,22
 19 495 19 495 53 518 c 2,23,-1
 108 555 l 2,24,25
 121 563 121 563 124 577 c 2,26,-1
 142 641 l 2,27,28
 154 681 154 681 187 705 c 128,-1,29
 220 729 220 729 262 728 c 2,30,-1
 328 726 l 2,31,32
 344 726 344 726 354 735 c 2,33,-1
 406 776 l 2,34,35
 439 801 439 801 480 800.5 c 128,-1,36
 521 800 521 800 554 774 c 2,37,-1
 606 733 l 2,38,39
 617 724 617 724 632 724 c 2,40,-1
 698 726 l 2,41,42
 740 727 740 727 773.5 703 c 128,-1,43
 807 679 807 679 818 639 c 2,44,-1
 836 575 l 2,45,46
 841 560 841 560 852 553 c 2,47,-1
 907 516 l 2,48,49
 942 493 942 493 955 453.5 c 128,-1,50
 968 414 968 414 953 375 c 2,51,-1
 930 313 l 2,52,53
 926 299 926 299 930 285 c 2,54,-1
 953 223 l 2,55,56
 968 184 968 184 955 144.5 c 128,-1,57
 942 105 942 105 907 82 c 2,58,-1
 852 45 l 2,59,60
 839 37 839 37 836 23 c 2,61,-1
 819 -40 l 2,62,63
 808 -79 808 -79 776 -103 c 128,-1,64
 744 -127 744 -127 704 -127 c 2,65,-1
 699 -127 l 1,66,-1
 633 -125 l 2,67,68
 618 -125 618 -125 607 -134 c 2,69,-1
 555 -175 l 2,70,71
 521 -200 521 -200 480 -200 c 0,0,1
329 -45 m 0,72,73
 371 -45 371 -45 403 -71 c 2,74,-1
 455 -112 l 2,75,76
 467 -120 467 -120 480.5 -120 c 128,-1,77
 494 -120 494 -120 504 -112 c 2,78,-1
 556 -71 l 2,79,80
 590 -43 590 -43 635 -45 c 2,81,-1
 701 -47 l 2,82,83
 715 -48 715 -48 726.5 -40 c 128,-1,84
 738 -32 738 -32 741 -18 c 2,85,-1
 759 46 l 2,86,87
 772 89 772 89 808 113 c 2,88,-1
 863 150 l 2,89,90
 875 158 875 158 879 171 c 128,-1,91
 883 184 883 184 878 197 c 2,92,-1
 855 259 l 2,93,94
 848 279 848 279 848 300.5 c 128,-1,95
 848 322 848 322 855 342 c 2,96,-1
 878 404 l 2,97,98
 883 417 883 417 878.5 430.5 c 128,-1,99
 874 444 874 444 863 451 c 2,100,-1
 808 488 l 2,101,102
 772 512 772 512 759 555 c 2,103,-1
 741 619 l 2,104,105
 738 632 738 632 726.5 640.5 c 128,-1,106
 715 649 715 649 701 648 c 2,107,-1
 635 646 l 2,108,109
 592 644 592 644 556 672 c 2,110,-1
 504 713 l 2,111,112
 493 721 493 721 479.5 721 c 128,-1,113
 466 721 466 721 455 713 c 2,114,-1
 403 670 l 2,115,116
 370 642 370 642 324 644 c 2,117,-1
 258 646 l 2,118,119
 245 647 245 647 233.5 638.5 c 128,-1,120
 222 630 222 630 218 617 c 2,121,-1
 200 554 l 2,122,123
 188 511 188 511 151 487 c 2,124,-1
 96 450 l 2,125,126
 85 442 85 442 80.5 429 c 128,-1,127
 76 416 76 416 81 403 c 2,128,-1
 104 341 l 2,129,130
 120 300 120 300 104 258 c 2,131,-1
 81 196 l 2,132,133
 77 183 77 183 81 169.5 c 128,-1,134
 85 156 85 156 96 149 c 2,135,-1
 151 112 l 2,136,137
 188 88 188 88 200 45 c 2,138,-1
 218 -19 l 2,139,140
 222 -33 222 -33 233 -41 c 128,-1,141
 244 -49 244 -49 258 -48 c 2,142,-1
 324 -46 l 2,143,144
 326 -45 326 -45 329 -45 c 0,72,73
EndSplineSet
Validated: 33
Ligature2: "'liga' Ligaduras est+AOEA-ndar en Latin b+APoA-squeda 0 subtabla" n e w
EndChar

StartChar: account_guest
Encoding: 57432 57432 150
Width: 999
GlyphClass: 3
Flags: W
LayerCount: 2
Fore
SplineSet
469 302 m 128,-1,1
 530 302 530 302 573 345 c 128,-1,2
 616 388 616 388 616 449 c 128,-1,3
 616 510 616 510 573 553 c 128,-1,4
 530 596 530 596 469 596 c 128,-1,5
 408 596 408 596 365 553 c 128,-1,6
 322 510 322 510 322 449 c 128,-1,7
 322 388 322 388 365 345 c 128,-1,0
 408 302 408 302 469 302 c 128,-1,1
469 516 m 128,-1,9
 497 516 497 516 516.5 496.5 c 128,-1,10
 536 477 536 477 536 449 c 128,-1,11
 536 421 536 421 516.5 401.5 c 128,-1,12
 497 382 497 382 469 382 c 128,-1,13
 441 382 441 382 421.5 401.5 c 128,-1,14
 402 421 402 421 402 449 c 128,-1,15
 402 477 402 477 421.5 496.5 c 128,-1,8
 441 516 441 516 469 516 c 128,-1,9
760 97 m 1,16,-1
 760 140 l 2,17,18
 760 156 760 156 748 168 c 128,-1,19
 736 180 736 180 720 180 c 128,-1,20
 704 180 704 180 692 168 c 128,-1,21
 680 156 680 156 680 140 c 2,22,-1
 680 80 l 2,23,24
 680 62 680 62 692 52 c 2,25,-1
 759 -15 l 2,26,27
 771 -27 771 -27 787 -27 c 128,-1,28
 803 -27 803 -27 815 -15 c 128,-1,29
 827 -3 827 -3 827 13.5 c 128,-1,30
 827 30 827 30 815 42 c 2,31,-1
 760 97 l 1,16,-1
933 262 m 1,32,33
 938 300 938 300 938 331 c 0,34,35
 939 524 939 524 801 662 c 128,-1,36
 663 800 663 800 469 800 c 0,37,38
 276 800 276 800 138 662 c 128,-1,39
 0 524 0 524 0 331 c 0,40,41
 0 204 0 204 63 95.5 c 128,-1,42
 126 -13 126 -13 234 -75.5 c 128,-1,43
 342 -138 342 -138 469 -138 c 0,44,45
 500 -138 500 -138 538 -133 c 1,46,47
 618 -200 618 -200 719 -200 c 0,48,49
 835 -200 835 -200 917 -118 c 128,-1,50
 999 -36 999 -36 999 80 c 0,51,52
 1000 183 1000 183 933 262 c 1,32,33
80 331 m 0,53,54
 80 492 80 492 194 606 c 128,-1,55
 308 720 308 720 469 720 c 128,-1,56
 630 720 630 720 744 606 c 128,-1,57
 858 492 858 492 858 331 c 2,58,-1
 858 324 l 1,59,60
 792 361 792 361 719 361 c 0,61,62
 647 361 647 361 585.5 327 c 128,-1,63
 524 293 524 293 485 235 c 1,64,-1
 334 235 l 2,65,66
 276 235 276 235 234 193.5 c 128,-1,67
 192 152 192 152 192 93 c 2,68,-1
 192 58 l 1,69,70
 80 172 80 172 80 331 c 0,53,54
272 -5 m 1,71,-1
 272 93 l 2,72,73
 272 118 272 118 290 136.5 c 128,-1,74
 308 155 308 155 334 155 c 2,75,-1
 449 155 l 1,76,77
 439 121 439 121 439 80 c 0,78,79
 439 4 439 4 476 -59 c 1,80,-1
 469 -59 l 2,81,82
 364 -59 364 -59 272 -5 c 1,71,-1
720 -120 m 0,83,84
 637 -120 637 -120 578.5 -61.5 c 128,-1,85
 520 -3 520 -3 520 80 c 0,86,87
 520 162 520 162 579 221 c 128,-1,88
 638 280 638 280 720 280 c 128,-1,89
 802 280 802 280 861 221 c 128,-1,90
 920 162 920 162 920 80 c 128,-1,91
 920 -2 920 -2 861 -61 c 128,-1,92
 802 -120 802 -120 720 -120 c 0,83,84
EndSplineSet
Validated: 41
Ligature2: "'liga' Ligaduras est+AOEA-ndar en Latin b+APoA-squeda 0 subtabla" a c c o u n t underscore g u e s t
EndChar

StartChar: experimental
Encoding: 57433 57433 151
Width: 859
GlyphClass: 3
Flags: W
LayerCount: 2
Fore
SplineSet
832 -3 m 2,0,-1
 590 288 l 2,1,2
 581 299 581 299 581 314 c 2,3,-1
 581 680 l 2,4,5
 581 696 581 696 592.5 708 c 128,-1,6
 604 720 604 720 621 720 c 2,7,-1
 671 720 l 2,8,9
 687 720 687 720 699 732 c 128,-1,10
 711 744 711 744 711 760 c 128,-1,11
 711 776 711 776 699 788 c 128,-1,12
 687 800 687 800 671 800 c 2,13,-1
 621 800 l 1,14,-1
 239 800 l 1,15,-1
 189 800 l 2,16,17
 172 800 172 800 160.5 788 c 128,-1,18
 149 776 149 776 149 760 c 128,-1,19
 149 744 149 744 160.5 732 c 128,-1,20
 172 720 172 720 189 720 c 2,21,-1
 239 720 l 2,22,23
 255 720 255 720 267 708 c 128,-1,24
 279 696 279 696 279 680 c 2,25,-1
 279 313 l 2,26,27
 279 299 279 299 270 287 c 2,28,-1
 28 -3 l 2,29,30
 5 -30 5 -30 1 -64.5 c 128,-1,31
 -3 -99 -3 -99 12 -131 c 128,-1,32
 27 -163 27 -163 56 -181.5 c 128,-1,33
 85 -200 85 -200 121 -200 c 2,34,-1
 740 -200 l 2,35,36
 775 -200 775 -200 804.5 -181.5 c 128,-1,37
 834 -163 834 -163 849 -131 c 0,38,39
 863 -99 863 -99 858.5 -64.5 c 128,-1,40
 854 -30 854 -30 832 -3 c 2,0,-1
776 -97 m 1,41,42
 762 -120 762 -120 740 -120 c 2,43,-1
 121 -120 l 2,44,45
 94 -120 94 -120 85 -97 c 1,46,47
 72 -76 72 -76 90 -54 c 2,48,-1
 332 237 l 2,49,50
 360 271 360 271 360 314 c 2,51,-1
 360 680 l 2,52,53
 360 697 360 697 353 720 c 1,54,-1
 508 720 l 1,55,56
 501 697 501 697 501 680 c 2,57,-1
 501 657 l 1,58,-1
 470 657 l 2,59,60
 453 657 453 657 441.5 645.5 c 128,-1,61
 430 634 430 634 430 617 c 128,-1,62
 430 600 430 600 441.5 588.5 c 128,-1,63
 453 577 453 577 470 577 c 2,64,-1
 501 577 l 1,65,-1
 501 533 l 1,66,-1
 470 533 l 2,67,68
 453 533 453 533 441.5 521.5 c 128,-1,69
 430 510 430 510 430 493 c 128,-1,70
 430 476 430 476 441.5 464.5 c 128,-1,71
 453 453 453 453 470 453 c 2,72,-1
 501 453 l 1,73,-1
 501 409 l 1,74,-1
 470 409 l 2,75,76
 453 409 453 409 441.5 397.5 c 128,-1,77
 430 386 430 386 430 369 c 128,-1,78
 430 352 430 352 441.5 340.5 c 128,-1,79
 453 329 453 329 470 329 c 2,80,-1
 501 329 l 1,81,-1
 501 313 l 2,82,83
 501 270 501 270 529 236 c 2,84,-1
 770 -54 l 2,85,86
 785 -74 785 -74 776 -97 c 1,41,42
EndSplineSet
Validated: 41
Ligature2: "'liga' Ligaduras est+AOEA-ndar en Latin b+APoA-squeda 0 subtabla" e x p e r i m e n t a l
EndChar

StartChar: fav
Encoding: 57434 57434 152
Width: 1000
GlyphClass: 3
Flags: W
LayerCount: 2
Fore
SplineSet
500 -143 m 128,-1,1
 467 -143 467 -143 438 -126 c 0,2,3
 392 -98 392 -98 347.5 -67 c 128,-1,4
 303 -36 303 -36 241 18.5 c 128,-1,5
 179 73 179 73 132 129.5 c 128,-1,6
 85 186 85 186 47.5 261 c 128,-1,7
 10 336 10 336 2 411 c 0,8,9
 -12 546 -12 546 76 647 c 0,10,11
 161 741 161 741 284 743 c 0,12,13
 391 745 391 745 474 676 c 0,14,15
 500 656 500 656 525 676 c 0,16,17
 606 745 606 745 715 743 c 0,18,19
 838 741 838 741 923 646 c 0,20,21
 1011 545 1011 545 997 411 c 0,22,23
 989 336 989 336 951.5 260.5 c 128,-1,24
 914 185 914 185 867 129 c 128,-1,25
 820 73 820 73 758.5 18.5 c 128,-1,26
 697 -36 697 -36 652 -67.5 c 128,-1,27
 607 -99 607 -99 562 -126 c 0,28,0
 533 -143 533 -143 500 -143 c 128,-1,1
289 663 m 2,29,-1
 285 663 l 2,30,31
 195 661 195 661 136 593 c 0,32,33
 71 519 71 519 82 419 c 0,34,35
 89 352 89 352 125.5 283.5 c 128,-1,36
 162 215 162 215 207 164.5 c 128,-1,37
 252 114 252 114 310.5 64.5 c 128,-1,38
 369 15 369 15 406.5 -11 c 128,-1,39
 444 -37 444 -37 479 -58 c 0,40,41
 500 -71 500 -71 521 -58 c 0,42,43
 557 -36 557 -36 594 -10.5 c 128,-1,44
 631 15 631 15 690 65 c 128,-1,45
 749 115 749 115 793.5 165.5 c 128,-1,46
 838 216 838 216 874.5 284 c 128,-1,47
 911 352 911 352 918 419 c 0,48,49
 929 518 929 518 864 593 c 0,50,51
 803 661 803 661 715 663 c 0,52,53
 637 665 637 665 577 614 c 0,54,55
 544 586 544 586 500.5 586 c 128,-1,56
 457 586 457 586 423 614 c 0,57,58
 366 663 366 663 289 663 c 2,29,-1
EndSplineSet
Validated: 33
Ligature2: "'liga' Ligaduras est+AOEA-ndar en Latin b+APoA-squeda 0 subtabla" f a v
EndChar

StartChar: info
Encoding: 57435 57435 153
Width: 1000
GlyphClass: 3
Flags: W
LayerCount: 2
Fore
SplineSet
500 -200 m 128,-1,1
 364 -200 364 -200 249 -133 c 128,-1,2
 134 -66 134 -66 67 49 c 128,-1,3
 0 164 0 164 0 300 c 128,-1,4
 0 436 0 436 67 551 c 128,-1,5
 134 666 134 666 249 733 c 128,-1,6
 364 800 364 800 500 800 c 128,-1,7
 636 800 636 800 751 733 c 128,-1,8
 866 666 866 666 933 551 c 128,-1,9
 1000 436 1000 436 1000 300 c 128,-1,10
 1000 164 1000 164 933 49 c 128,-1,11
 866 -66 866 -66 751 -133 c 128,-1,0
 636 -200 636 -200 500 -200 c 128,-1,1
500 720 m 128,-1,13
 326 720 326 720 203 597 c 128,-1,14
 80 474 80 474 80 300 c 128,-1,15
 80 126 80 126 203 3 c 128,-1,16
 326 -120 326 -120 500 -120 c 128,-1,17
 674 -120 674 -120 797 3 c 128,-1,18
 920 126 920 126 920 300 c 128,-1,19
 920 474 920 474 797 597 c 128,-1,12
 674 720 674 720 500 720 c 128,-1,13
500 62 m 128,-1,21
 484 62 484 62 472 74 c 128,-1,22
 460 86 460 86 460 102 c 2,23,-1
 460 362 l 2,24,25
 460 378 460 378 472 390 c 128,-1,26
 484 402 484 402 500 402 c 128,-1,27
 516 402 516 402 528 390 c 128,-1,28
 540 378 540 378 540 362 c 2,29,-1
 540 102 l 2,30,31
 540 86 540 86 528 74 c 128,-1,20
 516 62 516 62 500 62 c 128,-1,21
460 515 m 128,-1,33
 460 498 460 498 471.5 486.5 c 128,-1,34
 483 475 483 475 500 475 c 128,-1,35
 517 475 517 475 528.5 486.5 c 128,-1,36
 540 498 540 498 540 515 c 128,-1,37
 540 532 540 532 528.5 543.5 c 128,-1,38
 517 555 517 555 500 555 c 128,-1,39
 483 555 483 555 471.5 543.5 c 128,-1,32
 460 532 460 532 460 515 c 128,-1,33
EndSplineSet
Validated: 9
Ligature2: "'liga' Ligaduras est+AOEA-ndar en Latin b+APoA-squeda 0 subtabla" i n f o
EndChar

StartChar: qr
Encoding: 57436 57436 154
Width: 1000
GlyphClass: 3
Flags: W
LayerCount: 2
Fore
SplineSet
40 477 m 128,-1,1
 24 477 24 477 12 488.5 c 128,-1,2
 0 500 0 500 0 517 c 2,3,-1
 0 680 l 2,4,5
 0 730 0 730 35 765 c 128,-1,6
 70 800 70 800 120 800 c 2,7,-1
 295 800 l 2,8,9
 312 800 312 800 323.5 788 c 128,-1,10
 335 776 335 776 335 760 c 128,-1,11
 335 744 335 744 323.5 732 c 128,-1,12
 312 720 312 720 295 720 c 2,13,-1
 120 720 l 2,14,15
 104 720 104 720 92 708 c 128,-1,16
 80 696 80 696 80 680 c 2,17,-1
 80 517 l 2,18,19
 80 500 80 500 68 488.5 c 128,-1,0
 56 477 56 477 40 477 c 128,-1,1
960 477 m 128,-1,21
 944 477 944 477 932 488.5 c 128,-1,22
 920 500 920 500 920 517 c 2,23,-1
 920 680 l 2,24,25
 920 696 920 696 908 708 c 128,-1,26
 896 720 896 720 880 720 c 2,27,-1
 705 720 l 2,28,29
 688 720 688 720 676.5 732 c 128,-1,30
 665 744 665 744 665 760 c 128,-1,31
 665 776 665 776 676.5 788 c 128,-1,32
 688 800 688 800 705 800 c 2,33,-1
 880 800 l 2,34,35
 930 800 930 800 965 765 c 128,-1,36
 1000 730 1000 730 1000 680 c 2,37,-1
 1000 517 l 2,38,39
 1000 500 1000 500 988 488.5 c 128,-1,20
 976 477 976 477 960 477 c 128,-1,21
295 -200 m 2,40,-1
 120 -200 l 2,41,42
 70 -200 70 -200 35 -165 c 128,-1,43
 0 -130 0 -130 0 -80 c 2,44,-1
 0 106 l 2,45,46
 0 122 0 122 12 134 c 128,-1,47
 24 146 24 146 40 146 c 128,-1,48
 56 146 56 146 68 134 c 128,-1,49
 80 122 80 122 80 106 c 2,50,-1
 80 -80 l 2,51,52
 80 -96 80 -96 92 -108 c 128,-1,53
 104 -120 104 -120 120 -120 c 2,54,-1
 295 -120 l 2,55,56
 312 -120 312 -120 323.5 -132 c 128,-1,57
 335 -144 335 -144 335 -160 c 128,-1,58
 335 -176 335 -176 323.5 -188 c 128,-1,59
 312 -200 312 -200 295 -200 c 2,40,-1
880 -200 m 2,60,-1
 705 -200 l 2,61,62
 688 -200 688 -200 676.5 -188 c 128,-1,63
 665 -176 665 -176 665 -160 c 128,-1,64
 665 -144 665 -144 676.5 -132 c 128,-1,65
 688 -120 688 -120 705 -120 c 2,66,-1
 880 -120 l 2,67,68
 896 -120 896 -120 908 -108 c 128,-1,69
 920 -96 920 -96 920 -80 c 2,70,-1
 920 106 l 2,71,72
 920 122 920 122 932 134 c 128,-1,73
 944 146 944 146 960 146 c 128,-1,74
 976 146 976 146 988 134 c 128,-1,75
 1000 122 1000 122 1000 106 c 2,76,-1
 1000 -80 l 2,77,78
 1000 -130 1000 -130 965 -165 c 128,-1,79
 930 -200 930 -200 880 -200 c 2,60,-1
395 365 m 1,80,-1
 149 365 l 1,81,-1
 148 406 l 1,82,-1
 148 651 l 1,83,-1
 189 652 l 1,84,-1
 434 652 l 1,85,-1
 435 611 l 1,86,-1
 435 366 l 1,87,-1
 395 365 l 1,80,-1
229 445 m 1,88,-1
 355 445 l 1,89,-1
 355 571 l 1,90,-1
 229 571 l 1,91,-1
 229 445 l 1,88,-1
811 365 m 1,92,-1
 565 365 l 1,93,-1
 565 406 l 1,94,-1
 565 651 l 1,95,-1
 605 652 l 1,96,-1
 850 652 l 1,97,-1
 850 611 l 1,98,-1
 850 366 l 1,99,-1
 811 365 l 1,92,-1
645 445 m 1,100,-1
 771 445 l 1,101,-1
 771 571 l 1,102,-1
 645 571 l 1,103,-1
 645 445 l 1,100,-1
395 -51 m 1,104,-1
 149 -51 l 1,105,-1
 148 -11 l 1,106,-1
 148 235 l 1,107,-1
 189 235 l 1,108,-1
 434 235 l 1,109,-1
 435 195 l 1,110,-1
 435 -50 l 1,111,-1
 395 -51 l 1,104,-1
229 29 m 1,112,-1
 355 29 l 1,113,-1
 355 155 l 1,114,-1
 229 155 l 1,115,-1
 229 29 l 1,112,-1
EndSplineSet
Validated: 1
Ligature2: "'liga' Ligaduras est+AOEA-ndar en Latin b+APoA-squeda 0 subtabla" q r
EndChar

StartChar: ios
Encoding: 57437 57437 155
Width: 591
GlyphClass: 3
Flags: W
LayerCount: 2
Fore
SplineSet
472 800 m 2,0,-1
 120 800 l 2,1,2
 70 800 70 800 35 765 c 128,-1,3
 0 730 0 730 0 680 c 2,4,-1
 0 -80 l 2,5,6
 0 -130 0 -130 35 -165 c 128,-1,7
 70 -200 70 -200 120 -200 c 2,8,-1
 471 -200 l 2,9,10
 520 -200 520 -200 555.5 -165 c 128,-1,11
 591 -130 591 -130 591 -80 c 2,12,-1
 591 680 l 2,13,14
 592 729 592 729 557 764.5 c 128,-1,15
 522 800 522 800 472 800 c 2,0,-1
512 -80 m 1,16,17
 512 -96 512 -96 500 -108 c 128,-1,18
 488 -120 488 -120 472 -120 c 2,19,-1
 120 -120 l 2,20,21
 104 -120 104 -120 92 -108 c 128,-1,22
 80 -96 80 -96 80 -80 c 2,23,-1
 80 680 l 2,24,25
 80 696 80 696 92 708 c 128,-1,26
 104 720 104 720 120 720 c 2,27,-1
 164 720 l 1,28,-1
 164 693 l 2,29,30
 164 683 164 683 171 676 c 128,-1,31
 178 669 178 669 188 669 c 2,32,-1
 403 669 l 2,33,34
 413 669 413 669 420 676 c 128,-1,35
 427 683 427 683 427 693 c 2,36,-1
 427 720 l 1,37,-1
 471 720 l 2,38,39
 488 720 488 720 499.5 708 c 128,-1,40
 511 696 511 696 511 680 c 2,41,-1
 511 -80 l 1,42,-1
 512 -80 l 1,16,17
EndSplineSet
Validated: 41
Ligature2: "'liga' Ligaduras est+AOEA-ndar en Latin b+APoA-squeda 0 subtabla" i o s
EndChar

StartChar: smartphone
Encoding: 57438 57438 156
Width: 591
GlyphClass: 3
Flags: W
LayerCount: 2
Fore
SplineSet
472 -200 m 2,0,-1
 120 -200 l 2,1,2
 70 -200 70 -200 35 -165 c 128,-1,3
 0 -130 0 -130 0 -80 c 2,4,-1
 0 680 l 2,5,6
 0 730 0 730 35 765 c 128,-1,7
 70 800 70 800 120 800 c 2,8,-1
 471 800 l 2,9,10
 520 800 520 800 555.5 765 c 128,-1,11
 591 730 591 730 591 680 c 2,12,-1
 591 -80 l 2,13,14
 592 -129 592 -129 557 -164.5 c 128,-1,15
 522 -200 522 -200 472 -200 c 2,0,-1
120 720 m 2,16,17
 104 720 104 720 92 708 c 128,-1,18
 80 696 80 696 80 680 c 2,19,-1
 80 -80 l 2,20,21
 80 -96 80 -96 92 -108 c 128,-1,22
 104 -120 104 -120 120 -120 c 2,23,-1
 471 -120 l 2,24,25
 488 -120 488 -120 499.5 -108 c 128,-1,26
 511 -96 511 -96 511 -80 c 2,27,-1
 511 680 l 2,28,29
 511 696 511 696 499.5 708 c 128,-1,30
 488 720 488 720 471 720 c 2,31,-1
 120 720 l 2,16,17
261 -26 m 128,-1,33
 261 -43 261 -43 272.5 -54.5 c 128,-1,34
 284 -66 284 -66 301 -66 c 128,-1,35
 318 -66 318 -66 329.5 -54.5 c 128,-1,36
 341 -43 341 -43 341 -26 c 128,-1,37
 341 -9 341 -9 329.5 2.5 c 128,-1,38
 318 14 318 14 301 14 c 128,-1,39
 284 14 284 14 272.5 2.5 c 128,-1,32
 261 -9 261 -9 261 -26 c 128,-1,33
EndSplineSet
Validated: 41
Ligature2: "'liga' Ligaduras est+AOEA-ndar en Latin b+APoA-squeda 0 subtabla" s m a r t p h o n e
EndChar

StartChar: face_good
Encoding: 57439 57439 157
Width: 1000
GlyphClass: 3
Flags: W
LayerCount: 2
Fore
SplineSet
500 -200 m 128,-1,1
 364 -200 364 -200 249 -133 c 128,-1,2
 134 -66 134 -66 67 49 c 128,-1,3
 0 164 0 164 0 300 c 128,-1,4
 0 436 0 436 67 551 c 128,-1,5
 134 666 134 666 249 733 c 128,-1,6
 364 800 364 800 500 800 c 128,-1,7
 636 800 636 800 751 733 c 128,-1,8
 866 666 866 666 933 551 c 128,-1,9
 1000 436 1000 436 1000 300 c 128,-1,10
 1000 164 1000 164 933 49 c 128,-1,11
 866 -66 866 -66 751 -133 c 128,-1,0
 636 -200 636 -200 500 -200 c 128,-1,1
500 720 m 128,-1,13
 326 720 326 720 203 597 c 128,-1,14
 80 474 80 474 80 300 c 128,-1,15
 80 126 80 126 203 3 c 128,-1,16
 326 -120 326 -120 500 -120 c 128,-1,17
 674 -120 674 -120 797 3 c 128,-1,18
 920 126 920 126 920 300 c 128,-1,19
 920 474 920 474 797 597 c 128,-1,12
 674 720 674 720 500 720 c 128,-1,13
367 246 m 0,20,21
 363 246 363 246 355 248 c 0,22,23
 339 253 339 253 331.5 267.5 c 128,-1,24
 324 282 324 282 329 298 c 0,25,26
 349 359 349 359 329 419 c 0,27,28
 324 435 324 435 331.5 449.5 c 128,-1,29
 339 464 339 464 355 469 c 128,-1,30
 371 474 371 474 385.5 466.5 c 128,-1,31
 400 459 400 459 405 443 c 0,32,33
 432 357 432 357 405 272 c 0,34,35
 396 246 396 246 367 246 c 0,20,21
633 246 m 0,36,37
 629 246 629 246 621 248 c 0,38,39
 605 253 605 253 597.5 267.5 c 128,-1,40
 590 282 590 282 595 298 c 0,41,42
 615 359 615 359 595 419 c 0,43,44
 590 435 590 435 597.5 449.5 c 128,-1,45
 605 464 605 464 621 469 c 128,-1,46
 637 474 637 474 651.5 466.5 c 128,-1,47
 666 459 666 459 671 443 c 0,48,49
 698 357 698 357 671 272 c 0,50,51
 661 246 661 246 633 246 c 0,36,37
495 16 m 0,52,53
 409 16 409 16 337 61 c 0,54,55
 323 70 323 70 319 86 c 128,-1,56
 315 102 315 102 324 116 c 128,-1,57
 333 130 333 130 349 134 c 128,-1,58
 365 138 365 138 379 129 c 0,59,60
 433 96 433 96 495.5 96 c 128,-1,61
 558 96 558 96 612 129 c 0,62,63
 626 138 626 138 642 134 c 128,-1,64
 658 130 658 130 667 116 c 128,-1,65
 676 102 676 102 672 86 c 128,-1,66
 668 70 668 70 654 61 c 0,67,68
 580 16 580 16 495 16 c 0,52,53
EndSplineSet
Validated: 33
Ligature2: "'liga' Ligaduras est+AOEA-ndar en Latin b+APoA-squeda 0 subtabla" f a c e underscore g o o d
EndChar

